<?xml version="1.0" standalone="no"?>
<!DOCTYPE svg PUBLIC "-//W3C//DTD SVG 1.1//EN" "http://www.w3.org/Graphics/SVG/1.1/DTD/svg11.dtd" >
<svg xmlns="http://www.w3.org/2000/svg" xmlns:xlink="http://www.w3.org/1999/xlink" version="1.1">
<metadata>
Created by FontForge 20161116 at Fri Jan 27 11:55:59 2012
 By Jimmy Wärting
Mr Eaves is the sans-serif companion to Mrs Eaves.
</metadata>
<defs>
<font id="MrEavesXLModOT-Reg" horiz-adv-x="501" >
  <font-face 
    font-family="MrEavesXLModOT"
    font-weight="400"
    font-stretch="normal"
    units-per-em="1000"
    panose-1="2 11 6 3 6 5 2 2 2 4"
    ascent="800"
    descent="-200"
    x-height="432"
    cap-height="600"
    bbox="-139 -239.517 941 844"
    underline-thickness="30"
    underline-position="-100"
    stemh="67"
    stemv="76"
    unicode-range="U+0020-FB02"
  />
<missing-glyph horiz-adv-x="500" 
 />
    <glyph glyph-name="fi" unicode="fi" horiz-adv-x="473" 
d="M335 517v83h76v-83h-76zM335 0v432h76v-432h-76zM83 0v380h-88v52h88v1c0 126 48 174 139 174c19 0 42 -5 54 -9v-54c-15 3 -33 6 -46 6c-53 0 -71 -24 -71 -112v-6h117v-52h-117v-380h-76z" />
    <glyph glyph-name="fl" unicode="fl" horiz-adv-x="472" 
d="M83 0v380h-88v52h88v6c0 126 77 173 168 173c24 0 67 -11 84 -17l75 15v-609h-76v537c-15 7 -49 17 -75 17c-63 0 -100 -24 -100 -112v-10h117v-52h-117v-380h-76z" />
    <glyph glyph-name=".notdef" horiz-adv-x="500" 
 />
    <glyph glyph-name="Eth" unicode="&#xd0;" horiz-adv-x="617" 
d="M63 0v274h-56v55h56v271h186c233 0 334 -135 334 -300s-101 -300 -334 -300h-186zM143 70h107c195 0 250 110 250 230s-55 230 -250 230h-107v-201h144v-55h-144v-204z" />
    <glyph glyph-name="eth" unicode="&#xf0;" horiz-adv-x="535" 
d="M268 45c98 0 159 76 159 171c0 94 -61 171 -159 171c-99 0 -160 -77 -160 -171c0 -95 62 -171 160 -171zM268 -16c-140 0 -236 105 -236 232c0 124 94 232 236 232c31 0 51 -9 77 -20c-28 30 -71 65 -103 90l-92 -52l-21 34l79 45c-27 20 -49 35 -74 48l42 29
c26 -14 53 -29 82 -49l83 48l21 -34l-69 -39c104 -83 210 -193 210 -324c0 -124 -84 -240 -235 -240z" />
    <glyph glyph-name="Lslash" unicode="&#x141;" horiz-adv-x="434" 
d="M63 0v253l-45 -33l-26 37l71 53v290h80v-230l69 51l27 -37l-96 -71v-246h283v-67h-363z" />
    <glyph glyph-name="lslash" unicode="&#x142;" horiz-adv-x="200" 
d="M62 0v261l-49 -36l-25 36l74 55v284h76v-228l51 38l26 -36l-77 -57v-317h-76z" />
    <glyph glyph-name="Scaron" unicode="&#x160;" horiz-adv-x="467" 
d="M232 -13c-98 0 -167 39 -200 73l18 74c36 -39 96 -82 182 -82c71 0 126 40 126 105c0 61 -30 95 -142 125c-113 30 -167 91 -167 175c0 85 70 156 193 156c69 0 130 -28 163 -55l-18 -63c-40 29 -96 53 -145 53c-75 0 -118 -35 -118 -91c0 -43 27 -79 121 -104
c129 -34 188 -90 188 -189c0 -117 -98 -177 -201 -177zM233 668l-119 115l27 26l92 -76l92 76l27 -26z" />
    <glyph glyph-name="scaron" unicode="&#x161;" horiz-adv-x="393" 
d="M192 -13c-93 0 -160 45 -160 45l15 60c29 -18 85 -45 147 -45c54 0 96 19 96 67c0 38 -39 59 -110 77c-92 23 -134 72 -134 128c0 68 52 126 158 126c72 0 134 -36 134 -36l-15 -58c-30 20 -76 35 -119 35c-59 0 -88 -22 -88 -57c0 -37 36 -59 93 -73
c99 -24 151 -69 151 -126c0 -91 -69 -143 -168 -143zM197 501l-119 115l27 26l92 -76l92 76l27 -26z" />
    <glyph glyph-name="Yacute" unicode="&#xdd;" horiz-adv-x="548" 
d="M234 0v240l-235 360h87l190 -295l190 295h83l-235 -360v-240h-80zM243 664l-13 21l135 112l37 -56z" />
    <glyph glyph-name="yacute" unicode="&#xfd;" horiz-adv-x="435" 
d="M83 -195l98 219l-179 408h78l140 -324l139 324h74l-275 -627h-75zM187 497l-13 21l135 112l37 -56z" />
    <glyph glyph-name="Thorn" unicode="&#xde;" horiz-adv-x="468" 
d="M63 0v600h80v-110h118c137 0 196 -84 196 -181s-59 -181 -196 -181h-118v-128h-80zM143 195h118c90 0 117 59 117 114s-27 114 -117 114h-118v-228z" />
    <glyph glyph-name="thorn" unicode="&#xfe;" horiz-adv-x="544" 
d="M282 49c82 0 149 63 149 167s-67 167 -149 167s-149 -63 -149 -167s67 -167 149 -167zM138 364c37 49 96 80 163 80c119 0 206 -102 206 -228s-87 -228 -206 -228c-67 0 -127 31 -163 80v-263h-76v795h76v-236z" />
    <glyph glyph-name="Zcaron" unicode="&#x17d;" horiz-adv-x="480" 
d="M33 0v46l315 487h-315v67h413v-46l-315 -487h315v-67h-413zM239 668l-119 115l27 26l92 -76l92 76l27 -26z" />
    <glyph glyph-name="zcaron" unicode="&#x17e;" horiz-adv-x="388" 
d="M20 0v46l244 326h-231v60h322v-46l-244 -326h249v-60h-340zM194 501l-119 115l27 26l92 -76l92 76l27 -26z" />
    <glyph glyph-name="DLE" horiz-adv-x="472" 
d="M80 99l-34 35l75 74c-17 23 -26 51 -26 81s9 58 25 80l-74 75l34 35l75 -75c23 16 50 25 80 25s58 -9 80 -26l76 76l35 -34l-76 -76c16 -23 25 -50 25 -80s-9 -57 -25 -80l76 -76l-35 -34l-76 76c-23 -16 -50 -25 -80 -25c-29 0 -57 9 -79 24zM235 196c52 0 94 41 94 93
s-42 94 -94 94s-94 -42 -94 -94s42 -93 94 -93z" />
    <glyph glyph-name="onehalf" unicode="&#xbd;" horiz-adv-x="627" 
d="M116 -18l-36 18l383 618l36 -18zM354 0v34l77 82c30 32 59 66 59 109c0 38 -25 51 -47 51c-25 0 -51 -11 -81 -36v57c20 16 57 32 92 32c61 0 104 -37 104 -98c0 -54 -37 -96 -63 -120l-59 -55h129v-56h-211zM92 280v268h-33v41l99 18v-327h-66z" />
    <glyph glyph-name="onequarter" unicode="&#xbc;" horiz-adv-x="635" 
d="M116 -18l-36 18l383 618l36 -18zM92 280v268h-33v41l99 18v-327h-66zM455 0v79h-143v32l154 213h55v-197h59v-48h-59v-79h-66zM374 127h81v109z" />
    <glyph glyph-name="onesuperior" unicode="&#xb9;" horiz-adv-x="197" 
d="M68 357v268h-33v41l99 18v-327h-66z" />
    <glyph glyph-name="threequarters" unicode="&#xbe;" horiz-adv-x="690" 
d="M171 -18l-36 18l383 618l36 -18zM158 271c-42 0 -73 15 -96 33v58c26 -25 56 -41 90 -41c36 0 58 23 58 62c0 34 -18 55 -52 55c-19 0 -34 -8 -43 -17l-25 29l99 94h-126v56h212v-34l-87 -82c48 -6 89 -44 89 -103c0 -67 -49 -110 -119 -110zM510 0v79h-143v32l154 213
h55v-197h59v-48h-59v-79h-66zM429 127h81v109z" />
    <glyph glyph-name="threesuperior" unicode="&#xb3;" horiz-adv-x="287" 
d="M132 348c-42 0 -73 15 -96 33v58c26 -25 56 -41 90 -41c36 0 58 23 58 62c0 34 -18 55 -52 55c-19 0 -34 -8 -43 -17l-25 29l99 94h-126v56h212v-34l-87 -82c48 -6 89 -44 89 -103c0 -67 -49 -110 -119 -110z" />
    <glyph glyph-name="twosuperior" unicode="&#xb2;" horiz-adv-x="274" 
d="M27 357v34l77 82c30 32 59 66 59 109c0 38 -25 51 -47 51c-25 0 -51 -11 -81 -36v57c20 16 57 32 92 32c61 0 104 -37 104 -98c0 -54 -38 -96 -63 -120l-59 -55h129v-56h-211z" />
    <glyph glyph-name="brokenbar" unicode="&#xa6;" horiz-adv-x="220" 
d="M85 349v337h50v-337h-50zM85 -96v337h50v-337h-50z" />
    <glyph glyph-name="minus" unicode="&#x2212;" horiz-adv-x="430" 
d="M66 262v54h298v-54h-298z" />
    <glyph glyph-name="multiply" unicode="&#xd7;" horiz-adv-x="430" 
d="M99 134l-39 39l117 116l-116 115l39 39l115 -116l115 116l39 -39l-116 -115l117 -116l-39 -39l-116 117z" />
    <glyph glyph-name="space" unicode=" " horiz-adv-x="193" 
 />
    <glyph glyph-name="exclam" unicode="!" horiz-adv-x="230" 
d="M92 160l-24 440h95l-25 -440h-46zM71 0v88h88v-88h-88z" />
    <glyph glyph-name="quotedbl" unicode="&#x22;" horiz-adv-x="384" 
d="M261 392l-35 208h98l-35 -208h-28zM94 392l-35 208h98l-35 -208h-28z" />
    <glyph glyph-name="numbersign" unicode="#" horiz-adv-x="424" 
d="M65 94l23 132h-73l10 57h72l22 129h-73l10 57h72l23 131h54l-22 -131h97l23 131h54l-22 -131h73l-11 -57h-71l-23 -129h74l-11 -57h-72l-23 -132h-54l23 132h-98l-23 -132h-54zM151 283h98l22 129h-97z" />
    <glyph glyph-name="dollar" unicode="$" horiz-adv-x="467" 
d="M214 -83v83c-82 6 -152 41 -180 71l17 70c30 -33 92 -71 163 -79v222c-106 29 -164 88 -164 166c0 76 60 144 164 151v82h45v-82c58 -6 118 -31 145 -54l-17 -59c-31 22 -84 43 -128 50v-191c113 -34 172 -87 172 -177c0 -104 -81 -163 -172 -170v-83h-45zM214 360v179
c-59 -6 -93 -40 -93 -89c0 -35 26 -66 93 -90zM259 62c58 7 101 46 101 102c0 50 -27 81 -101 106v-208z" />
    <glyph glyph-name="percent" unicode="%" horiz-adv-x="673" 
d="M163 -18l-36 18l383 618l36 -18zM178 315c-74 0 -131 63 -131 150c0 86 57 149 131 149c75 0 132 -63 132 -149c0 -87 -57 -150 -132 -150zM178 368c36 0 68 29 68 97c0 67 -32 96 -68 96c-37 0 -67 -29 -67 -96c0 -68 30 -97 67 -97zM493 -12c-74 0 -131 63 -131 150
c0 86 57 149 131 149c75 0 132 -63 132 -149c0 -87 -57 -150 -132 -150zM493 41c36 0 68 29 68 97c0 67 -32 96 -68 96c-37 0 -67 -29 -67 -96c0 -68 30 -97 67 -97z" />
    <glyph glyph-name="ampersand" unicode="&#x26;" horiz-adv-x="643" 
d="M222 355c74 42 143 79 143 140c0 44 -37 68 -82 68c-65 0 -99 -44 -99 -91c0 -42 14 -77 38 -117zM264 37c39 0 75 15 96 39c-47 45 -114 121 -166 197c-41 -30 -71 -66 -71 -118c0 -65 58 -118 141 -118zM256 -17c-105 0 -210 55 -210 175c0 74 54 122 117 162
c-32 55 -51 104 -51 151c0 85 76 146 171 146c87 0 151 -52 151 -122c0 -94 -96 -136 -181 -185c47 -65 101 -128 149 -174c17 31 25 118 24 165h154v-51h-96c-3 -44 -11 -106 -38 -157c54 -49 87 -60 122 -60c19 0 48 10 67 35l18 -27c-27 -41 -67 -58 -102 -58
c-52 0 -94 11 -148 54c-34 -32 -82 -54 -147 -54z" />
    <glyph glyph-name="quotesingle" unicode="'" horiz-adv-x="217" 
d="M94 392l-35 208h98l-35 -208h-28z" />
    <glyph glyph-name="parenleft" unicode="(" horiz-adv-x="312" 
d="M272 -111c-127 104 -200 236 -200 406s73 302 199 406l24 -21c-56 -62 -157 -195 -157 -385s101 -323 157 -385z" />
    <glyph glyph-name="parenright" unicode=")" horiz-adv-x="312" 
d="M41 -111l-24 21c56 62 158 195 158 385s-102 323 -158 385l25 21c126 -104 198 -236 198 -406s-72 -302 -199 -406z" />
    <glyph glyph-name="asterisk" unicode="*" horiz-adv-x="379" 
d="M190 243c-25 0 -40 21 -40 47c0 34 22 46 27 117c-59 -40 -59 -65 -88 -82c-22 -13 -48 -10 -61 11s-2 46 21 59c29 16 51 4 115 35c-64 31 -86 18 -115 35c-23 13 -33 37 -21 59s39 24 61 11c29 -17 29 -42 88 -82c-5 71 -27 83 -27 117c0 26 15 47 40 47s40 -21 40 -47
c0 -34 -22 -46 -27 -117c59 40 59 65 88 82c22 13 48 10 61 -11s2 -46 -21 -59c-29 -16 -51 -4 -115 -35c64 -31 86 -18 115 -35c23 -13 33 -37 21 -59s-39 -24 -61 -11c-29 17 -29 42 -88 82c5 -71 27 -83 27 -117c0 -26 -15 -47 -40 -47z" />
    <glyph glyph-name="plus" unicode="+" horiz-adv-x="430" 
d="M188 110v152h-152v54h152v152h54v-152h152v-54h-152v-152h-54z" />
    <glyph glyph-name="comma" unicode="," horiz-adv-x="230" 
d="M77 -127l-15 25c34 19 50 63 50 102h-43v92h92v-81c0 -68 -31 -122 -84 -138z" />
    <glyph glyph-name="hyphen" unicode="-" horiz-adv-x="290" 
d="M44 222v56h202v-56h-202z" />
    <glyph glyph-name="period" unicode="." horiz-adv-x="230" 
d="M69 0v92h92v-92h-92z" />
    <glyph glyph-name="slash" unicode="/" horiz-adv-x="320" 
d="M36 -18l-40 14l288 622l40 -14z" />
    <glyph glyph-name="zero" unicode="0" horiz-adv-x="542" 
d="M271 -17c-128 0 -228 120 -228 319c0 198 100 318 228 318c129 0 228 -120 228 -318c0 -199 -99 -319 -228 -319zM271 47c90 0 150 98 150 255c0 156 -60 254 -150 254s-150 -98 -150 -254c0 -157 60 -255 150 -255z" />
    <glyph glyph-name="one" unicode="1" horiz-adv-x="262" 
d="M98 0v526h-64v54l140 32v-612h-76z" />
    <glyph glyph-name="two" unicode="2" horiz-adv-x="443" 
d="M26 0v55l173 180c55 57 109 121 109 202c0 86 -50 116 -108 116c-52 0 -109 -23 -159 -67v72c27 27 100 60 161 60c110 0 185 -63 185 -175c0 -104 -71 -179 -119 -227l-151 -149h283v-67h-374z" />
    <glyph glyph-name="three" unicode="3" horiz-adv-x="467" 
d="M211 -17c-68 0 -131 26 -168 59v75c40 -37 89 -73 167 -73c82 0 138 57 138 143c0 74 -40 131 -122 131c-39 0 -73 -14 -97 -39l-33 36l215 218h-266v67h372v-40l-180 -183c104 -1 187 -68 187 -191c0 -125 -91 -203 -213 -203z" />
    <glyph glyph-name="four" unicode="4" horiz-adv-x="514" 
d="M307 0v156h-282v44l311 411h47v-393h109v-62h-109v-156h-76zM108 218h199v262z" />
    <glyph glyph-name="five" unicode="5" horiz-adv-x="459" 
d="M211 -17c-68 0 -131 26 -168 59v75c36 -36 89 -73 167 -73c82 0 138 64 138 149c0 74 -40 135 -122 135c-57 0 -97 -24 -122 -79l-40 25v326h336v-67h-274v-186c26 27 70 43 112 43c102 0 186 -75 186 -197c0 -125 -91 -210 -213 -210z" />
    <glyph glyph-name="six" unicode="6" 
d="M261 -17c-89 0 -213 50 -213 283c0 212 81 352 251 352c52 0 104 -18 129 -38v-69c-33 23 -79 43 -128 43c-101 0 -172 -67 -176 -252c25 44 81 81 153 81c106 0 187 -79 187 -202c0 -113 -91 -198 -203 -198zM256 43c79 0 130 55 130 138c0 81 -41 141 -125 141
c-64 0 -133 -52 -133 -124c0 -104 66 -155 128 -155z" />
    <glyph glyph-name="seven" unicode="7" horiz-adv-x="434" 
d="M91 0c39 187 199 487 231 533h-308v67h394v-39c-49 -69 -202 -372 -233 -561h-84z" />
    <glyph glyph-name="eight" unicode="8" horiz-adv-x="523" 
d="M262 -17c-122 0 -219 72 -219 177c0 89 59 150 137 175c-67 24 -101 78 -101 140c0 83 86 145 183 145c96 0 182 -62 182 -145c0 -62 -34 -116 -101 -140c78 -25 137 -86 137 -175c0 -105 -96 -177 -218 -177zM262 364c60 0 108 46 108 101c0 61 -48 98 -108 98
c-61 0 -108 -37 -108 -98c0 -55 48 -101 108 -101zM262 43c80 0 142 53 142 127c0 79 -64 130 -142 130s-143 -51 -143 -130c0 -74 63 -127 143 -127z" />
    <glyph glyph-name="nine" unicode="9" 
d="M202 -15c-52 0 -104 18 -129 38v69c33 -23 79 -43 128 -43c101 0 172 67 176 252c-25 -44 -81 -81 -153 -81c-106 0 -187 79 -187 202c0 113 91 198 203 198c89 0 213 -50 213 -283c0 -212 -81 -352 -251 -352zM240 281c64 0 133 52 133 124c0 104 -66 155 -128 155
c-79 0 -130 -55 -130 -138c0 -81 41 -141 125 -141z" />
    <glyph glyph-name="colon" unicode=":" horiz-adv-x="230" 
d="M71 0v88h88v-88h-88zM71 334v88h88v-88h-88z" />
    <glyph glyph-name="semicolon" unicode=";" horiz-adv-x="230" 
d="M71 334v88h88v-88h-88zM79 -127l-15 25c34 19 46 63 46 102h-39v88h88v-77c0 -68 -27 -122 -80 -138z" />
    <glyph glyph-name="less" unicode="&#x3c;" horiz-adv-x="435" 
d="M361 72l-310 218l310 217l26 -38l-244 -179l244 -179z" />
    <glyph glyph-name="equal" unicode="=" horiz-adv-x="430" 
d="M69 326v54h292v-54h-292zM69 200v54h292v-54h-292z" />
    <glyph glyph-name="greater" unicode="&#x3e;" horiz-adv-x="435" 
d="M74 72l-26 39l244 179l-244 179l26 38l310 -217z" />
    <glyph glyph-name="question" unicode="?" horiz-adv-x="424" 
d="M121 0v88h88v-88h-88zM134 160v126l46 22c110 53 138 95 138 151c0 65 -53 95 -123 95c-56 0 -134 -32 -175 -76v76c38 35 113 63 181 63c101 0 196 -49 196 -155c0 -92 -71 -148 -159 -190l-42 -20v-92h-62z" />
    <glyph glyph-name="at" unicode="@" horiz-adv-x="680" 
d="M325 66c37 0 80 39 89 93l27 157c-10 11 -24 22 -57 22c-58 0 -105 -58 -119 -138s3 -134 60 -134zM348 -128c-179 0 -323 132 -323 306c0 193 159 351 352 351c157 0 279 -105 279 -263c0 -131 -102 -246 -186 -246c-44 0 -61 26 -66 51c-22 -30 -57 -55 -99 -55
c-84 0 -122 84 -104 184c18 101 101 183 185 183c27 0 43 -5 64 -17h56l-43 -245c-8 -43 3 -60 32 -60c50 0 115 91 115 203c0 132 -106 216 -228 216c-160 0 -291 -137 -291 -299c0 -168 121 -270 265 -270c79 0 147 24 212 64l13 -28c-80 -57 -161 -75 -233 -75z" />
    <glyph glyph-name="A" unicode="A" horiz-adv-x="578" 
d="M5 0l258 600h52l258 -600h-82l-72 168h-264l-72 -168h-78zM182 233h210l-105 247z" />
    <glyph glyph-name="B" unicode="B" horiz-adv-x="495" 
d="M63 0v600h198c122 0 174 -71 174 -157c0 -46 -29 -92 -63 -118c58 -25 95 -86 95 -149c0 -97 -59 -176 -196 -176h-208zM143 67h128c90 0 117 54 117 109s-27 109 -117 109h-128v-218zM143 352h118c75 0 98 45 98 91s-23 90 -98 90h-118v-181z" />
    <glyph glyph-name="C" unicode="C" horiz-adv-x="600" 
d="M353 -13c-173 0 -319 119 -319 313s146 313 319 313c76 0 158 -25 208 -63v-83c-49 44 -115 79 -208 79c-138 0 -236 -96 -236 -246c0 -149 98 -246 236 -246c93 0 159 35 208 79v-83c-50 -38 -132 -63 -208 -63z" />
    <glyph glyph-name="D" unicode="D" horiz-adv-x="617" 
d="M63 0v600h186c233 0 334 -135 334 -300s-101 -300 -334 -300h-186zM143 70h107c195 0 250 110 250 230s-55 230 -250 230h-107v-460z" />
    <glyph glyph-name="E" unicode="E" horiz-adv-x="470" 
d="M63 0v600h363v-67h-283v-183h233v-67h-233v-216h283v-67h-363z" />
    <glyph glyph-name="F" unicode="F" horiz-adv-x="434" 
d="M63 0v600h363v-67h-283v-183h233v-67h-233v-283h-80z" />
    <glyph glyph-name="G" unicode="G" horiz-adv-x="649" 
d="M353 -17c-173 0 -319 123 -319 317s146 313 319 313c76 0 158 -25 208 -63v-83c-49 44 -115 79 -208 79c-138 0 -236 -96 -236 -246c0 -149 98 -250 236 -250c59 0 113 12 153 35v136h-123v67h203v-242c-33 -14 -122 -63 -233 -63z" />
    <glyph glyph-name="H" unicode="H" horiz-adv-x="617" 
d="M63 0v600h80v-250h331v250h80v-600h-80v283h-331v-283h-80z" />
    <glyph glyph-name="I" unicode="I" horiz-adv-x="206" 
d="M63 0v600h80v-600h-80z" />
    <glyph glyph-name="J" unicode="J" horiz-adv-x="206" 
d="M19 -198c-40 0 -67 19 -77 30v57c13 -12 42 -26 62 -26c42 0 59 19 59 85v652h80v-661c0 -78 -37 -137 -124 -137z" />
    <glyph glyph-name="K" unicode="K" horiz-adv-x="540" 
d="M63 0v600h80v-284l278 284h92l-285 -286l325 -314h-106l-304 295v-295h-80z" />
    <glyph glyph-name="L" unicode="L" horiz-adv-x="434" 
d="M63 0v600h80v-533h283v-67h-363z" />
    <glyph glyph-name="M" unicode="M" horiz-adv-x="742" 
d="M63 0v600h78l232 -498l232 498h74v-600h-77v409c0 15 2 49 2 50c-2 -3 -15 -36 -21 -50l-187 -409h-54l-187 409c-7 15 -20 47 -21 50c0 -1 2 -35 2 -50v-409h-73z" />
    <glyph glyph-name="N" unicode="N" horiz-adv-x="602" 
d="M63 0v600h46l357 -447v447h73v-600h-46l-357 447v-447h-73z" />
    <glyph glyph-name="O" unicode="O" horiz-adv-x="705" 
d="M353 -17c-184 0 -319 133 -319 317s135 317 319 317c183 0 318 -133 318 -317s-135 -317 -318 -317zM353 50c137 0 235 105 235 250c0 146 -98 250 -235 250c-138 0 -236 -104 -236 -250c0 -145 98 -250 236 -250z" />
    <glyph glyph-name="P" unicode="P" horiz-adv-x="468" 
d="M63 0v600h198c137 0 196 -84 196 -181s-59 -181 -196 -181h-118v-238h-80zM143 305h118c90 0 117 59 117 114s-27 114 -117 114h-118v-228z" />
    <glyph glyph-name="Q" unicode="Q" horiz-adv-x="705" 
d="M554 -198c-68 0 -124 34 -167 112l-38 69c-182 2 -315 134 -315 317c0 184 135 317 319 317c183 0 318 -133 318 -317c0 -156 -98 -276 -239 -308l30 -52c36 -61 68 -79 113 -79c11 0 22 1 34 4v-56c-19 -5 -37 -7 -55 -7zM353 50c137 0 235 105 235 250
c0 146 -98 250 -235 250c-138 0 -236 -104 -236 -250c0 -145 98 -250 236 -250z" />
    <glyph glyph-name="R" unicode="R" horiz-adv-x="512" 
d="M63 0v600h198c137 0 196 -79 196 -176c0 -78 -38 -144 -124 -167l182 -257h-93l-172 248h-107v-248h-80zM143 315h118c90 0 117 54 117 109s-27 109 -117 109h-118v-218z" />
    <glyph glyph-name="S" unicode="S" horiz-adv-x="467" 
d="M232 -13c-98 0 -167 39 -200 73l18 74c36 -39 96 -82 182 -82c71 0 126 40 126 105c0 61 -30 95 -142 125c-113 30 -167 91 -167 175c0 85 70 156 193 156c69 0 130 -28 163 -55l-18 -63c-40 29 -96 53 -145 53c-75 0 -118 -35 -118 -91c0 -43 27 -79 121 -104
c129 -34 188 -90 188 -189c0 -117 -98 -177 -201 -177z" />
    <glyph glyph-name="T" unicode="T" horiz-adv-x="521" 
d="M220 0v533h-213v67h506v-67h-213v-533h-80z" />
    <glyph glyph-name="U" unicode="U" horiz-adv-x="646" 
d="M323 -17c-155 0 -260 91 -260 294v323h82v-324c0 -155 70 -223 180 -223s180 68 180 223v324h78v-323c0 -203 -105 -294 -260 -294z" />
    <glyph glyph-name="V" unicode="V" horiz-adv-x="578" 
d="M263 0l-258 600h82l204 -478l204 478h78l-258 -600h-52z" />
    <glyph glyph-name="W" unicode="W" horiz-adv-x="828" 
d="M212 0l-207 600h82l144 -443c3 -10 7 -34 8 -37c0 3 6 26 10 37l142 443h50l142 -443c4 -11 10 -37 10 -37s4 26 8 37l144 443h78l-207 -600h-50l-142 411c-3 8 -9 30 -10 33c-1 -2 -7 -25 -10 -33l-142 -411h-50z" />
    <glyph glyph-name="X" unicode="X" horiz-adv-x="542" 
d="M-4 0l228 308l-216 292h93l171 -235l173 235h89l-216 -293l228 -307h-93l-183 251l-185 -251h-89z" />
    <glyph glyph-name="Y" unicode="Y" horiz-adv-x="548" 
d="M234 0v240l-235 360h87l190 -295l190 295h83l-235 -360v-240h-80z" />
    <glyph glyph-name="Z" unicode="Z" horiz-adv-x="480" 
d="M33 0v46l315 487h-315v67h413v-46l-315 -487h315v-67h-413z" />
    <glyph glyph-name="bracketleft" unicode="[" horiz-adv-x="306" 
d="M106 -88v766h162v-42h-101v-682h101v-42h-162z" />
    <glyph glyph-name="backslash" unicode="\" horiz-adv-x="320" 
d="M283 -18l-288 622l40 14l288 -622z" />
    <glyph glyph-name="bracketright" unicode="]" horiz-adv-x="306" 
d="M38 -88v42h102v682h-102v42h163v-766h-163z" />
    <glyph glyph-name="asciicircum" unicode="^" horiz-adv-x="467" 
d="M55 281l-39 26l218 310l217 -310l-38 -26l-179 244z" />
    <glyph glyph-name="underscore" unicode="_" horiz-adv-x="330" 
d="M-5 -44v44h340v-44h-340z" />
    <glyph glyph-name="grave" unicode="`" horiz-adv-x="300" 
d="M221 497l-159 77l37 56l135 -112z" />
    <glyph glyph-name="a" unicode="a" horiz-adv-x="544" 
d="M243 -12c-119 0 -206 102 -206 228s87 228 206 228c71 0 134 -35 170 -90l3 78h66v-432h-66l-3 78c-36 -55 -99 -90 -170 -90zM262 49c82 0 149 63 149 167s-67 167 -149 167s-149 -63 -149 -167s67 -167 149 -167z" />
    <glyph glyph-name="b" unicode="b" horiz-adv-x="544" 
d="M301 -12c-71 0 -134 35 -170 90l-3 -78h-66v600h76v-236c36 49 96 80 163 80c119 0 206 -102 206 -228s-87 -228 -206 -228zM282 49c82 0 149 63 149 167s-67 167 -149 167s-149 -63 -149 -167s67 -167 149 -167z" />
    <glyph glyph-name="c" unicode="c" horiz-adv-x="450" 
d="M263 -12c-131 0 -225 93 -225 228s94 228 225 228c57 0 102 -10 151 -44v-69c-41 38 -94 51 -144 51c-93 0 -156 -71 -156 -166c0 -97 63 -166 156 -166c50 0 103 13 144 51v-69c-49 -34 -94 -44 -151 -44z" />
    <glyph glyph-name="d" unicode="d" horiz-adv-x="544" 
d="M243 -12c-119 0 -206 102 -206 228s87 228 206 228c67 0 127 -31 163 -80v236h76v-600h-66l-3 78c-36 -55 -99 -90 -170 -90zM262 49c82 0 149 63 149 167s-67 167 -149 167s-149 -63 -149 -167s67 -167 149 -167z" />
    <glyph glyph-name="e" unicode="e" horiz-adv-x="474" 
d="M255 -12c-127 0 -217 97 -217 231c0 139 103 225 209 225c108 0 184 -70 184 -168c0 -15 -3 -34 -6 -49h-312c-6 -76 30 -177 168 -177c49 0 109 24 142 56v-67c-41 -33 -105 -51 -168 -51zM120 280h238c9 58 -37 104 -108 104c-61 0 -117 -33 -130 -104z" />
    <glyph glyph-name="f" unicode="f" horiz-adv-x="273" 
d="M83 0v380h-88v52h88v1c0 126 48 174 139 174c19 0 42 -5 54 -9v-54c-15 3 -33 6 -46 6c-53 0 -71 -24 -71 -112v-6h117v-52h-117v-380h-76z" />
    <glyph glyph-name="g" unicode="g" horiz-adv-x="544" 
d="M253 -204c-64 0 -130 22 -178 50v68c66 -40 111 -56 187 -56c75 0 144 45 144 172v38c-36 -49 -96 -80 -163 -80c-119 0 -206 102 -206 228s87 228 206 228c71 0 134 -35 170 -90l3 78h66v-394c0 -200 -125 -242 -229 -242zM262 49c82 0 149 63 149 167s-67 167 -149 167
s-149 -63 -149 -167s67 -167 149 -167z" />
    <glyph glyph-name="h" unicode="h" horiz-adv-x="518" 
d="M62 0v600h76v-242c37 47 93 86 163 86c115 0 156 -80 156 -187v-257h-76v250c0 97 -38 129 -101 129c-62 0 -142 -54 -142 -124v-255h-76z" />
    <glyph glyph-name="i" unicode="i" horiz-adv-x="200" 
d="M62 517v83h76v-83h-76zM62 0v432h76v-432h-76z" />
    <glyph glyph-name="j" unicode="j" horiz-adv-x="200" 
d="M62 517v83h76v-83h-76zM20 -204c-38 0 -64 18 -74 28v55c13 -12 40 -25 60 -25c40 0 56 18 56 81v497h76v-506c0 -74 -35 -130 -118 -130z" />
    <glyph glyph-name="k" unicode="k" horiz-adv-x="449" 
d="M62 0v600h76v-352l206 184h94l-220 -193l228 -239h-99l-209 224v-224h-76z" />
    <glyph glyph-name="l" unicode="l" horiz-adv-x="200" 
d="M62 0v600h76v-600h-76z" />
    <glyph glyph-name="m" unicode="m" horiz-adv-x="801" 
d="M62 0v432h66l5 -83c36 55 91 95 159 95c81 0 120 -39 137 -99c47 66 105 99 165 99c115 0 146 -80 146 -187v-257h-76v251c0 95 -29 128 -92 128c-62 0 -133 -54 -133 -124v-255h-76v251c0 95 -29 128 -92 128c-62 0 -133 -54 -133 -124v-255h-76z" />
    <glyph glyph-name="n" unicode="n" horiz-adv-x="518" 
d="M62 0v432h66l5 -83c32 52 95 95 168 95c115 0 156 -80 156 -187v-257h-76v250c0 97 -38 129 -101 129c-62 0 -142 -54 -142 -124v-255h-76z" />
    <glyph glyph-name="o" unicode="o" horiz-adv-x="535" 
d="M268 -16c-140 0 -236 105 -236 232c0 126 96 232 236 232c139 0 235 -106 235 -232c0 -127 -96 -232 -235 -232zM268 45c98 0 159 76 159 171c0 94 -61 171 -159 171c-99 0 -160 -77 -160 -171c0 -95 62 -171 160 -171z" />
    <glyph glyph-name="p" unicode="p" horiz-adv-x="544" 
d="M62 -195v627h66l3 -78c36 55 99 90 170 90c119 0 206 -102 206 -228s-87 -228 -206 -228c-67 0 -127 31 -163 80v-263h-76zM282 49c82 0 149 63 149 167s-67 167 -149 167s-149 -63 -149 -167s67 -167 149 -167z" />
    <glyph glyph-name="q" unicode="q" horiz-adv-x="544" 
d="M406 -195v263c-36 -49 -96 -80 -163 -80c-119 0 -206 102 -206 228s87 228 206 228c71 0 134 -35 170 -90l3 78h66v-627h-76zM262 49c82 0 149 63 149 167s-67 167 -149 167s-149 -63 -149 -167s67 -167 149 -167z" />
    <glyph glyph-name="r" unicode="r" horiz-adv-x="315" 
d="M62 0v432h66l5 -83c28 53 95 95 168 95v-82c-82 15 -163 -32 -163 -105v-257h-76z" />
    <glyph glyph-name="s" unicode="s" horiz-adv-x="393" 
d="M192 -13c-93 0 -160 45 -160 45l15 60c29 -18 85 -45 147 -45c54 0 96 19 96 67c0 38 -39 59 -110 77c-92 23 -134 72 -134 128c0 68 52 126 158 126c72 0 134 -36 134 -36l-15 -58c-30 20 -76 35 -119 35c-59 0 -88 -22 -88 -57c0 -37 36 -59 93 -73
c99 -24 151 -69 151 -126c0 -91 -69 -143 -168 -143z" />
    <glyph glyph-name="t" unicode="t" horiz-adv-x="305" 
d="M114 0v380h-97v52h97v118h76v-118h98v-52h-98v-380h-76z" />
    <glyph glyph-name="u" unicode="u" horiz-adv-x="518" 
d="M217 -12c-115 0 -156 80 -156 187v257h76v-250c0 -97 38 -129 101 -129c62 0 142 54 142 124v255h76v-432h-66l-5 83c-32 -52 -96 -95 -168 -95z" />
    <glyph glyph-name="v" unicode="v" horiz-adv-x="435" 
d="M192 -1l-190 433h78l140 -324l139 324h74l-190 -433h-51z" />
    <glyph glyph-name="w" unicode="w" horiz-adv-x="699" 
d="M178 -1l-170 433h75l123 -325l123 325h45l124 -325l122 325h71l-170 -433h-49l-122 313l-124 -313h-48z" />
    <glyph glyph-name="x" unicode="x" horiz-adv-x="441" 
d="M4 0l172 220l-162 212h84l123 -160l126 160h80l-162 -209l172 -223h-88l-130 171l-131 -171h-84z" />
    <glyph glyph-name="y" unicode="y" horiz-adv-x="435" 
d="M83 -195l98 219l-179 408h78l140 -324l139 324h74l-275 -627h-75z" />
    <glyph glyph-name="z" unicode="z" horiz-adv-x="388" 
d="M20 0v46l244 326h-231v60h322v-46l-244 -326h249v-60h-340z" />
    <glyph glyph-name="braceleft" unicode="{" horiz-adv-x="312" 
d="M257 -111c-87 50 -100 84 -100 225c0 143 -48 149 -106 169v26c58 20 106 26 106 169c0 140 13 175 100 225l20 -29c-60 -41 -61 -79 -61 -194c0 -145 -36 -167 -107 -184c71 -17 107 -39 107 -184c0 -115 1 -153 61 -194z" />
    <glyph glyph-name="bar" unicode="|" horiz-adv-x="220" 
d="M85 -96v782h50v-782h-50z" />
    <glyph glyph-name="braceright" unicode="}" horiz-adv-x="312" 
d="M55 -111l-20 29c60 41 61 79 61 194c0 145 36 167 107 184c-71 17 -107 39 -107 184c0 115 -1 153 -61 194l20 29c87 -50 100 -85 100 -225c0 -143 48 -149 106 -169v-26c-58 -20 -106 -26 -106 -169c0 -141 -13 -175 -100 -225z" />
    <glyph glyph-name="asciitilde" unicode="~" horiz-adv-x="435" 
d="M286 192c-48 0 -105 61 -149 61c-27 0 -33 -21 -42 -57h-29c0 77 31 113 81 113c48 0 105 -61 149 -61c27 0 33 21 42 57h29c0 -77 -31 -113 -81 -113z" />
    <glyph glyph-name="Adieresis" unicode="&#xc4;" horiz-adv-x="578" 
d="M5 0l258 600h52l258 -600h-82l-72 168h-264l-72 -168h-78zM182 233h210l-105 247zM168 674v76h76v-76h-76zM334 674v76h76v-76h-76z" />
    <glyph glyph-name="Aring" unicode="&#xc5;" horiz-adv-x="578" 
d="M5 0l258 600h52l258 -600h-82l-72 168h-264l-72 -168h-78zM182 233h210l-105 247zM289 663c-51 0 -91 39 -91 90s40 91 91 91s91 -40 91 -91s-40 -90 -91 -90zM289 702c29 0 52 22 52 51s-23 52 -52 52s-52 -23 -52 -52s23 -51 52 -51z" />
    <glyph glyph-name="Ccedilla" unicode="&#xc7;" horiz-adv-x="600" 
d="M324 -12c-160 13 -290 129 -290 312c0 194 146 313 319 313c76 0 158 -25 208 -63v-83c-49 44 -115 79 -208 79c-138 0 -236 -96 -236 -246c0 -149 98 -246 236 -246c93 0 159 35 208 79v-83c-46 -35 -119 -59 -189 -62c0 -1 -45 -46 -45 -46c34 -2 87 -24 87 -76
c0 -79 -84 -110 -172 -105v37c67 -1 117 17 117 63c0 40 -56 51 -103 36v23z" />
    <glyph glyph-name="Eacute" unicode="&#xc9;" horiz-adv-x="470" 
d="M63 0v600h363v-67h-283v-183h233v-67h-233v-216h283v-67h-363zM207 664l-13 21l135 112l37 -56z" />
    <glyph glyph-name="Ntilde" unicode="&#xd1;" horiz-adv-x="602" 
d="M63 0v600h46l357 -447v447h73v-600h-46l-357 447v-447h-73zM354 673c-42 0 -84 49 -117 49c-23 0 -30 -15 -33 -45h-31c0 63 26 94 68 94s84 -49 117 -49c23 0 30 15 33 45h31c0 -63 -26 -94 -68 -94z" />
    <glyph glyph-name="Odieresis" unicode="&#xd6;" horiz-adv-x="705" 
d="M353 -17c-184 0 -319 133 -319 317s135 317 319 317c183 0 318 -133 318 -317s-135 -317 -318 -317zM353 50c137 0 235 105 235 250c0 146 -98 250 -235 250c-138 0 -236 -104 -236 -250c0 -145 98 -250 236 -250zM232 674v76h76v-76h-76zM398 674v76h76v-76h-76z" />
    <glyph glyph-name="Udieresis" unicode="&#xdc;" horiz-adv-x="646" 
d="M323 -17c-155 0 -260 91 -260 294v323h82v-324c0 -155 70 -223 180 -223s180 68 180 223v324h78v-323c0 -203 -105 -294 -260 -294zM206 674v76h76v-76h-76zM372 674v76h76v-76h-76z" />
    <glyph glyph-name="aacute" unicode="&#xe1;" horiz-adv-x="544" 
d="M243 -12c-119 0 -206 102 -206 228s87 228 206 228c71 0 134 -35 170 -90l3 78h66v-432h-66l-3 78c-36 -55 -99 -90 -170 -90zM262 49c82 0 149 63 149 167s-67 167 -149 167s-149 -63 -149 -167s67 -167 149 -167zM201 497l-13 21l135 112l37 -56z" />
    <glyph glyph-name="agrave" unicode="&#xe0;" horiz-adv-x="544" 
d="M243 -12c-119 0 -206 102 -206 228s87 228 206 228c71 0 134 -35 170 -90l3 78h66v-432h-66l-3 78c-36 -55 -99 -90 -170 -90zM262 49c82 0 149 63 149 167s-67 167 -149 167s-149 -63 -149 -167s67 -167 149 -167zM322 497l-159 77l37 56l135 -112z" />
    <glyph glyph-name="acircumflex" unicode="&#xe2;" horiz-adv-x="544" 
d="M243 -12c-119 0 -206 102 -206 228s87 228 206 228c71 0 134 -35 170 -90l3 78h66v-432h-66l-3 78c-36 -55 -99 -90 -170 -90zM262 49c82 0 149 63 149 167s-67 167 -149 167s-149 -63 -149 -167s67 -167 149 -167zM169 502l-27 26l119 115l119 -115l-27 -26l-92 76z" />
    <glyph glyph-name="adieresis" unicode="&#xe4;" horiz-adv-x="544" 
d="M243 -12c-119 0 -206 102 -206 228s87 228 206 228c71 0 134 -35 170 -90l3 78h66v-432h-66l-3 78c-36 -55 -99 -90 -170 -90zM262 49c82 0 149 63 149 167s-67 167 -149 167s-149 -63 -149 -167s67 -167 149 -167zM140 507v76h76v-76h-76zM306 507v76h76v-76h-76z" />
    <glyph glyph-name="atilde" unicode="&#xe3;" horiz-adv-x="544" 
d="M243 -12c-119 0 -206 102 -206 228s87 228 206 228c71 0 134 -35 170 -90l3 78h66v-432h-66l-3 78c-36 -55 -99 -90 -170 -90zM262 49c82 0 149 63 149 167s-67 167 -149 167s-149 -63 -149 -167s67 -167 149 -167zM317 506c-42 0 -84 49 -117 49c-23 0 -30 -15 -33 -45
h-31c0 63 26 94 68 94s84 -49 117 -49c23 0 30 15 33 45h31c0 -63 -26 -94 -68 -94z" />
    <glyph glyph-name="aring" unicode="&#xe5;" horiz-adv-x="544" 
d="M243 -12c-119 0 -206 102 -206 228s87 228 206 228c71 0 134 -35 170 -90l3 78h66v-432h-66l-3 78c-36 -55 -99 -90 -170 -90zM262 49c82 0 149 63 149 167s-67 167 -149 167s-149 -63 -149 -167s67 -167 149 -167zM261 502c-51 0 -91 39 -91 90s40 91 91 91
s91 -40 91 -91s-40 -90 -91 -90zM261 541c29 0 52 22 52 51s-23 52 -52 52s-52 -23 -52 -52s23 -51 52 -51z" />
    <glyph glyph-name="ccedilla" unicode="&#xe7;" horiz-adv-x="450" 
d="M232 -10c-115 13 -194 102 -194 226c0 135 94 228 225 228c57 0 102 -10 151 -44v-69c-41 38 -94 51 -144 51c-93 0 -156 -71 -156 -166c0 -97 63 -166 156 -166c50 0 103 13 144 51v-69c-44 -31 -85 -42 -134 -44l-36 -36c34 -2 87 -24 87 -76c0 -79 -84 -110 -172 -105
v37c67 -1 117 17 117 63c0 40 -56 51 -103 36v23z" />
    <glyph glyph-name="eacute" unicode="&#xe9;" horiz-adv-x="474" 
d="M255 -12c-127 0 -217 97 -217 231c0 139 103 225 209 225c108 0 184 -70 184 -168c0 -15 -3 -34 -6 -49h-312c-6 -76 30 -177 168 -177c49 0 109 24 142 56v-67c-41 -33 -105 -51 -168 -51zM120 280h238c9 58 -37 104 -108 104c-61 0 -117 -33 -130 -104zM192 497l-13 21
l135 112l37 -56z" />
    <glyph glyph-name="egrave" unicode="&#xe8;" horiz-adv-x="474" 
d="M255 -12c-127 0 -217 97 -217 231c0 139 103 225 209 225c108 0 184 -70 184 -168c0 -15 -3 -34 -6 -49h-312c-6 -76 30 -177 168 -177c49 0 109 24 142 56v-67c-41 -33 -105 -51 -168 -51zM120 280h238c9 58 -37 104 -108 104c-61 0 -117 -33 -130 -104zM313 497
l-159 77l37 56l135 -112z" />
    <glyph glyph-name="ecircumflex" unicode="&#xea;" horiz-adv-x="474" 
d="M255 -12c-127 0 -217 97 -217 231c0 139 103 225 209 225c108 0 184 -70 184 -168c0 -15 -3 -34 -6 -49h-312c-6 -76 30 -177 168 -177c49 0 109 24 142 56v-67c-41 -33 -105 -51 -168 -51zM120 280h238c9 58 -37 104 -108 104c-61 0 -117 -33 -130 -104zM160 502l-27 26
l119 115l119 -115l-27 -26l-92 76z" />
    <glyph glyph-name="edieresis" unicode="&#xeb;" horiz-adv-x="474" 
d="M255 -12c-127 0 -217 97 -217 231c0 139 103 225 209 225c108 0 184 -70 184 -168c0 -15 -3 -34 -6 -49h-312c-6 -76 30 -177 168 -177c49 0 109 24 142 56v-67c-41 -33 -105 -51 -168 -51zM120 280h238c9 58 -37 104 -108 104c-61 0 -117 -33 -130 -104zM131 507v76h76
v-76h-76zM297 507v76h76v-76h-76z" />
    <glyph glyph-name="iacute" unicode="&#xed;" horiz-adv-x="200" 
d="M62 0v432h76v-432h-76zM38 497l-13 21l135 112l37 -56z" />
    <glyph glyph-name="igrave" unicode="&#xec;" horiz-adv-x="200" 
d="M62 0v432h76v-432h-76zM159 497l-159 77l37 56l135 -112z" />
    <glyph glyph-name="icircumflex" unicode="&#xee;" horiz-adv-x="200" 
d="M62 0v432h76v-432h-76zM6 502l-27 26l119 115l119 -115l-27 -26l-92 76z" />
    <glyph glyph-name="idieresis" unicode="&#xef;" horiz-adv-x="200" 
d="M62 0v432h76v-432h-76zM-21 507v76h76v-76h-76zM145 507v76h76v-76h-76z" />
    <glyph glyph-name="ntilde" unicode="&#xf1;" horiz-adv-x="518" 
d="M62 0v432h66l5 -83c32 52 95 95 168 95c115 0 156 -80 156 -187v-257h-76v250c0 97 -38 129 -101 129c-62 0 -142 -54 -142 -124v-255h-76zM315 506c-42 0 -84 49 -117 49c-23 0 -30 -15 -33 -45h-31c0 63 26 94 68 94s84 -49 117 -49c23 0 30 15 33 45h31
c0 -63 -26 -94 -68 -94z" />
    <glyph glyph-name="oacute" unicode="&#xf3;" horiz-adv-x="535" 
d="M268 -16c-140 0 -236 105 -236 232c0 126 96 232 236 232c139 0 235 -106 235 -232c0 -127 -96 -232 -235 -232zM268 45c98 0 159 76 159 171c0 94 -61 171 -159 171c-99 0 -160 -77 -160 -171c0 -95 62 -171 160 -171zM218 497l-13 21l135 112l37 -56z" />
    <glyph glyph-name="ograve" unicode="&#xf2;" horiz-adv-x="535" 
d="M268 -16c-140 0 -236 105 -236 232c0 126 96 232 236 232c139 0 235 -106 235 -232c0 -127 -96 -232 -235 -232zM268 45c98 0 159 76 159 171c0 94 -61 171 -159 171c-99 0 -160 -77 -160 -171c0 -95 62 -171 160 -171zM319 497l-159 77l37 56l135 -112z" />
    <glyph glyph-name="ocircumflex" unicode="&#xf4;" horiz-adv-x="535" 
d="M268 -16c-140 0 -236 105 -236 232c0 126 96 232 236 232c139 0 235 -106 235 -232c0 -127 -96 -232 -235 -232zM268 45c98 0 159 76 159 171c0 94 -61 171 -159 171c-99 0 -160 -77 -160 -171c0 -95 62 -171 160 -171zM176 502l-27 26l119 115l119 -115l-27 -26l-92 76z
" />
    <glyph glyph-name="odieresis" unicode="&#xf6;" horiz-adv-x="535" 
d="M268 -16c-140 0 -236 105 -236 232c0 126 96 232 236 232c139 0 235 -106 235 -232c0 -127 -96 -232 -235 -232zM268 45c98 0 159 76 159 171c0 94 -61 171 -159 171c-99 0 -160 -77 -160 -171c0 -95 62 -171 160 -171zM147 507v76h76v-76h-76zM313 507v76h76v-76h-76z
" />
    <glyph glyph-name="otilde" unicode="&#xf5;" horiz-adv-x="535" 
d="M268 -16c-140 0 -236 105 -236 232c0 126 96 232 236 232c139 0 235 -106 235 -232c0 -127 -96 -232 -235 -232zM268 45c98 0 159 76 159 171c0 94 -61 171 -159 171c-99 0 -160 -77 -160 -171c0 -95 62 -171 160 -171zM324 506c-42 0 -84 49 -117 49
c-23 0 -30 -15 -33 -45h-31c0 63 26 94 68 94s84 -49 117 -49c23 0 30 15 33 45h31c0 -63 -26 -94 -68 -94z" />
    <glyph glyph-name="uacute" unicode="&#xfa;" horiz-adv-x="518" 
d="M217 -12c-115 0 -156 80 -156 187v257h76v-250c0 -97 38 -129 101 -129c62 0 142 54 142 124v255h76v-432h-66l-5 83c-32 -52 -96 -95 -168 -95zM208 497l-13 21l135 112l37 -56z" />
    <glyph glyph-name="ugrave" unicode="&#xf9;" horiz-adv-x="518" 
d="M217 -12c-115 0 -156 80 -156 187v257h76v-250c0 -97 38 -129 101 -129c62 0 142 54 142 124v255h76v-432h-66l-5 83c-32 -52 -96 -95 -168 -95zM299 497l-159 77l37 56l135 -112z" />
    <glyph glyph-name="ucircumflex" unicode="&#xfb;" horiz-adv-x="518" 
d="M217 -12c-115 0 -156 80 -156 187v257h76v-250c0 -97 38 -129 101 -129c62 0 142 54 142 124v255h76v-432h-66l-5 83c-32 -52 -96 -95 -168 -95zM166 502l-27 26l119 115l119 -115l-27 -26l-92 76z" />
    <glyph glyph-name="udieresis" unicode="&#xfc;" horiz-adv-x="518" 
d="M217 -12c-115 0 -156 80 -156 187v257h76v-250c0 -97 38 -129 101 -129c62 0 142 54 142 124v255h76v-432h-66l-5 83c-32 -52 -96 -95 -168 -95zM137 507v76h76v-76h-76zM303 507v76h76v-76h-76z" />
    <glyph glyph-name="dagger" unicode="&#x2020;" horiz-adv-x="430" 
d="M181 343h-153v59h153v197h67v-197h153v-59h-153v-540h-67v540z" />
    <glyph glyph-name="degree" unicode="&#xb0;" horiz-adv-x="372" 
d="M185 311c-82 0 -150 67 -150 150c0 82 68 150 150 150c83 0 150 -68 150 -150c0 -83 -67 -150 -150 -150zM185 361c55 0 100 45 100 100s-45 100 -100 100s-99 -45 -99 -100s44 -100 99 -100z" />
    <glyph glyph-name="cent" unicode="&#xa2;" horiz-adv-x="452" 
d="M239 -83v128c-115 11 -196 98 -196 222s81 211 196 222v128h45v-127c46 -3 85 -13 127 -43v-67c-36 33 -82 47 -127 50v-326c45 3 91 17 127 50v-67c-42 -30 -81 -40 -127 -43v-127h-45zM239 107v320c-74 -14 -122 -78 -122 -160c0 -84 48 -147 122 -160z" />
    <glyph glyph-name="sterling" unicode="&#xa3;" horiz-adv-x="507" 
d="M24 0v67c83 0 95 17 95 117v97h-81v52h81v40c0 175 80 244 197 244c46 0 88 -18 119 -37v-71c-35 25 -76 44 -121 44c-68 0 -114 -31 -114 -180v-40h154v-52h-154v-36c0 -113 -25 -157 -57 -178h316v-67h-435z" />
    <glyph glyph-name="section" unicode="&#xa7;" horiz-adv-x="423" 
d="M199 -191c-71 0 -129 33 -148 48l17 61c35 -25 84 -47 131 -47c68 0 105 30 105 77c0 41 -21 74 -103 95c-112 29 -175 79 -175 160c0 73 40 120 97 143c-53 31 -77 74 -77 127c0 78 63 144 178 144c71 0 129 -33 148 -48l-17 -61c-35 25 -84 47 -131 47
c-68 0 -105 -30 -105 -77c0 -41 21 -74 103 -95c112 -29 175 -79 175 -160c0 -73 -40 -120 -98 -143c54 -31 78 -74 78 -127c0 -78 -63 -144 -178 -144zM232 107c54 8 98 51 98 103c0 55 -42 86 -139 109c-54 -8 -98 -51 -98 -103c0 -55 41 -85 139 -109z" />
    <glyph glyph-name="bullet" unicode="&#x2022;" horiz-adv-x="242" 
d="M121 213c-42 0 -77 34 -77 76c0 43 35 77 77 77c43 0 77 -34 77 -77c0 -42 -34 -76 -77 -76z" />
    <glyph glyph-name="paragraph" unicode="&#xb6;" horiz-adv-x="485" 
d="M175 -191v453c-85 9 -151 81 -151 168c0 93 76 170 170 170h260v-54h-66v-737h-63v737h-87v-737h-63z" />
    <glyph glyph-name="germandbls" unicode="&#xdf;" horiz-adv-x="505" 
d="M323 -10c-43 0 -85 11 -124 27v65c42 -24 92 -32 124 -32c42 0 83 16 83 54c0 78 -189 69 -189 199c0 82 114 99 114 173c0 43 -31 72 -89 72c-65 0 -104 -43 -104 -110v-438h-76v438c0 102 84 169 179 169c91 0 161 -48 161 -131c0 -98 -114 -111 -114 -169
c0 -84 188 -69 188 -195c0 -82 -69 -122 -153 -122z" />
    <glyph glyph-name="registered" unicode="&#xae;" horiz-adv-x="491" 
d="M245 155c-127 0 -231 103 -231 231s104 231 231 231c128 0 232 -103 232 -231s-104 -231 -232 -231zM245 185c111 0 202 90 202 201s-91 201 -202 201s-201 -90 -201 -201s90 -201 201 -201zM147 247v282h111c64 0 93 -40 93 -85c0 -36 -17 -67 -56 -80l83 -117h-63
l-77 112h-35v-112h-56zM203 400h46c32 0 46 18 46 44s-14 44 -46 44h-46v-88z" />
    <glyph glyph-name="copyright" unicode="&#xa9;" horiz-adv-x="675" 
d="M338 -17c-175 0 -317 142 -317 317s142 317 317 317s316 -142 316 -317s-141 -317 -316 -317zM338 15c157 0 285 128 285 285c0 158 -128 285 -285 285c-158 0 -285 -127 -285 -285c0 -157 127 -285 285 -285zM353 97c-108 0 -208 77 -208 203s100 203 208 203
c52 0 102 -16 135 -41v-64c-33 27 -69 47 -129 47c-75 0 -138 -56 -138 -145c0 -88 63 -145 138 -145c60 0 98 21 129 47v-64c-33 -25 -83 -41 -135 -41z" />
    <glyph glyph-name="trademark" unicode="&#x2122;" horiz-adv-x="802" 
d="M386 267v333h77l105 -237l105 237h75v-333h-64v199c0 9 1 32 1 33c-1 -2 -7 -26 -11 -33l-86 -199h-44l-85 199c-4 8 -11 30 -12 33c0 -1 1 -24 1 -33v-199h-62zM132 267v277h-111v56h295v-56h-112v-277h-72z" />
    <glyph glyph-name="acute" unicode="&#xb4;" horiz-adv-x="300" 
d="M80 497l-13 21l135 112l37 -56z" />
    <glyph glyph-name="dieresis" unicode="&#xa8;" horiz-adv-x="300" 
d="M29 507v76h76v-76h-76zM195 507v76h76v-76h-76z" />
    <glyph glyph-name="notequal" unicode="&#x2260;" horiz-adv-x="430" 
d="M101 97l-29 21l58 82h-61v55h99l50 70h-149v55h187l73 103l29 -22l-58 -81h61v-55h-99l-50 -70h149v-55h-187z" />
    <glyph glyph-name="AE" unicode="&#xc6;" horiz-adv-x="791" 
d="M5 0l339 600h403v-67h-283v-183h233v-67h-233v-216h283v-67h-363v168h-206l-95 -168h-78zM214 231h170v308z" />
    <glyph glyph-name="Oslash" unicode="&#xd8;" horiz-adv-x="705" 
d="M209 97l254 427c-32 17 -69 26 -110 26c-138 0 -236 -104 -236 -250c0 -86 35 -159 92 -203zM353 50c137 0 235 105 235 250c0 87 -35 159 -91 203l-254 -428c32 -16 69 -25 110 -25zM173 -43l-35 20l34 57c-85 56 -138 150 -138 266c0 184 135 317 319 317
c54 0 103 -11 146 -32l34 58l35 -20l-34 -58c84 -55 137 -150 137 -265c0 -184 -135 -317 -318 -317c-53 0 -103 11 -146 32z" />
    <glyph glyph-name="infinity" unicode="&#x221e;" horiz-adv-x="685" 
d="M167 158c-83 0 -135 58 -135 130c0 73 52 131 135 131c54 0 130 -56 176 -101c44 45 121 101 176 101c82 0 135 -58 135 -131c0 -72 -53 -130 -135 -130c-55 0 -132 55 -176 100c-46 -45 -122 -100 -176 -100zM164 203c46 0 105 51 142 85c-40 38 -96 85 -142 85
c-48 0 -82 -38 -82 -85c0 -45 34 -85 82 -85zM522 203c48 0 82 40 82 85c0 47 -34 85 -82 85c-46 0 -103 -47 -143 -85c37 -34 97 -85 143 -85z" />
    <glyph glyph-name="plusminus" unicode="&#xb1;" horiz-adv-x="400" 
d="M21 0v49h358v-49h-358zM173 110v152h-152v54h152v152h54v-152h152v-54h-152v-152h-54z" />
    <glyph glyph-name="lessequal" unicode="&#x2264;" horiz-adv-x="400" 
d="M333 100l-297 168l297 167l22 -44l-218 -123l218 -123zM21 0v49h358v-49h-358z" />
    <glyph glyph-name="greaterequal" unicode="&#x2265;" horiz-adv-x="400" 
d="M67 100l-22 45l218 123l-218 123l22 44l297 -167zM21 0v49h358v-49h-358z" />
    <glyph glyph-name="yen" unicode="&#xa5;" horiz-adv-x="548" 
d="M234 0v138h-121v45h121v57l-7 10h-114v45h85l-199 305h87l190 -295l190 295h83l-199 -305h85v-45h-114l-7 -10v-57h121v-45h-121v-138h-80z" />
    <glyph glyph-name="mu" unicode="&#xb5;" horiz-adv-x="518" 
d="M61 -195v627h76v-250c0 -97 38 -129 101 -129c62 0 142 54 142 124v255h76v-432h-66l-5 83c-32 -52 -96 -95 -168 -95c-32 0 -59 6 -80 18v-201h-76z" />
    <glyph glyph-name="partialdiff" unicode="&#x2202;" 
d="M212 -17c-112 0 -194 90 -182 203c12 114 101 197 213 197c56 0 119 -29 140 -61c10 165 -49 232 -150 232c-49 0 -97 -20 -132 -46l7 72c27 20 81 38 133 38c170 0 236 -140 214 -352c-24 -233 -154 -283 -243 -283zM224 46c56 0 134 33 152 202c-20 38 -65 71 -133 71
c-77 0 -126 -52 -135 -133c-9 -83 37 -140 116 -140z" />
    <glyph glyph-name="summation" unicode="&#x2211;" horiz-adv-x="520" 
d="M16 -170v19l238 372l-240 360v19h491v-60h-378l207 -311l-217 -339h403v-60h-504z" />
    <glyph glyph-name="product" unicode="&#x220f;" horiz-adv-x="617" 
d="M88 0v533h-60v67h561v-67h-60v-533h-80v533h-281v-533h-80z" />
    <glyph glyph-name="pi" unicode="&#x3c0;" horiz-adv-x="559" 
d="M88 0v372h-60v60h503v-60h-60v-372h-76v372h-231v-372h-76z" />
    <glyph glyph-name="integral" unicode="&#x222b;" horiz-adv-x="233" 
d="M29 -199c-38 0 -64 18 -74 28v55c13 -12 40 -25 60 -25c40 0 56 18 56 81v538c0 126 48 174 139 174c19 0 42 -5 54 -9v-54c-15 3 -33 6 -46 6c-53 0 -71 -24 -71 -112v-552c0 -74 -35 -130 -118 -130z" />
    <glyph glyph-name="ordfeminine" unicode="&#xaa;" horiz-adv-x="430" 
d="M197 262c-87 0 -159 72 -159 176c0 103 72 176 159 176c44 0 100 -19 128 -62l4 46h60v-320h-60l-4 46c-28 -43 -82 -62 -128 -62zM214 314c49 0 111 37 111 123c0 88 -62 124 -111 124c-54 0 -108 -42 -108 -124c0 -81 54 -123 108 -123z" />
    <glyph glyph-name="ordmasculine" unicode="&#xba;" horiz-adv-x="453" 
d="M227 260c-107 0 -189 81 -189 178s82 178 189 178c106 0 189 -81 189 -178s-83 -178 -189 -178zM227 314c70 0 121 52 121 124s-51 124 -121 124c-69 0 -121 -52 -121 -124s52 -124 121 -124z" />
    <glyph glyph-name="Omega" unicode="&#x3a9;" horiz-adv-x="547" 
d="M59 0v65h106v117c-68 34 -121 113 -121 202c0 116 94 219 230 219c135 0 229 -103 229 -219c0 -88 -52 -167 -121 -202v-117h106v-65h-164v224c68 22 109 91 109 157c0 78 -54 163 -159 163c-106 0 -160 -85 -160 -163c0 -66 40 -134 109 -157v-224h-164z" />
    <glyph glyph-name="ae" unicode="&#xe6;" horiz-adv-x="744" 
d="M389 280h238c9 58 -37 104 -108 104c-61 0 -117 -33 -130 -104zM165 49c42 0 111 35 157 79c-9 28 -15 56 -15 89c-125 -11 -208 -52 -208 -109c0 -50 34 -59 66 -59zM524 -12c-93 0 -149 50 -177 92c-62 -58 -140 -89 -212 -89c-61 0 -109 41 -109 108
c0 100 129 158 281 171v21c0 60 -22 93 -87 93c-46 0 -119 -27 -164 -57v67c36 20 118 50 172 50c65 0 114 -17 137 -68c40 44 95 68 151 68c108 0 184 -70 184 -168c0 -15 -3 -34 -6 -49h-312c-5 -123 67 -177 168 -177c49 0 109 24 142 56v-67c-41 -33 -105 -51 -168 -51z
" />
    <glyph glyph-name="oslash" unicode="&#xf8;" horiz-adv-x="535" 
d="M160 86l184 282c-21 12 -47 19 -76 19c-99 0 -160 -77 -160 -171c0 -52 19 -99 52 -130zM268 45c98 0 159 76 159 171c0 52 -18 98 -51 130l-185 -283c22 -12 48 -18 77 -18zM122 -43l-33 20l34 53c-57 42 -91 110 -91 186c0 126 96 232 236 232c41 0 79 -9 111 -26
l35 53l33 -20l-35 -54c57 -42 91 -110 91 -185c0 -127 -96 -232 -235 -232c-42 0 -79 9 -112 26z" />
    <glyph glyph-name="questiondown" unicode="&#xbf;" horiz-adv-x="424" 
d="M303 432v-88h-88v88h88zM290 272v-126l-46 -22c-110 -53 -138 -95 -138 -151c0 -65 53 -95 123 -95c56 0 134 32 175 76v-76c-38 -35 -113 -63 -181 -63c-101 0 -196 49 -196 155c0 92 71 148 159 190l42 20v92h62z" />
    <glyph glyph-name="exclamdown" unicode="&#xa1;" horiz-adv-x="230" 
d="M71 344v88h88v-88h-88zM92 272h46l25 -440h-95z" />
    <glyph glyph-name="logicalnot" unicode="&#xac;" horiz-adv-x="542" 
d="M391 140v123h-322v54h376v-177h-54z" />
    <glyph glyph-name="radical" unicode="&#x221a;" horiz-adv-x="421" 
d="M143 -22l-122 290l55 26l83 -205l242 652h41l-284 -763h-15z" />
    <glyph glyph-name="florin" unicode="&#x192;" horiz-adv-x="273" 
d="M-1 -204c-38 0 -63 18 -72 28l5 55c12 -12 38 -25 58 -25c40 0 58 18 63 81l30 355h-88l5 52h88l9 101c11 126 63 174 154 174c19 0 42 -5 53 -9l-5 -54c-14 3 -32 6 -45 6c-53 0 -73 -21 -81 -112l-9 -106h117l-5 -52h-117l-31 -364c-6 -74 -46 -130 -129 -130z" />
    <glyph glyph-name="approxequal" unicode="&#x2248;" horiz-adv-x="430" 
d="M71 306v55s33 33 72 33c50 0 102 -33 143 -33c38 0 72 33 72 33v-55s-33 -33 -72 -33c-50 0 -102 33 -143 33c-38 0 -72 -33 -72 -33zM71 181v55s33 33 72 33c50 0 102 -33 143 -33c38 0 72 33 72 33v-55s-33 -33 -72 -33c-50 0 -102 33 -143 33c-38 0 -72 -33 -72 -33z
" />
    <glyph glyph-name="Delta" unicode="&#x394;" horiz-adv-x="549" 
d="M112 53h320l-157 423zM31 0l238 617h21l228 -617h-487z" />
    <glyph glyph-name="guillemotleft" unicode="&#xab;" horiz-adv-x="403" 
d="M353 112l-174 139l174 138l22 -26l-119 -113l119 -113zM241 72l-213 179l213 178l22 -26l-158 -153l158 -152z" />
    <glyph glyph-name="guillemotright" unicode="&#xbb;" horiz-adv-x="403" 
d="M162 72l-22 26l158 152l-158 153l22 26l213 -178zM49 112l-21 25l118 113l-118 113l21 26l175 -138z" />
    <glyph glyph-name="ellipsis" unicode="&#x2026;" horiz-adv-x="690" 
d="M531 0v88h88v-88h-88zM71 0v88h88v-88h-88zM301 0v88h88v-88h-88z" />
    <glyph glyph-name="Agrave" unicode="&#xc0;" horiz-adv-x="578" 
d="M5 0l258 600h52l258 -600h-82l-72 168h-264l-72 -168h-78zM182 233h210l-105 247zM320 664l-159 77l37 56l135 -112z" />
    <glyph glyph-name="Atilde" unicode="&#xc3;" horiz-adv-x="578" 
d="M5 0l258 600h52l258 -600h-82l-72 168h-264l-72 -168h-78zM182 233h210l-105 247zM345 673c-42 0 -84 49 -117 49c-23 0 -30 -15 -33 -45h-31c0 63 26 94 68 94s84 -49 117 -49c23 0 30 15 33 45h31c0 -63 -26 -94 -68 -94z" />
    <glyph glyph-name="Otilde" unicode="&#xd5;" horiz-adv-x="705" 
d="M353 -17c-184 0 -319 133 -319 317s135 317 319 317c183 0 318 -133 318 -317s-135 -317 -318 -317zM353 50c137 0 235 105 235 250c0 146 -98 250 -235 250c-138 0 -236 -104 -236 -250c0 -145 98 -250 236 -250zM409 673c-42 0 -84 49 -117 49c-23 0 -30 -15 -33 -45
h-31c0 63 26 94 68 94s84 -49 117 -49c23 0 30 15 33 45h31c0 -63 -26 -94 -68 -94z" />
    <glyph glyph-name="OE" unicode="&#x152;" horiz-adv-x="871" 
d="M368 0c-233 0 -334 135 -334 300s101 300 334 300h459v-67h-283v-183h233v-67h-233v-216h283v-67h-459zM367 70h97v460h-97c-195 0 -250 -110 -250 -230s55 -230 250 -230z" />
    <glyph glyph-name="oe" unicode="&#x153;" horiz-adv-x="864" 
d="M509 280h238c9 58 -37 104 -108 104c-61 0 -117 -33 -130 -104zM268 47c98 0 159 74 159 169c0 94 -61 169 -159 169c-99 0 -160 -75 -160 -169c0 -95 62 -169 160 -169zM268 -14c-140 0 -236 103 -236 230c0 126 96 230 236 230c85 0 154 -39 195 -98
c39 61 105 96 173 96c108 0 184 -70 184 -168c0 -15 -3 -34 -6 -49h-312c-6 -75 30 -177 168 -177c49 0 109 24 142 56v-67c-41 -33 -105 -51 -168 -51c-96 0 -156 55 -180 97c-41 -60 -111 -99 -196 -99z" />
    <glyph glyph-name="endash" unicode="&#x2013;" horiz-adv-x="404" 
d="M-1 224v52h406v-52h-406z" />
    <glyph glyph-name="emdash" unicode="&#x2014;" horiz-adv-x="646" 
d="M-1 224v52h648v-52h-648z" />
    <glyph glyph-name="quotedblleft" unicode="&#x201c;" horiz-adv-x="390" 
d="M235 393v77c0 68 27 122 80 138l15 -25c-34 -19 -46 -63 -46 -102h39v-88h-88zM68 393v77c0 68 27 122 80 138l15 -25c-34 -19 -46 -63 -46 -102h39v-88h-88z" />
    <glyph glyph-name="quotedblright" unicode="&#x201d;" horiz-adv-x="390" 
d="M243 385l-15 25c34 19 46 63 46 102h-39v88h88v-77c0 -68 -27 -122 -80 -138zM76 385l-15 25c34 19 46 63 46 102h-39v88h88v-77c0 -68 -27 -122 -80 -138z" />
    <glyph glyph-name="quoteleft" unicode="&#x2018;" horiz-adv-x="223" 
d="M68 393v77c0 68 27 122 80 138l15 -25c-34 -19 -46 -63 -46 -102h39v-88h-88z" />
    <glyph glyph-name="quoteright" unicode="&#x2019;" horiz-adv-x="223" 
d="M76 385l-15 25c34 19 46 63 46 102h-39v88h88v-77c0 -68 -27 -122 -80 -138z" />
    <glyph glyph-name="divide" unicode="&#xf7;" horiz-adv-x="430" 
d="M36 263v54h358v-54h-358zM175 385v80h80v-80h-80zM175 115v80h80v-80h-80z" />
    <glyph glyph-name="lozenge" unicode="&#x25ca;" horiz-adv-x="476" 
d="M236 -46l-202 341l202 331l202 -331zM236 45l143 251l-143 240l-144 -240z" />
    <glyph glyph-name="ydieresis" unicode="&#xff;" horiz-adv-x="435" 
d="M83 -195l98 219l-179 408h78l140 -324l139 324h74l-275 -627h-75zM98 507v76h76v-76h-76zM264 507v76h76v-76h-76z" />
    <glyph glyph-name="Ydieresis" unicode="&#x178;" horiz-adv-x="548" 
d="M234 0v240l-235 360h87l190 -295l190 295h83l-235 -360v-240h-80zM154 674v76h76v-76h-76zM320 674v76h76v-76h-76z" />
    <glyph glyph-name="fraction" unicode="&#x2044;" horiz-adv-x="141" 
d="M-103 -18l-36 18l383 618l36 -18z" />
    <glyph glyph-name="Euro" unicode="&#x20ac;" horiz-adv-x="504" 
d="M323 -14c-126 0 -211 85 -234 232h-61v45h56c-1 13 -1 26 -1 39c0 12 0 24 1 35h-56v45h61c21 149 107 235 234 235c51 0 101 -16 142 -42v-71c-40 32 -85 49 -139 49c-90 0 -143 -64 -159 -171h180v-45h-185c-1 -11 -1 -23 -1 -35c0 -13 0 -26 1 -39h185v-45h-180
c18 -105 70 -168 159 -168c53 0 98 19 139 49v-71c-35 -25 -92 -42 -142 -42z" />
    <glyph glyph-name="guilsinglleft" unicode="&#x2039;" horiz-adv-x="291" 
d="M241 72l-213 179l213 178l22 -26l-153 -153l153 -152z" />
    <glyph glyph-name="guilsinglright" unicode="&#x203a;" horiz-adv-x="291" 
d="M49 72l-21 26l153 152l-153 153l21 26l214 -178z" />
    <glyph glyph-name="daggerdbl" unicode="&#x2021;" horiz-adv-x="430" 
d="M181 59v284h-153v59h153v197h67v-197h153v-59h-153v-284h153v-59h-153v-197h-67v197h-153v59h153z" />
    <glyph glyph-name="periodcentered" unicode="&#xb7;" horiz-adv-x="270" 
d="M89 222v92h92v-92h-92z" />
    <glyph glyph-name="quotesinglbase" unicode="&#x201a;" horiz-adv-x="223" 
d="M76 -127l-15 25c34 19 46 63 46 102h-39v88h88v-77c0 -68 -27 -122 -80 -138z" />
    <glyph glyph-name="quotedblbase" unicode="&#x201e;" horiz-adv-x="390" 
d="M243 -127l-15 25c34 19 46 63 46 102h-39v88h88v-77c0 -68 -27 -122 -80 -138zM76 -127l-15 25c34 19 46 63 46 102h-39v88h88v-77c0 -68 -27 -122 -80 -138z" />
    <glyph glyph-name="perthousand" unicode="&#x2030;" horiz-adv-x="989" 
d="M163 -18l-36 18l383 618l36 -18zM178 315c-74 0 -131 63 -131 150c0 86 57 149 131 149c75 0 132 -63 132 -149c0 -87 -57 -150 -132 -150zM178 368c36 0 68 29 68 97c0 67 -32 96 -68 96c-37 0 -67 -29 -67 -96c0 -68 30 -97 67 -97zM809 -12c-74 0 -131 63 -131 150
c0 86 57 149 131 149c75 0 132 -63 132 -149c0 -87 -57 -150 -132 -150zM809 41c36 0 68 29 68 97c0 67 -32 96 -68 96c-37 0 -67 -29 -67 -96c0 -68 30 -97 67 -97zM493 -12c-74 0 -131 63 -131 150c0 86 57 149 131 149c75 0 132 -63 132 -149c0 -87 -57 -150 -132 -150z
M493 41c36 0 68 29 68 97c0 67 -32 96 -68 96c-37 0 -67 -29 -67 -96c0 -68 30 -97 67 -97z" />
    <glyph glyph-name="Acircumflex" unicode="&#xc2;" horiz-adv-x="578" 
d="M5 0l258 600h52l258 -600h-82l-72 168h-264l-72 -168h-78zM182 233h210l-105 247zM197 669l-27 26l119 115l119 -115l-27 -26l-92 76z" />
    <glyph glyph-name="Ecircumflex" unicode="&#xca;" horiz-adv-x="470" 
d="M63 0v600h363v-67h-283v-183h233v-67h-233v-216h283v-67h-363zM155 669l-27 26l119 115l119 -115l-27 -26l-92 76z" />
    <glyph glyph-name="Aacute" unicode="&#xc1;" horiz-adv-x="578" 
d="M5 0l258 600h52l258 -600h-82l-72 168h-264l-72 -168h-78zM182 233h210l-105 247zM259 664l-13 21l135 112l37 -56z" />
    <glyph glyph-name="Edieresis" unicode="&#xcb;" horiz-adv-x="470" 
d="M63 0v600h363v-67h-283v-183h233v-67h-233v-216h283v-67h-363zM136 674v76h76v-76h-76zM302 674v76h76v-76h-76z" />
    <glyph glyph-name="Egrave" unicode="&#xc8;" horiz-adv-x="470" 
d="M63 0v600h363v-67h-283v-183h233v-67h-233v-216h283v-67h-363zM298 664l-159 77l37 56l135 -112z" />
    <glyph glyph-name="Iacute" unicode="&#xcd;" horiz-adv-x="206" 
d="M52 664l-13 21l135 112l37 -56zM63 0v600h80v-600h-80z" />
    <glyph glyph-name="Icircumflex" unicode="&#xce;" horiz-adv-x="206" 
d="M10 669l-27 26l119 115l119 -115l-27 -26l-92 76zM63 0v600h80v-600h-80z" />
    <glyph glyph-name="Idieresis" unicode="&#xcf;" horiz-adv-x="206" 
d="M-19 674v76h76v-76h-76zM147 674v76h76v-76h-76zM63 0v600h80v-600h-80z" />
    <glyph glyph-name="Igrave" unicode="&#xcc;" horiz-adv-x="206" 
d="M153 664l-159 77l37 56l135 -112zM63 0v600h80v-600h-80z" />
    <glyph glyph-name="Oacute" unicode="&#xd3;" horiz-adv-x="705" 
d="M353 -17c-184 0 -319 133 -319 317s135 317 319 317c183 0 318 -133 318 -317s-135 -317 -318 -317zM353 50c137 0 235 105 235 250c0 146 -98 250 -235 250c-138 0 -236 -104 -236 -250c0 -145 98 -250 236 -250zM303 664l-13 21l135 112l37 -56z" />
    <glyph glyph-name="Ocircumflex" unicode="&#xd4;" horiz-adv-x="705" 
d="M353 -17c-184 0 -319 133 -319 317s135 317 319 317c183 0 318 -133 318 -317s-135 -317 -318 -317zM353 50c137 0 235 105 235 250c0 146 -98 250 -235 250c-138 0 -236 -104 -236 -250c0 -145 98 -250 236 -250zM261 669l-27 26l119 115l119 -115l-27 -26l-92 76z" />
    <glyph glyph-name="Ograve" unicode="&#xd2;" horiz-adv-x="705" 
d="M353 -17c-184 0 -319 133 -319 317s135 317 319 317c183 0 318 -133 318 -317s-135 -317 -318 -317zM353 50c137 0 235 105 235 250c0 146 -98 250 -235 250c-138 0 -236 -104 -236 -250c0 -145 98 -250 236 -250zM404 664l-159 77l37 56l135 -112z" />
    <glyph glyph-name="Uacute" unicode="&#xda;" horiz-adv-x="646" 
d="M323 -17c-155 0 -260 91 -260 294v323h82v-324c0 -155 70 -223 180 -223s180 68 180 223v324h78v-323c0 -203 -105 -294 -260 -294zM293 664l-13 21l135 112l37 -56z" />
    <glyph glyph-name="Ucircumflex" unicode="&#xdb;" horiz-adv-x="646" 
d="M323 -17c-155 0 -260 91 -260 294v323h82v-324c0 -155 70 -223 180 -223s180 68 180 223v324h78v-323c0 -203 -105 -294 -260 -294zM241 669l-27 26l119 115l119 -115l-27 -26l-92 76z" />
    <glyph glyph-name="Ugrave" unicode="&#xd9;" horiz-adv-x="646" 
d="M323 -17c-155 0 -260 91 -260 294v323h82v-324c0 -155 70 -223 180 -223s180 68 180 223v324h78v-323c0 -203 -105 -294 -260 -294zM364 664l-159 77l37 56l135 -112z" />
    <glyph glyph-name="dotlessi" unicode="&#x131;" horiz-adv-x="200" 
d="M62 0v432h76v-432h-76z" />
    <glyph glyph-name="circumflex" unicode="&#x2c6;" horiz-adv-x="300" 
d="M58 502l-27 26l119 115l119 -115l-27 -26l-92 76z" />
    <glyph glyph-name="tilde" unicode="&#x2dc;" horiz-adv-x="300" 
d="M206 506c-42 0 -84 49 -117 49c-23 0 -30 -15 -33 -45h-31c0 63 26 94 68 94s84 -49 117 -49c23 0 30 15 33 45h31c0 -63 -26 -94 -68 -94z" />
    <glyph glyph-name="macron" unicode="&#xaf;" horiz-adv-x="300" 
d="M45 502v45h210v-45h-210z" />
    <glyph glyph-name="breve" unicode="&#x2d8;" horiz-adv-x="300" 
d="M150 502c-54 0 -96 39 -96 99h18c11 -30 41 -53 78 -53c36 0 68 23 78 53h18c0 -60 -42 -99 -96 -99z" />
    <glyph glyph-name="dotaccent" unicode="&#x2d9;" horiz-adv-x="300" 
d="M113 507v76h76v-76h-76z" />
    <glyph glyph-name="ring" unicode="&#x2da;" horiz-adv-x="300" 
d="M150 502c-51 0 -91 39 -91 90s40 91 91 91s91 -40 91 -91s-40 -90 -91 -90zM150 541c29 0 52 22 52 51s-23 52 -52 52s-52 -23 -52 -52s23 -51 52 -51z" />
    <glyph glyph-name="cedilla" unicode="&#xb8;" horiz-adv-x="300" 
d="M64 -229v37c67 -1 117 17 117 63c0 40 -56 51 -103 36v23l105 106l39 -10l-73 -74c34 -2 87 -24 87 -76c0 -79 -84 -110 -172 -105z" />
    <glyph glyph-name="hungarumlaut" unicode="&#x2dd;" horiz-adv-x="300" 
d="M14 497l-13 21l135 112l37 -56zM131 497l-13 21l135 112l37 -56z" />
    <glyph glyph-name="ogonek" unicode="&#x2db;" horiz-adv-x="300" 
d="M125 -144c-44 0 -77 34 -77 77c0 53 60 97 113 81l9 -1l-6 -15h-7c-28 0 -58 -21 -58 -46s16 -49 46 -49c19 0 37 5 46 25l7 16l9 -24c-5 -39 -41 -64 -82 -64z" />
    <glyph glyph-name="caron" unicode="&#x2c7;" horiz-adv-x="300" 
d="M150 501l-119 115l27 26l92 -76l92 76l27 -26z" />
    <glyph glyph-name="Asmall" unicode="&#xf761;" horiz-adv-x="485" 
d="M473 0h-77l-54 127h-203l-54 -127h-74l204 476h54zM319 185l-78 187l-79 -187h157z" />
    <glyph glyph-name="Bsmall" unicode="&#xf762;" horiz-adv-x="420" 
d="M390 140c0 -77 -46 -140 -157 -140h-176v476h168c99 0 140 -56 140 -125c0 -36 -23 -73 -50 -93c46 -20 75 -68 75 -118zM316 141c0 43 -22 82 -89 82h-94v-165h94c67 0 89 40 89 83zM293 349c0 37 -18 69 -74 69h-86v-137h86c56 0 74 33 74 68z" />
    <glyph glyph-name="Csmall" unicode="&#xf763;" horiz-adv-x="492" 
d="M454 39c-40 -30 -104 -49 -166 -49c-137 0 -254 94 -254 248s117 248 254 248c62 0 126 -19 166 -49v-75c-39 35 -91 62 -162 62c-103 0 -180 -72 -180 -186c0 -113 77 -186 180 -186c71 0 123 27 162 62v-75z" />
    <glyph glyph-name="Dsmall" unicode="&#xf764;" horiz-adv-x="514" 
d="M479 238c0 -131 -80 -238 -266 -238h-156v476h156c186 0 266 -107 266 -238zM401 238c0 95 -45 174 -190 174h-78v-348h78c145 0 190 79 190 174z" />
    <glyph glyph-name="Esmall" unicode="&#xf765;" horiz-adv-x="397" 
d="M354 0h-297v476h297v-61h-221v-133h181v-62h-181v-159h221v-61z" />
    <glyph glyph-name="Fsmall" unicode="&#xf766;" horiz-adv-x="366" 
d="M352 415h-219v-134h179v-61h-179v-220h-76v476h295v-61z" />
    <glyph glyph-name="Gsmall" unicode="&#xf767;" horiz-adv-x="534" 
d="M476 35c-26 -11 -98 -48 -189 -48c-137 0 -253 97 -253 251s118 248 256 248c61 0 126 -19 166 -49v-75c-39 35 -90 62 -163 62c-105 0 -181 -72 -181 -188c0 -113 76 -189 179 -189c43 0 83 9 111 25v102h-93v60h167v-199z" />
    <glyph glyph-name="Hsmall" unicode="&#xf768;" horiz-adv-x="515" 
d="M457 0h-76v219h-248v-219h-76v476h76v-193h248v193h76v-476z" />
    <glyph glyph-name="Ismall" unicode="&#xf769;" horiz-adv-x="191" 
d="M133 0h-76v476h76v-476z" />
    <glyph glyph-name="Jsmall" unicode="&#xf76a;" horiz-adv-x="191" 
d="M133 -42c0 -66 -32 -115 -105 -115c-34 0 -57 15 -67 24v52c10 -10 34 -21 50 -21c33 0 46 15 46 68v510h76v-518z" />
    <glyph glyph-name="Ksmall" unicode="&#xf76b;" horiz-adv-x="458" 
d="M461 0h-98l-230 231v-231h-76v476h76v-222l211 222h85l-218 -227z" />
    <glyph glyph-name="Lsmall" unicode="&#xf76c;" horiz-adv-x="368" 
d="M354 0h-297v476h76v-415h221v-61z" />
    <glyph glyph-name="Msmall" unicode="&#xf76d;" horiz-adv-x="615" 
d="M557 0h-71v312c0 12 1 41 1 42c-1 -1 -12 -31 -17 -42l-140 -312h-49l-140 312c-6 11 -15 37 -17 42c0 -3 2 -31 2 -42v-312h-69v476h78l174 -377l173 377h75v-476z" />
    <glyph glyph-name="Nsmall" unicode="&#xf76e;" horiz-adv-x="503" 
d="M445 0h-49l-270 339v-339h-69v476h48l271 -339v339h69v-476z" />
    <glyph glyph-name="Osmall" unicode="&#xf76f;" horiz-adv-x="578" 
d="M544 238c0 -146 -109 -251 -254 -251c-146 0 -256 105 -256 251s110 251 256 251c145 0 254 -105 254 -251zM466 238c0 111 -73 189 -176 189c-104 0 -178 -78 -178 -189c0 -110 74 -189 178 -189c103 0 176 79 176 189z" />
    <glyph glyph-name="Psmall" unicode="&#xf770;" horiz-adv-x="398" 
d="M383 329c0 -79 -48 -146 -160 -146h-90v-183h-76v476h166c112 0 160 -68 160 -147zM307 329c0 44 -22 88 -90 88h-84v-175h84c68 0 90 43 90 87z" />
    <glyph glyph-name="Qsmall" unicode="&#xf771;" horiz-adv-x="578" 
d="M544 238c0 -120 -74 -214 -182 -241l23 -40c26 -47 51 -60 86 -60c9 0 18 1 27 4v-52c-15 -4 -31 -6 -47 -6c-55 0 -101 25 -136 91l-29 53c-144 1 -252 106 -252 251c0 146 110 251 256 251c145 0 254 -105 254 -251zM466 238c0 111 -73 189 -176 189
c-104 0 -178 -78 -178 -189c0 -110 74 -189 178 -189c103 0 176 79 176 189z" />
    <glyph glyph-name="Qsmall.alt" horiz-adv-x="578" 
d="M556 -104c-20 -26 -52 -53 -111 -53c-54 0 -100 27 -133 88l-31 56c-142 4 -247 108 -247 251c0 146 110 251 256 251c145 0 254 -105 254 -251c0 -122 -76 -216 -186 -243l23 -40c26 -45 47 -58 81 -58c26 0 49 11 67 33zM466 238c0 111 -73 189 -176 189
c-104 0 -178 -78 -178 -189c0 -110 74 -189 178 -189c103 0 176 79 176 189z" />
    <glyph glyph-name="Qsmall.alt2" horiz-adv-x="578" 
d="M544 238c0 -100 -51 -181 -129 -222l90 -122h-89l-70 98c-18 -4 -37 -5 -56 -5c-146 0 -256 105 -256 251s110 251 256 251c145 0 254 -105 254 -251zM466 238c0 111 -73 189 -176 189c-104 0 -178 -78 -178 -189c0 -110 74 -189 178 -189c103 0 176 79 176 189z" />
    <glyph glyph-name="Rsmall" unicode="&#xf772;" horiz-adv-x="440" 
d="M430 0h-87l-134 194h-76v-194h-76v476h169c110 0 158 -65 158 -142c0 -62 -32 -114 -98 -132zM308 334c0 44 -21 83 -88 83h-87v-164h87c67 0 88 39 88 81z" />
    <glyph glyph-name="Ssmall" unicode="&#xf773;" horiz-adv-x="392" 
d="M359 133c0 -97 -80 -143 -165 -143c-79 0 -134 31 -163 59l18 65c29 -31 78 -65 145 -65c52 0 94 29 94 77c0 45 -23 69 -108 91c-93 25 -135 75 -135 142c0 71 57 127 157 127c56 0 106 -22 134 -44l-16 -57c-33 23 -78 42 -118 42c-55 0 -87 -25 -87 -66
c0 -31 19 -57 91 -76c106 -27 153 -72 153 -152z" />
    <glyph glyph-name="Tsmall" unicode="&#xf774;" horiz-adv-x="435" 
d="M421 415h-166v-415h-76v415h-166v61h408v-61z" />
    <glyph glyph-name="Usmall" unicode="&#xf775;" horiz-adv-x="537" 
d="M479 220c0 -161 -87 -233 -211 -233s-211 72 -211 233v256h78v-255c0 -116 52 -168 135 -168c84 0 135 52 135 168v255h74v-256z" />
    <glyph glyph-name="Vsmall" unicode="&#xf776;" horiz-adv-x="484" 
d="M473 476l-204 -476h-54l-204 476h79l154 -365l154 365h75z" />
    <glyph glyph-name="Wsmall" unicode="&#xf777;" horiz-adv-x="682" 
d="M671 476l-164 -476h-52l-105 310c-3 8 -8 27 -9 30l-9 -30l-105 -310h-52l-164 476h77l107 -331c3 -9 7 -33 8 -36c0 3 7 26 10 36l104 331h51l105 -331l9 -36c0 2 5 26 8 36l107 331h74z" />
    <glyph glyph-name="Xsmall" unicode="&#xf778;" horiz-adv-x="457" 
d="M454 0h-89l-137 192l-140 -192h-84l179 244l-170 232h88l129 -179l129 179h85l-169 -232z" />
    <glyph glyph-name="Ysmall" unicode="&#xf779;" horiz-adv-x="462" 
d="M456 476l-187 -286v-190h-76v190l-186 286h82l144 -224l143 224h80z" />
    <glyph glyph-name="Zsmall" unicode="&#xf77a;" horiz-adv-x="405" 
d="M371 476v-41l-243 -374h243v-61h-337v40l242 375h-241v61h336z" />
    <glyph glyph-name="Oslashsmall" unicode="&#xf7f8;" horiz-adv-x="578" 
d="M410 381l-209 -309c26 -15 56 -23 89 -23c103 0 176 79 176 189c0 59 -21 109 -56 143zM170 94l209 310c-26 15 -56 23 -89 23c-104 0 -178 -78 -178 -189c0 -59 22 -110 58 -144zM131 37c-60 45 -97 116 -97 201c0 146 110 251 256 251c46 0 89 -11 126 -30l37 55
l33 -20l-38 -56c60 -44 96 -116 96 -200c0 -146 -109 -251 -254 -251c-46 0 -89 11 -126 30l-37 -55l-33 20z" />
    <glyph glyph-name="AEsmall" unicode="&#xf7e6;" horiz-adv-x="657" 
d="M614 0h-296v126h-162l-71 -126h-74l270 476h333v-61h-220v-133h181v-62h-181v-159h220v-61zM318 183v237l-130 -237h130z" />
    <glyph glyph-name="OEsmall" unicode="&#xf6fa;" horiz-adv-x="715" 
d="M672 0h-370c-187 0 -267 107 -267 238s80 238 267 238h370v-61h-220v-133h180v-62h-180v-159h220v-61zM376 64v348h-73c-146 0 -190 -79 -190 -174s44 -174 190 -174h73z" />
    <glyph glyph-name="Ethsmall" unicode="&#xf7f0;" horiz-adv-x="514" 
d="M479 238c0 -131 -80 -238 -266 -238h-156v213h-45v52h45v211h156c186 0 266 -107 266 -238zM401 238c0 95 -45 174 -190 174h-78v-147h108v-52h-108v-149h78c145 0 190 79 190 174z" />
    <glyph glyph-name="Aacutesmall" unicode="&#xf7e1;" horiz-adv-x="485" 
d="M473 0h-77l-54 127h-203l-54 -127h-74l204 476h54zM319 185l-78 187l-79 -187h157zM182 549l-13 21l135 112l37 -56z" />
    <glyph glyph-name="Acircumflexsmall" unicode="&#xf7e2;" horiz-adv-x="485" 
d="M473 0h-77l-54 127h-203l-54 -127h-74l204 476h54zM319 185l-78 187l-79 -187h157zM150 554l-27 26l119 115l119 -115l-27 -26l-92 76z" />
    <glyph glyph-name="Adieresissmall" unicode="&#xf7e4;" horiz-adv-x="485" 
d="M473 0h-77l-54 127h-203l-54 -127h-74l204 476h54zM319 185l-78 187l-79 -187h157zM121 559v76h76v-76h-76zM287 559v76h76v-76h-76z" />
    <glyph glyph-name="Agravesmall" unicode="&#xf7e0;" horiz-adv-x="485" 
d="M473 0h-77l-54 127h-203l-54 -127h-74l204 476h54zM319 185l-78 187l-79 -187h157zM303 549l-159 77l37 56l135 -112z" />
    <glyph glyph-name="Aringsmall" unicode="&#xf7e5;" horiz-adv-x="485" 
d="M473 0h-77l-54 127h-203l-54 -127h-74l204 476h54zM319 185l-78 187l-79 -187h157zM242 554c-51 0 -91 39 -91 90s40 91 91 91s91 -40 91 -91s-40 -90 -91 -90zM242 593c29 0 52 22 52 51s-23 52 -52 52s-52 -23 -52 -52s23 -51 52 -51z" />
    <glyph glyph-name="Atildesmall" unicode="&#xf7e3;" horiz-adv-x="485" 
d="M473 0h-77l-54 127h-203l-54 -127h-74l204 476h54zM319 185l-78 187l-79 -187h157zM298 558c-42 0 -84 49 -117 49c-23 0 -30 -15 -33 -45h-31c0 63 26 94 68 94s84 -49 117 -49c23 0 30 15 33 45h31c0 -63 -26 -94 -68 -94z" />
    <glyph glyph-name="Ccedillasmall" unicode="&#xf7e7;" horiz-adv-x="492" 
d="M257 -8c-123 13 -223 104 -223 246c0 154 117 248 254 248c62 0 126 -19 166 -49v-75c-39 35 -91 62 -162 62c-103 0 -180 -72 -180 -186c0 -113 77 -186 180 -186c71 0 123 27 162 62v-75c-36 -27 -93 -45 -149 -48l-38 -39c34 -2 87 -24 87 -76
c0 -79 -84 -110 -172 -105v37c67 -1 117 17 117 63c0 40 -56 51 -103 36v23z" />
    <glyph glyph-name="Eacutesmall" unicode="&#xf7e9;" horiz-adv-x="397" 
d="M354 0h-297v476h297v-61h-221v-133h181v-62h-181v-159h221v-61zM148 549l-13 21l135 112l37 -56z" />
    <glyph glyph-name="Ecircumflexsmall" unicode="&#xf7ea;" horiz-adv-x="397" 
d="M354 0h-297v476h297v-61h-221v-133h181v-62h-181v-159h221v-61zM116 554l-27 26l119 115l119 -115l-27 -26l-92 76z" />
    <glyph glyph-name="Edieresissmall" unicode="&#xf7eb;" horiz-adv-x="397" 
d="M354 0h-297v476h297v-61h-221v-133h181v-62h-181v-159h221v-61zM87 559v76h76v-76h-76zM253 559v76h76v-76h-76z" />
    <glyph glyph-name="Egravesmall" unicode="&#xf7e8;" horiz-adv-x="397" 
d="M354 0h-297v476h297v-61h-221v-133h181v-62h-181v-159h221v-61zM269 549l-159 77l37 56l135 -112z" />
    <glyph glyph-name="Iacutesmall" unicode="&#xf7ed;" horiz-adv-x="191" 
d="M133 0h-76v476h76v-476zM35 549l-13 21l135 112l37 -56z" />
    <glyph glyph-name="Icircumflexsmall" unicode="&#xf7ee;" horiz-adv-x="191" 
d="M133 0h-76v476h76v-476zM3 554l-27 26l119 115l119 -115l-27 -26l-92 76z" />
    <glyph glyph-name="Idieresissmall" unicode="&#xf7ef;" horiz-adv-x="191" 
d="M133 0h-76v476h76v-476zM-24 559v76h76v-76h-76zM142 559v76h76v-76h-76z" />
    <glyph glyph-name="Igravesmall" unicode="&#xf7ec;" horiz-adv-x="191" 
d="M133 0h-76v476h76v-476zM156 549l-159 77l37 56l135 -112z" />
    <glyph glyph-name="Lslashsmall" unicode="&#xf6f9;" horiz-adv-x="368" 
d="M354 0h-297v191l-35 -25l-21 38l56 40v232h76v-179l54 38l22 -39l-76 -52v-183h221v-61z" />
    <glyph glyph-name="Ntildesmall" unicode="&#xf7f1;" horiz-adv-x="503" 
d="M445 0h-49l-270 339v-339h-69v476h48l271 -339v339h69v-476zM306 558c-42 0 -84 49 -117 49c-23 0 -30 -15 -33 -45h-31c0 63 26 94 68 94s84 -49 117 -49c23 0 30 15 33 45h31c0 -63 -26 -94 -68 -94z" />
    <glyph glyph-name="Oacutesmall" unicode="&#xf7f3;" horiz-adv-x="578" 
d="M544 238c0 -146 -109 -251 -254 -251c-146 0 -256 105 -256 251s110 251 256 251c145 0 254 -105 254 -251zM466 238c0 111 -73 189 -176 189c-104 0 -178 -78 -178 -189c0 -110 74 -189 178 -189c103 0 176 79 176 189zM240 550l-13 21l135 112l37 -56z" />
    <glyph glyph-name="Ocircumflexsmall" unicode="&#xf7f4;" horiz-adv-x="578" 
d="M544 238c0 -146 -109 -251 -254 -251c-146 0 -256 105 -256 251s110 251 256 251c145 0 254 -105 254 -251zM466 238c0 111 -73 189 -176 189c-104 0 -178 -78 -178 -189c0 -110 74 -189 178 -189c103 0 176 79 176 189zM198 554l-27 26l119 115l119 -115l-27 -26l-92 76
z" />
    <glyph glyph-name="Odieresissmall" unicode="&#xf7f6;" horiz-adv-x="578" 
d="M544 238c0 -146 -109 -251 -254 -251c-146 0 -256 105 -256 251s110 251 256 251c145 0 254 -105 254 -251zM466 238c0 111 -73 189 -176 189c-104 0 -178 -78 -178 -189c0 -110 74 -189 178 -189c103 0 176 79 176 189zM169 559v76h76v-76h-76zM335 559v76h76v-76h-76z
" />
    <glyph glyph-name="Ogravesmall" unicode="&#xf7f2;" horiz-adv-x="578" 
d="M544 238c0 -146 -109 -251 -254 -251c-146 0 -256 105 -256 251s110 251 256 251c145 0 254 -105 254 -251zM466 238c0 111 -73 189 -176 189c-104 0 -178 -78 -178 -189c0 -110 74 -189 178 -189c103 0 176 79 176 189zM341 549l-159 77l37 56l135 -112z" />
    <glyph glyph-name="Otildesmall" unicode="&#xf7f5;" horiz-adv-x="578" 
d="M544 238c0 -146 -109 -251 -254 -251c-146 0 -256 105 -256 251s110 251 256 251c145 0 254 -105 254 -251zM466 238c0 111 -73 189 -176 189c-104 0 -178 -78 -178 -189c0 -110 74 -189 178 -189c103 0 176 79 176 189zM346 558c-42 0 -84 49 -117 49
c-23 0 -30 -15 -33 -45h-31c0 63 26 94 68 94s84 -49 117 -49c23 0 30 15 33 45h31c0 -63 -26 -94 -68 -94z" />
    <glyph glyph-name="Scaronsmall" unicode="&#xf6fd;" horiz-adv-x="392" 
d="M359 133c0 -97 -80 -143 -165 -143c-79 0 -134 31 -163 59l18 65c29 -31 78 -65 145 -65c52 0 94 29 94 77c0 45 -23 69 -108 91c-93 25 -135 75 -135 142c0 71 57 127 157 127c56 0 106 -22 134 -44l-16 -57c-33 23 -78 42 -118 42c-55 0 -87 -25 -87 -66
c0 -31 19 -57 91 -76c106 -27 153 -72 153 -152zM197 553l-119 115l27 26l92 -76l92 76l27 -26z" />
    <glyph glyph-name="Thornsmall" unicode="&#xf7fe;" horiz-adv-x="398" 
d="M383 245c0 -79 -48 -146 -160 -146h-90v-99h-76v476h76v-84h90c112 0 160 -68 160 -147zM307 245c0 44 -22 88 -90 88h-84v-175h84c68 0 90 43 90 87z" />
    <glyph glyph-name="Uacutesmall" unicode="&#xf7fa;" horiz-adv-x="537" 
d="M479 220c0 -161 -87 -233 -211 -233s-211 72 -211 233v256h78v-255c0 -116 52 -168 135 -168c84 0 135 52 135 168v255h74v-256zM220 549l-13 21l135 112l37 -56z" />
    <glyph glyph-name="Ucircumflexsmall" unicode="&#xf7fb;" horiz-adv-x="537" 
d="M479 220c0 -161 -87 -233 -211 -233s-211 72 -211 233v256h78v-255c0 -116 52 -168 135 -168c84 0 135 52 135 168v255h74v-256zM178 554l-27 26l119 115l119 -115l-27 -26l-92 76z" />
    <glyph glyph-name="Udieresissmall" unicode="&#xf7fc;" horiz-adv-x="537" 
d="M479 220c0 -161 -87 -233 -211 -233s-211 72 -211 233v256h78v-255c0 -116 52 -168 135 -168c84 0 135 52 135 168v255h74v-256zM149 559v76h76v-76h-76zM315 559v76h76v-76h-76z" />
    <glyph glyph-name="Ugravesmall" unicode="&#xf7f9;" horiz-adv-x="537" 
d="M479 220c0 -161 -87 -233 -211 -233s-211 72 -211 233v256h78v-255c0 -116 52 -168 135 -168c84 0 135 52 135 168v255h74v-256zM311 549l-159 77l37 56l135 -112z" />
    <glyph glyph-name="Yacutesmall" unicode="&#xf7fd;" horiz-adv-x="462" 
d="M456 476l-187 -286v-190h-76v190l-186 286h82l144 -224l143 224h80zM192 549l-13 21l135 112l37 -56z" />
    <glyph glyph-name="Ydieresissmall" unicode="&#xf7ff;" horiz-adv-x="462" 
d="M456 476l-187 -286v-190h-76v190l-186 286h82l144 -224l143 224h80zM110 559v76h76v-76h-76zM276 559v76h76v-76h-76z" />
    <glyph glyph-name="Zcaronsmall" unicode="&#xf6ff;" horiz-adv-x="405" 
d="M371 476v-41l-243 -374h243v-61h-337v40l242 375h-241v61h336zM206 553l-119 115l27 26l92 -76l92 76l27 -26z" />
    <glyph glyph-name="dotlessi.small" horiz-adv-x="191" 
d="M133 0h-76v476h76v-476z" />
    <glyph glyph-name="germandbls.small" horiz-adv-x="784" 
d="M359 133c0 -97 -80 -143 -165 -143c-79 0 -134 31 -163 59l18 65c29 -31 78 -65 145 -65c52 0 94 29 94 77c0 45 -23 69 -108 91c-93 25 -135 75 -135 142c0 71 57 127 157 127c56 0 106 -22 134 -44l-16 -57c-33 23 -78 42 -118 42c-55 0 -87 -25 -87 -66
c0 -31 19 -57 91 -76c106 -27 153 -72 153 -152zM751 133c0 -97 -80 -143 -165 -143c-79 0 -134 31 -163 59l18 65c29 -31 78 -65 145 -65c52 0 94 29 94 77c0 45 -23 69 -108 91c-93 25 -135 75 -135 142c0 71 57 127 157 127c56 0 106 -22 134 -44l-16 -57
c-33 23 -78 42 -118 42c-55 0 -87 -25 -87 -66c0 -31 19 -57 91 -76c106 -27 153 -72 153 -152z" />
    <glyph glyph-name="currency" unicode="&#xa4;" horiz-adv-x="504" 
d="M323 -14c-126 0 -211 85 -234 232h-61v45h56c-1 13 -1 26 -1 39c0 12 0 24 1 35h-56v45h61c21 149 107 235 234 235c51 0 101 -16 142 -42v-71c-40 32 -85 49 -139 49c-90 0 -143 -64 -159 -171h180v-45h-185c-1 -11 -1 -23 -1 -35c0 -13 0 -26 1 -39h185v-45h-180
c18 -105 70 -168 159 -168c53 0 98 19 139 49v-71c-35 -25 -92 -42 -142 -42z" />
    <glyph glyph-name="zero.oprp" horiz-adv-x="551" 
d="M276 -17c-129 0 -238 94 -238 233c0 138 109 233 238 233c128 0 237 -95 237 -233c0 -139 -109 -233 -237 -233zM276 44c89 0 161 66 161 172c0 105 -72 172 -161 172c-91 0 -162 -67 -162 -172c0 -106 71 -172 162 -172z" />
    <glyph glyph-name="one.oprp" horiz-adv-x="262" 
d="M98 0v358h-64v54l140 32v-444h-76z" />
    <glyph glyph-name="two.oprp" horiz-adv-x="478" 
d="M51 0v56l166 112c71 48 115 86 115 136c0 57 -48 79 -102 79c-57 0 -112 -24 -167 -70v78c33 26 102 57 169 57c103 0 178 -56 178 -137c0 -74 -47 -121 -108 -159l-138 -85h261v-67h-374z" />
    <glyph glyph-name="three.oprp" horiz-adv-x="467" 
d="M211 -202c-68 0 -131 26 -168 59v75c40 -37 89 -73 167 -73c82 0 138 59 138 145c0 74 -40 133 -122 133c-39 0 -73 -14 -97 -39l-33 36l215 231h-266v67h372v-40l-183 -196c107 -2 190 -70 190 -193c0 -125 -91 -205 -213 -205z" />
    <glyph glyph-name="four.oprp" horiz-adv-x="514" 
d="M307 -195v195h-282v44l311 406h47v-388h109v-62h-109v-195h-76zM108 62h199v260z" />
    <glyph glyph-name="five.oprp" horiz-adv-x="459" 
d="M211 -202c-68 0 -131 26 -168 59v75c36 -36 89 -73 167 -73c82 0 138 64 138 149c0 74 -40 135 -122 135c-57 0 -97 -24 -122 -79l-40 25v343h336v-67h-274v-203c26 27 70 43 112 43c102 0 186 -75 186 -197c0 -125 -91 -210 -213 -210z" />
    <glyph glyph-name="six.oprp" 
d="M261 -17c-89 0 -213 50 -213 283c0 212 81 352 251 352c52 0 104 -18 129 -38v-69c-33 23 -79 43 -128 43c-101 0 -172 -67 -176 -252c25 44 81 81 153 81c106 0 187 -79 187 -202c0 -113 -91 -198 -203 -198zM256 43c79 0 130 55 130 138c0 81 -41 141 -125 141
c-64 0 -133 -52 -133 -124c0 -104 66 -155 128 -155z" />
    <glyph glyph-name="seven.oprp" horiz-adv-x="434" 
d="M91 -195c39 187 199 514 231 560h-308v67h394v-39c-49 -69 -202 -399 -233 -588h-84z" />
    <glyph glyph-name="eight.oprp" horiz-adv-x="523" 
d="M262 -17c-122 0 -219 72 -219 177c0 89 59 150 137 175c-67 24 -101 78 -101 140c0 83 86 145 183 145c96 0 182 -62 182 -145c0 -62 -34 -116 -101 -140c78 -25 137 -86 137 -175c0 -105 -96 -177 -218 -177zM262 364c60 0 108 46 108 101c0 61 -48 98 -108 98
c-61 0 -108 -37 -108 -98c0 -55 48 -101 108 -101zM262 43c80 0 142 53 142 127c0 79 -64 130 -142 130s-143 -51 -143 -130c0 -74 63 -127 143 -127z" />
    <glyph glyph-name="nine.oprp" 
d="M202 -200c-52 0 -104 18 -129 38v69c33 -23 79 -43 128 -43c101 0 172 81 176 266c-25 -44 -81 -81 -153 -81c-106 0 -187 79 -187 202c0 113 91 198 203 198c89 0 213 -50 213 -283c0 -212 -81 -366 -251 -366zM240 110c64 0 133 52 133 124c0 104 -66 155 -128 155
c-79 0 -130 -55 -130 -138c0 -81 41 -141 125 -141z" />
    <glyph glyph-name="zero.otab" 
d="M251 -17c-124 0 -216 94 -216 233c0 138 92 233 216 233c123 0 215 -95 215 -233c0 -139 -92 -233 -215 -233zM251 44c84 0 139 66 139 172c0 105 -55 172 -139 172c-86 0 -140 -67 -140 -172c0 -106 54 -172 140 -172z" />
    <glyph glyph-name="one.otab" 
d="M217 0v358h-64v54l140 32v-444h-76z" />
    <glyph glyph-name="two.otab" 
d="M62 0v56l166 112c71 48 115 86 115 136c0 57 -48 79 -102 79c-57 0 -112 -24 -167 -70v78c33 26 102 57 169 57c103 0 178 -56 178 -137c0 -74 -47 -121 -108 -159l-138 -85h261v-67h-374z" />
    <glyph glyph-name="three.otab" 
d="M228 -202c-68 0 -131 26 -168 59v75c40 -37 89 -73 167 -73c82 0 138 59 138 145c0 74 -40 133 -122 133c-39 0 -73 -14 -97 -39l-33 36l215 231h-266v67h372v-40l-183 -196c107 -2 190 -70 190 -193c0 -125 -91 -205 -213 -205z" />
    <glyph glyph-name="four.otab" 
d="M301 -195v195h-276v44l305 406h47v-388h103v-62h-103v-195h-76zM108 62h193v257z" />
    <glyph glyph-name="five.otab" 
d="M232 -202c-68 0 -131 26 -168 59v75c36 -36 89 -73 167 -73c82 0 138 64 138 149c0 74 -40 135 -122 135c-57 0 -97 -24 -122 -79l-40 25v343h336v-67h-274v-203c26 27 70 43 112 43c102 0 186 -75 186 -197c0 -125 -91 -210 -213 -210z" />
    <glyph glyph-name="six.otab" 
d="M261 -17c-89 0 -213 50 -213 283c0 212 81 352 251 352c52 0 104 -18 129 -38v-69c-33 23 -79 43 -128 43c-101 0 -172 -67 -176 -252c25 44 81 81 153 81c106 0 187 -79 187 -202c0 -113 -91 -198 -203 -198zM256 43c79 0 130 55 130 138c0 81 -41 141 -125 141
c-64 0 -133 -52 -133 -124c0 -104 66 -155 128 -155z" />
    <glyph glyph-name="seven.otab" 
d="M124 -195c39 187 199 514 231 560h-308v67h394v-39c-49 -69 -202 -399 -233 -588h-84z" />
    <glyph glyph-name="eight.otab" 
d="M251 -17c-117 0 -210 72 -210 177c0 89 56 150 131 175c-64 24 -97 78 -97 140c0 83 83 145 176 145c92 0 175 -62 175 -145c0 -62 -33 -116 -97 -140c75 -25 131 -86 131 -175c0 -105 -92 -177 -209 -177zM251 364c58 0 101 46 101 101c0 61 -43 98 -101 98
c-59 0 -101 -37 -101 -98c0 -55 43 -101 101 -101zM251 43c77 0 133 53 133 127c0 79 -58 130 -133 130s-134 -51 -134 -130c0 -74 57 -127 134 -127z" />
    <glyph glyph-name="nine.otab" 
d="M202 -200c-52 0 -104 18 -129 38v69c33 -23 79 -43 128 -43c101 0 172 81 176 266c-25 -44 -81 -81 -153 -81c-106 0 -187 79 -187 202c0 113 91 198 203 198c89 0 213 -50 213 -283c0 -212 -81 -366 -251 -366zM240 110c64 0 133 52 133 124c0 104 -66 155 -128 155
c-79 0 -130 -55 -130 -138c0 -81 41 -141 125 -141z" />
    <glyph glyph-name="zero.ltab" 
d="M251 -17c-128 0 -210 120 -210 319c0 198 82 318 210 318c129 0 210 -120 210 -318c0 -199 -81 -319 -210 -319zM251 47c86 0 132 98 132 255c0 156 -46 254 -132 254s-132 -98 -132 -254c0 -157 46 -255 132 -255z" />
    <glyph glyph-name="one.ltab" 
d="M217 0v526h-64v54l140 32v-612h-76z" />
    <glyph glyph-name="two.ltab" 
d="M55 0v55l173 180c55 57 109 121 109 202c0 86 -50 116 -108 116c-52 0 -109 -23 -159 -67v72c27 27 100 60 161 60c110 0 185 -63 185 -175c0 -104 -71 -179 -119 -227l-151 -149h283v-67h-374z" />
    <glyph glyph-name="three.ltab" 
d="M228 -17c-68 0 -131 26 -168 59v75c40 -37 89 -73 167 -73c82 0 138 57 138 143c0 74 -40 131 -122 131c-39 0 -73 -14 -97 -39l-33 36l215 218h-266v67h372v-40l-180 -183c104 -1 187 -68 187 -191c0 -125 -91 -203 -213 -203z" />
    <glyph glyph-name="four.ltab" 
d="M301 0v156h-276v44l305 411h47v-393h103v-62h-103v-156h-76zM108 218h193v260z" />
    <glyph glyph-name="five.ltab" 
d="M232 -17c-68 0 -131 26 -168 59v75c36 -36 89 -73 167 -73c82 0 138 64 138 149c0 74 -40 135 -122 135c-57 0 -97 -24 -122 -79l-40 25v326h336v-67h-274v-186c26 27 70 43 112 43c102 0 186 -75 186 -197c0 -125 -91 -210 -213 -210z" />
    <glyph glyph-name="six.ltab" 
d="M261 -17c-89 0 -213 50 -213 283c0 212 81 352 251 352c52 0 104 -18 129 -38v-69c-33 23 -79 43 -128 43c-101 0 -172 -67 -176 -252c25 44 81 81 153 81c106 0 187 -79 187 -202c0 -113 -91 -198 -203 -198zM256 43c79 0 130 55 130 138c0 81 -41 141 -125 141
c-64 0 -133 -52 -133 -124c0 -104 66 -155 128 -155z" />
    <glyph glyph-name="seven.ltab" 
d="M124 0c39 187 199 487 231 533h-308v67h394v-39c-49 -69 -202 -372 -233 -561h-84z" />
    <glyph glyph-name="eight.ltab" 
d="M251 -17c-117 0 -210 72 -210 177c0 89 56 150 131 175c-64 24 -97 78 -97 140c0 83 83 145 176 145c92 0 175 -62 175 -145c0 -62 -33 -116 -97 -140c75 -25 131 -86 131 -175c0 -105 -92 -177 -209 -177zM251 364c58 0 101 46 101 101c0 61 -43 98 -101 98
c-59 0 -101 -37 -101 -98c0 -55 43 -101 101 -101zM251 43c77 0 133 53 133 127c0 79 -58 130 -133 130s-134 -51 -134 -130c0 -74 57 -127 134 -127z" />
    <glyph glyph-name="nine.ltab" 
d="M202 -15c-52 0 -104 18 -129 38v69c33 -23 79 -43 128 -43c101 0 172 67 176 252c-25 -44 -81 -81 -153 -81c-106 0 -187 79 -187 202c0 113 91 198 203 198c89 0 213 -50 213 -283c0 -212 -81 -352 -251 -352zM240 281c64 0 133 52 133 124c0 104 -66 155 -128 155
c-79 0 -130 -55 -130 -138c0 -81 41 -141 125 -141z" />
    <glyph glyph-name="zero.nfra" horiz-adv-x="339" 
d="M169 271c-74 0 -131 63 -131 170c0 106 57 169 131 169c75 0 132 -63 132 -169c0 -107 -57 -170 -132 -170zM169 324c36 0 63 34 63 117c0 82 -27 116 -63 116c-37 0 -62 -34 -62 -116c0 -83 25 -117 62 -117z" />
    <glyph glyph-name="one.nfra" horiz-adv-x="197" 
d="M68 280v268h-33v41l99 18v-327h-66z" />
    <glyph glyph-name="two.nfra" horiz-adv-x="274" 
d="M27 280v34l77 82c30 32 59 66 59 109c0 38 -25 51 -47 51c-25 0 -51 -11 -81 -36v57c20 16 57 32 92 32c61 0 104 -37 104 -98c0 -54 -38 -96 -63 -120l-59 -55h129v-56h-211z" />
    <glyph glyph-name="three.nfra" horiz-adv-x="287" 
d="M132 271c-42 0 -73 15 -96 33v58c26 -25 56 -41 90 -41c36 0 58 23 58 62c0 34 -18 55 -52 55c-19 0 -34 -8 -43 -17l-25 29l99 94h-126v56h212v-34l-87 -82c48 -6 89 -44 89 -103c0 -67 -49 -110 -119 -110z" />
    <glyph glyph-name="four.nfra" horiz-adv-x="327" 
d="M173 280v79h-143v32l154 213h55v-197h59v-48h-59v-79h-66zM92 407h81v109z" />
    <glyph glyph-name="five.nfra" horiz-adv-x="286" 
d="M132 271c-42 0 -73 15 -96 33v58c26 -25 56 -41 90 -41c36 0 58 26 58 63c0 33 -19 55 -52 55c-23 0 -43 -12 -54 -31l-30 15v177h190v-56h-137v-71c10 9 28 15 46 15c58 0 104 -44 104 -105c0 -67 -49 -112 -119 -112z" />
    <glyph glyph-name="six.nfra" horiz-adv-x="311" 
d="M159 271c-50 0 -120 26 -120 152c0 112 46 186 141 186c29 0 63 -11 75 -21v-52c-20 14 -46 23 -72 23c-43 0 -73 -27 -76 -97c10 13 39 26 65 26c62 0 103 -47 103 -109s-52 -108 -116 -108zM159 441c-28 0 -53 -19 -53 -57c0 -45 21 -67 50 -67c35 0 52 24 52 61
s-14 63 -49 63z" />
    <glyph glyph-name="seven.nfra" horiz-adv-x="276" 
d="M60 280c20 100 99 239 117 264h-153v56h223v-32c-26 -39 -101 -187 -117 -288h-70z" />
    <glyph glyph-name="eight.nfra" horiz-adv-x="320" 
d="M282 367c0 -58 -54 -96 -122 -96c-69 0 -123 38 -123 96c0 45 30 77 71 91c-34 14 -52 41 -52 72c0 47 48 80 104 80c54 0 103 -33 103 -80c0 -31 -18 -58 -52 -72c41 -14 71 -46 71 -91zM203 524c0 27 -16 44 -43 44c-28 0 -45 -17 -45 -44c0 -23 17 -45 45 -45
c27 0 43 22 43 45zM160 432c-36 0 -58 -24 -58 -59c0 -34 22 -58 58 -58c35 0 57 24 57 58c0 35 -22 59 -57 59z" />
    <glyph glyph-name="nine.nfra" horiz-adv-x="311" 
d="M152 610c50 0 120 -26 120 -152c0 -112 -46 -186 -141 -186c-29 0 -63 11 -75 21v52c20 -14 46 -23 72 -23c43 0 73 27 76 97c-10 -13 -39 -26 -65 -26c-62 0 -103 47 -103 109s52 108 116 108zM152 440c28 0 53 19 53 57c0 45 -21 67 -50 67c-35 0 -52 -24 -52 -61
s14 -63 49 -63z" />
    <glyph glyph-name="zero.dfra" horiz-adv-x="339" 
d="M169 -9c-74 0 -131 63 -131 170c0 106 57 169 131 169c75 0 132 -63 132 -169c0 -107 -57 -170 -132 -170zM169 44c36 0 63 34 63 117c0 82 -27 116 -63 116c-37 0 -62 -34 -62 -116c0 -83 25 -117 62 -117z" />
    <glyph glyph-name="one.dfra" horiz-adv-x="197" 
d="M68 0v268h-33v41l99 18v-327h-66z" />
    <glyph glyph-name="two.dfra" horiz-adv-x="274" 
d="M27 0v34l77 82c30 32 59 66 59 109c0 38 -25 51 -47 51c-25 0 -51 -11 -81 -36v57c20 16 57 32 92 32c61 0 104 -37 104 -98c0 -54 -37 -96 -63 -120l-59 -55h129v-56h-211z" />
    <glyph glyph-name="three.dfra" horiz-adv-x="287" 
d="M132 -9c-42 0 -73 15 -96 33v58c26 -25 56 -41 90 -41c36 0 58 23 58 62c0 34 -18 55 -52 55c-19 0 -34 -8 -43 -17l-25 29l99 94h-126v56h212v-34l-87 -82c48 -6 89 -44 89 -103c0 -67 -49 -110 -119 -110z" />
    <glyph glyph-name="four.dfra" horiz-adv-x="327" 
d="M173 0v79h-143v32l154 213h55v-197h59v-48h-59v-79h-66zM92 127h81v109z" />
    <glyph glyph-name="five.dfra" horiz-adv-x="286" 
d="M132 -9c-42 0 -73 15 -96 33v58c26 -25 56 -41 90 -41c36 0 58 26 58 63c0 33 -19 55 -52 55c-23 0 -43 -12 -54 -31l-30 15v177h190v-56h-137v-71c10 9 28 15 46 15c58 0 104 -44 104 -105c0 -67 -49 -112 -119 -112z" />
    <glyph glyph-name="six.dfra" horiz-adv-x="311" 
d="M159 -9c-50 0 -120 26 -120 152c0 112 46 186 141 186c29 0 63 -11 75 -21v-52c-20 14 -46 23 -72 23c-43 0 -73 -27 -76 -97c10 13 39 26 65 26c62 0 103 -47 103 -109s-52 -108 -116 -108zM159 161c-28 0 -53 -19 -53 -57c0 -45 21 -67 50 -67c35 0 52 24 52 61
s-14 63 -49 63z" />
    <glyph glyph-name="seven.dfra" horiz-adv-x="276" 
d="M60 0c20 100 99 239 117 264h-153v56h223v-32c-26 -39 -101 -187 -117 -288h-70z" />
    <glyph glyph-name="eight.dfra" horiz-adv-x="320" 
d="M282 87c0 -58 -54 -96 -122 -96c-69 0 -123 38 -123 96c0 45 30 77 71 91c-34 14 -52 41 -52 72c0 47 48 80 104 80c54 0 103 -33 103 -80c0 -31 -18 -58 -52 -72c41 -14 71 -46 71 -91zM203 244c0 27 -16 44 -43 44c-28 0 -45 -17 -45 -44c0 -23 17 -45 45 -45
c27 0 43 22 43 45zM160 152c-36 0 -58 -24 -58 -59c0 -34 22 -58 58 -58c35 0 57 24 57 58c0 35 -22 59 -57 59z" />
    <glyph glyph-name="nine.dfra" horiz-adv-x="311" 
d="M152 330c50 0 120 -26 120 -152c0 -112 -46 -186 -141 -186c-29 0 -63 11 -75 21v52c20 -14 46 -23 72 -23c43 0 73 27 76 97c-10 -13 -39 -26 -65 -26c-62 0 -103 47 -103 109s52 108 116 108zM152 160c28 0 53 19 53 57c0 45 -21 67 -50 67c-35 0 -52 -24 -52 -61
s14 -63 49 -63z" />
    <glyph glyph-name="zeroinferior" unicode="&#x2080;" horiz-adv-x="339" 
d="M169 -114c-74 0 -131 63 -131 170c0 106 57 169 131 169c75 0 132 -63 132 -169c0 -107 -57 -170 -132 -170zM169 -61c36 0 63 34 63 117c0 82 -27 116 -63 116c-37 0 -62 -34 -62 -116c0 -83 25 -117 62 -117z" />
    <glyph glyph-name="oneinferior" unicode="&#x2081;" horiz-adv-x="197" 
d="M68 -105v268h-33v41l99 18v-327h-66z" />
    <glyph glyph-name="twoinferior" unicode="&#x2082;" horiz-adv-x="274" 
d="M27 -105v34l77 82c30 32 59 66 59 109c0 38 -25 51 -47 51c-25 0 -51 -11 -81 -36v57c20 16 57 32 92 32c61 0 104 -37 104 -98c0 -54 -38 -96 -63 -120l-59 -55h129v-56h-211z" />
    <glyph glyph-name="threeinferior" unicode="&#x2083;" horiz-adv-x="287" 
d="M132 -114c-42 0 -73 15 -96 33v58c26 -25 56 -41 90 -41c36 0 58 23 58 62c0 34 -18 55 -52 55c-19 0 -34 -8 -43 -17l-25 29l99 94h-126v56h212v-34l-87 -82c48 -6 89 -44 89 -103c0 -67 -49 -110 -119 -110z" />
    <glyph glyph-name="fourinferior" unicode="&#x2084;" horiz-adv-x="327" 
d="M173 -105v79h-143v32l154 213h55v-197h59v-48h-59v-79h-66zM92 22h81v109z" />
    <glyph glyph-name="fiveinferior" unicode="&#x2085;" horiz-adv-x="286" 
d="M132 -114c-42 0 -73 15 -96 33v58c26 -25 56 -41 90 -41c36 0 58 26 58 63c0 33 -19 55 -52 55c-23 0 -43 -12 -54 -31l-30 15v177h190v-56h-137v-71c10 9 28 15 46 15c58 0 104 -44 104 -105c0 -67 -49 -112 -119 -112z" />
    <glyph glyph-name="sixinferior" unicode="&#x2086;" horiz-adv-x="311" 
d="M159 -114c-50 0 -120 26 -120 152c0 112 46 186 141 186c29 0 63 -11 75 -21v-52c-20 14 -46 23 -72 23c-43 0 -73 -27 -76 -97c10 13 39 26 65 26c62 0 103 -47 103 -109s-52 -108 -116 -108zM159 56c-28 0 -53 -19 -53 -57c0 -45 21 -67 50 -67c35 0 52 24 52 61
s-14 63 -49 63z" />
    <glyph glyph-name="seveninferior" unicode="&#x2087;" horiz-adv-x="276" 
d="M60 -105c20 100 99 239 117 264h-153v56h223v-32c-26 -39 -101 -187 -117 -288h-70z" />
    <glyph glyph-name="eightinferior" unicode="&#x2088;" horiz-adv-x="320" 
d="M282 -18c0 -58 -54 -96 -122 -96c-69 0 -123 38 -123 96c0 45 30 77 71 91c-34 14 -52 41 -52 72c0 47 48 80 104 80c54 0 103 -33 103 -80c0 -31 -18 -58 -52 -72c41 -14 71 -46 71 -91zM203 139c0 27 -16 44 -43 44c-28 0 -45 -17 -45 -44c0 -23 17 -45 45 -45
c27 0 43 22 43 45zM160 47c-36 0 -58 -24 -58 -59c0 -34 22 -58 58 -58c35 0 57 24 57 58c0 35 -22 59 -57 59z" />
    <glyph glyph-name="nineinferior" unicode="&#x2089;" horiz-adv-x="311" 
d="M152 225c50 0 120 -26 120 -152c0 -112 -46 -186 -141 -186c-29 0 -63 11 -75 21v52c20 -14 46 -23 72 -23c43 0 73 27 76 97c-10 -13 -39 -26 -65 -26c-62 0 -103 47 -103 109s52 108 116 108zM152 55c28 0 53 19 53 57c0 45 -21 67 -50 67c-35 0 -52 -24 -52 -61
s14 -63 49 -63z" />
    <glyph glyph-name="zerosuperior" unicode="&#x2070;" horiz-adv-x="339" 
d="M169 348c-74 0 -131 63 -131 170c0 106 57 169 131 169c75 0 132 -63 132 -169c0 -107 -57 -170 -132 -170zM169 401c36 0 63 34 63 117c0 82 -27 116 -63 116c-37 0 -62 -34 -62 -116c0 -83 25 -117 62 -117z" />
    <glyph glyph-name="foursuperior" unicode="&#x2074;" horiz-adv-x="327" 
d="M173 357v79h-143v32l154 213h55v-197h59v-48h-59v-79h-66zM92 484h81v109z" />
    <glyph glyph-name="fivesuperior" unicode="&#x2075;" horiz-adv-x="286" 
d="M132 348c-42 0 -73 15 -96 33v58c26 -25 56 -41 90 -41c36 0 58 26 58 63c0 33 -19 55 -52 55c-23 0 -43 -12 -54 -31l-30 15v177h190v-56h-137v-71c10 9 28 15 46 15c58 0 104 -44 104 -105c0 -67 -49 -112 -119 -112z" />
    <glyph glyph-name="sixsuperior" unicode="&#x2076;" horiz-adv-x="311" 
d="M159 348c-50 0 -120 26 -120 152c0 112 46 186 141 186c29 0 63 -11 75 -21v-52c-20 14 -46 23 -72 23c-43 0 -73 -27 -76 -97c10 13 39 26 65 26c62 0 103 -47 103 -109s-52 -108 -116 -108zM159 518c-28 0 -53 -19 -53 -57c0 -45 21 -67 50 -67c35 0 52 24 52 61
s-14 63 -49 63z" />
    <glyph glyph-name="sevensuperior" unicode="&#x2077;" horiz-adv-x="276" 
d="M60 357c20 100 99 239 117 264h-153v56h223v-32c-26 -39 -101 -187 -117 -288h-70z" />
    <glyph glyph-name="eightsuperior" unicode="&#x2078;" horiz-adv-x="320" 
d="M282 444c0 -58 -54 -96 -122 -96c-69 0 -123 38 -123 96c0 45 30 77 71 91c-34 14 -52 41 -52 72c0 47 48 80 104 80c54 0 103 -33 103 -80c0 -31 -18 -58 -52 -72c41 -14 71 -46 71 -91zM203 601c0 27 -16 44 -43 44c-28 0 -45 -17 -45 -44c0 -23 17 -45 45 -45
c27 0 43 22 43 45zM160 509c-36 0 -58 -24 -58 -59c0 -34 22 -58 58 -58c35 0 57 24 57 58c0 35 -22 59 -57 59z" />
    <glyph glyph-name="ninesuperior" unicode="&#x2079;" horiz-adv-x="311" 
d="M152 687c50 0 120 -26 120 -152c0 -112 -46 -186 -141 -186c-29 0 -63 11 -75 21v52c20 -14 46 -23 72 -23c43 0 73 27 76 97c-10 -13 -39 -26 -65 -26c-62 0 -103 47 -103 109s52 108 116 108zM152 517c28 0 53 19 53 57c0 45 -21 67 -50 67c-35 0 -52 -24 -52 -61
s14 -63 49 -63z" />
    <glyph glyph-name="questiondown.caps" horiz-adv-x="424" 
d="M303 600v-88h-88v88h88zM290 440v-126l-46 -22c-110 -53 -138 -95 -138 -151c0 -65 53 -95 123 -95c56 0 134 32 175 76v-76c-38 -35 -113 -63 -181 -63c-101 0 -196 49 -196 155c0 92 71 148 159 190l42 20v92h62z" />
    <glyph glyph-name="exclamdown.caps" horiz-adv-x="230" 
d="M71 512v88h88v-88h-88zM92 440h46l25 -440h-95z" />
    <glyph glyph-name="at.caps" horiz-adv-x="680" 
d="M325 154c37 0 80 39 89 93l27 157c-10 11 -24 22 -57 22c-58 0 -105 -58 -119 -138s3 -134 60 -134zM348 -40c-179 0 -323 132 -323 306c0 193 159 351 352 351c157 0 279 -105 279 -263c0 -131 -102 -246 -186 -246c-44 0 -61 26 -66 51c-22 -30 -57 -55 -99 -55
c-84 0 -122 84 -104 184c18 101 101 183 185 183c27 0 43 -5 64 -17h56l-43 -245c-8 -43 3 -60 32 -60c50 0 115 91 115 203c0 132 -106 216 -228 216c-160 0 -291 -137 -291 -299c0 -168 121 -270 265 -270c79 0 147 24 212 64l13 -28c-80 -57 -161 -75 -233 -75z" />
    <glyph glyph-name="zero.small" horiz-adv-x="455" 
d="M414 240c0 -158 -81 -253 -186 -253s-187 95 -187 253c0 157 82 252 187 252s186 -95 186 -252zM338 240c0 121 -43 192 -110 192c-68 0 -111 -71 -111 -192c0 -123 43 -194 111 -194c67 0 110 71 110 194z" />
    <glyph glyph-name="one.small" horiz-adv-x="239" 
d="M162 0h-76v411h-51v49l127 26v-486z" />
    <glyph glyph-name="two.small" horiz-adv-x="372" 
d="M332 0h-305v47l132 137c45 46 87 96 87 159c0 64 -39 86 -82 86c-41 0 -85 -18 -125 -52v66c23 21 83 47 132 47c88 0 151 -51 151 -141c0 -82 -55 -140 -95 -180l-112 -108h217v-61z" />
    <glyph glyph-name="three.small" horiz-adv-x="392" 
d="M351 149c0 -101 -75 -162 -173 -162c-55 0 -107 20 -137 47v67c33 -31 74 -58 132 -58c63 0 106 42 106 107c0 55 -31 96 -92 96c-30 0 -55 -11 -73 -30l-31 35l164 164h-204v61h303v-37l-140 -140c81 -2 145 -55 145 -150z" />
    <glyph glyph-name="four.small" horiz-adv-x="434" 
d="M408 121h-86v-121h-73v121h-222v41l243 321h52v-306h86v-56zM249 177v195l-147 -195h147z" />
    <glyph glyph-name="five.small" horiz-adv-x="387" 
d="M351 154c0 -101 -75 -167 -173 -167c-55 0 -107 20 -137 47v67c30 -30 74 -58 132 -58c63 0 105 47 105 110c0 56 -31 99 -93 99c-42 0 -73 -18 -91 -57l-36 19v262h274v-61h-216v-137c20 19 52 31 86 31c84 0 149 -59 149 -155z" />
    <glyph glyph-name="six.small" horiz-adv-x="420" 
d="M383 146c0 -92 -73 -159 -165 -159c-73 0 -173 39 -173 224c0 169 67 279 203 279c45 0 88 -15 107 -30v-62c-27 19 -65 34 -103 34c-76 0 -131 -49 -135 -186c19 31 64 60 118 60c85 0 148 -63 148 -160zM309 145c0 60 -30 105 -91 105c-47 0 -98 -36 -98 -94
c0 -76 47 -115 94 -115c59 0 95 42 95 104z" />
    <glyph glyph-name="seven.small" horiz-adv-x="367" 
d="M340 440c-39 -56 -159 -290 -183 -440h-79c31 148 155 378 180 415h-239v61h321v-36z" />
    <glyph glyph-name="eight.small" horiz-adv-x="438" 
d="M397 128c0 -84 -79 -141 -178 -141s-178 57 -178 141c0 70 46 117 107 138c-52 19 -79 62 -79 110c0 67 71 116 150 116c78 0 149 -49 149 -116c0 -48 -27 -91 -78 -110c61 -21 107 -68 107 -138zM299 367c0 45 -35 74 -80 74c-46 0 -79 -29 -79 -74c0 -40 34 -75 79 -75
s80 35 80 75zM219 234c-58 0 -105 -39 -105 -97c0 -56 45 -96 105 -96s104 40 104 96c0 58 -45 97 -104 97z" />
    <glyph glyph-name="nine.small" horiz-adv-x="420" 
d="M376 267c0 -169 -68 -279 -204 -279c-44 0 -87 16 -106 31v61c27 -18 65 -33 103 -33c76 0 131 48 134 186c-19 -32 -63 -60 -117 -60c-85 0 -149 62 -149 160c0 91 74 159 165 159c74 0 174 -40 174 -225zM301 322c0 77 -47 115 -95 115c-58 0 -95 -41 -95 -103
c0 -61 31 -106 92 -106c47 0 98 37 98 94z" />
    <glyph glyph-name="onequarter.small" horiz-adv-x="526" 
d="M474 60h-47v-60h-58v60h-113v28l122 168h49v-155h47v-41zM408 475l-304 -489l-30 15l304 489zM139 222h-57v210h-27v35l84 15v-260zM369 101v84l-62 -84h62z" />
    <glyph glyph-name="onehalf.small" horiz-adv-x="522" 
d="M466 0h-172v29l60 63c24 26 48 52 48 85c0 29 -20 39 -38 39c-19 0 -40 -9 -64 -29v49c16 12 47 25 75 25c50 0 86 -29 86 -78c0 -43 -29 -75 -51 -95l-45 -41h101v-47zM408 475l-304 -489l-30 15l304 489zM139 222h-57v210h-27v35l84 15v-260z" />
    <glyph glyph-name="threequarters.small" horiz-adv-x="569" 
d="M517 60h-47v-60h-58v60h-114v28l122 168h50v-155h47v-41zM452 475l-303 -489l-31 15l304 489zM233 302c0 -53 -42 -87 -98 -87c-34 0 -61 12 -79 26v49c21 -20 46 -32 73 -32s45 17 45 46c0 26 -14 41 -40 41c-15 0 -27 -6 -34 -13l-21 24l77 73h-99v47h173v-29l-68 -63
c38 -5 71 -35 71 -82zM412 101v84l-63 -84h63z" />
    <glyph glyph-name="periodcentered.small" horiz-adv-x="270" 
d="M89 222v92h92v-92h-92z" />
    <glyph glyph-name="endash.allsmall" horiz-adv-x="404" 
d="M-1 224v52h406v-52h-406z" />
    <glyph glyph-name="emdash.allsmall" horiz-adv-x="646" 
d="M-1 224v52h648v-52h-648z" />
    <glyph glyph-name="at.small" horiz-adv-x="618" 
d="M295 73c34 0 73 35 81 84l24 141c-9 10 -22 20 -51 20c-53 0 -95 -52 -108 -124s3 -121 54 -121zM316 -101c-161 0 -291 119 -291 275c0 174 144 316 317 316c142 0 251 -94 251 -237c0 -118 -91 -221 -167 -221c-40 0 -55 23 -59 46c-20 -27 -52 -50 -90 -50
c-75 0 -109 76 -93 166c16 91 91 165 166 165c25 0 39 -5 58 -16h50l-38 -220c-7 -39 2 -54 28 -54c45 0 104 82 104 183c0 118 -95 194 -205 194c-144 0 -262 -123 -262 -269c0 -151 109 -243 238 -243c71 0 133 22 191 58l12 -26c-72 -51 -145 -67 -210 -67z" />
    <glyph glyph-name="asciitilde.small" horiz-adv-x="435" 
d="M286 192c-48 0 -105 61 -149 61c-27 0 -33 -21 -42 -57h-29c0 77 31 113 81 113c48 0 105 -61 149 -61c27 0 33 21 42 57h29c0 -77 -31 -113 -81 -113z" />
    <glyph glyph-name="dollar.allsmall" horiz-adv-x="389" 
d="M355 138c0 -86 -66 -132 -140 -138v-67h-36v67c-67 4 -123 33 -146 56l15 62c24 -24 74 -55 131 -62v162c-91 25 -134 72 -134 136s50 117 134 123v65h36v-65c47 -5 95 -25 117 -43l-15 -54c-27 18 -67 34 -102 39v-137c93 -28 140 -71 140 -144zM179 292v128
c-43 -4 -68 -29 -68 -64c0 -25 19 -47 68 -64zM215 207v-150c42 6 73 34 73 74c0 36 -20 58 -73 76z" />
    <glyph glyph-name="cent.allsmall" horiz-adv-x="389" 
d="M349 91c-26 -18 -64 -31 -103 -35v-97h-36v97c-93 8 -168 75 -168 181c0 105 75 173 168 180v97h36v-98c39 -2 77 -15 103 -34v-65c-27 23 -60 41 -103 42v-246c43 3 76 21 103 44v-66zM210 116v241c-55 -9 -94 -54 -94 -120s39 -111 94 -121z" />
    <glyph glyph-name="Euro.allsmall" horiz-adv-x="424" 
d="M385 22c-28 -20 -74 -33 -115 -33c-103 0 -172 67 -191 183h-49v38h45c-1 10 -1 19 -1 30c0 9 0 18 1 26h-45v38h49c17 117 87 185 191 185c41 0 83 -12 115 -33v-64c-32 26 -68 39 -110 39c-69 0 -109 -45 -122 -127h138v-38h-141c-1 -8 -1 -17 -1 -26
c0 -11 0 -20 1 -30h141v-38h-138c15 -80 54 -124 122 -124c42 0 78 14 110 39v-65z" />
    <glyph glyph-name="sterling.allsmall" horiz-adv-x="423" 
d="M377 0h-350v60c64 0 75 14 75 90v70h-64v47h64v29c0 140 65 193 159 193c37 0 73 -14 97 -30v-63c-27 21 -61 35 -96 35c-52 0 -87 -24 -87 -134v-30h122v-47h-122v-25c0 -85 -20 -119 -45 -135h247v-60z" />
    <glyph glyph-name="yen.allsmall" horiz-adv-x="462" 
d="M455 476l-159 -245h68v-37h-92l-3 -5v-46h95v-37h-95v-106h-76v106h-95v37h95v46l-3 5h-92v37h68l-159 245h82l144 -224l143 224h79z" />
    <glyph glyph-name="percent.allsmall" horiz-adv-x="553" 
d="M257 369c0 -68 -45 -119 -107 -119c-61 0 -107 51 -107 119s46 118 107 118c62 0 107 -50 107 -118zM443 476l-304 -490l-28 14l304 490zM509 109c0 -68 -45 -119 -107 -119c-61 0 -107 51 -107 119s46 119 107 119c62 0 107 -51 107 -119zM201 369c0 52 -23 74 -51 74
s-51 -22 -51 -74s23 -74 51 -74s51 22 51 74zM402 183c-29 0 -51 -22 -51 -74s22 -73 51 -73c28 0 51 21 51 73s-23 74 -51 74z" />
    <glyph glyph-name="perthousand.allsmall" horiz-adv-x="808" 
d="M763 109c0 -68 -46 -119 -107 -119s-107 51 -107 119s46 119 107 119s107 -51 107 -119zM257 369c0 -68 -45 -119 -107 -119c-61 0 -107 51 -107 119s46 118 107 118c62 0 107 -50 107 -118zM443 476l-304 -490l-28 14l304 490zM509 109c0 -68 -45 -119 -107 -119
c-61 0 -107 51 -107 119s46 119 107 119c62 0 107 -51 107 -119zM656 183c-29 0 -51 -22 -51 -74s22 -73 51 -73c28 0 51 21 51 73s-23 74 -51 74zM201 369c0 52 -23 74 -51 74s-51 -22 -51 -74s23 -74 51 -74s51 22 51 74zM402 183c-29 0 -51 -22 -51 -74s22 -73 51 -73
c28 0 51 21 51 73s-23 74 -51 74z" />
    <glyph glyph-name="plus.allsmall" horiz-adv-x="430" 
d="M188 71v152h-152v54h152v152h54v-152h152v-54h-152v-152h-54z" />
    <glyph glyph-name="minus.allsmall" horiz-adv-x="430" 
d="M66 223v54h298v-54h-298z" />
    <glyph glyph-name="multiply.allsmall" horiz-adv-x="430" 
d="M99 95l-39 39l117 116l-116 115l39 39l115 -116l115 116l39 -39l-116 -115l117 -116l-39 -39l-116 117z" />
    <glyph glyph-name="divide.allsmall" horiz-adv-x="430" 
d="M36 224v54h358v-54h-358zM175 346v80h80v-80h-80zM175 76v80h80v-80h-80z" />
    <glyph glyph-name="equal.allsmall" horiz-adv-x="430" 
d="M69 287v54h292v-54h-292zM69 161v54h292v-54h-292z" />
    <glyph glyph-name="notequal.allsmall" horiz-adv-x="430" 
d="M101 58l-29 21l58 82h-61v55h99l50 70h-149v55h187l73 103l29 -22l-58 -81h61v-55h-99l-50 -70h149v-55h-187z" />
    <glyph glyph-name="approxequal.allsmall" horiz-adv-x="430" 
d="M71 267v55s33 33 72 33c50 0 102 -33 143 -33c38 0 72 33 72 33v-55s-33 -33 -72 -33c-50 0 -102 33 -143 33c-38 0 -72 -33 -72 -33zM71 142v55s33 33 72 33c50 0 102 -33 143 -33c38 0 72 33 72 33v-55s-33 -33 -72 -33c-50 0 -102 33 -143 33c-38 0 -72 -33 -72 -33z
" />
    <glyph glyph-name="less.allsmall" horiz-adv-x="435" 
d="M361 33l-310 218l310 217l26 -38l-244 -179l244 -179z" />
    <glyph glyph-name="greater.allsmall" horiz-adv-x="435" 
d="M74 33l-26 39l244 179l-244 179l26 38l310 -217z" />
    <glyph glyph-name="degree.allsmall" horiz-adv-x="372" 
d="M185 182c-82 0 -150 67 -150 150c0 82 68 150 150 150c83 0 150 -68 150 -150c0 -83 -67 -150 -150 -150zM185 232c55 0 100 45 100 100s-45 100 -100 100s-99 -45 -99 -100s44 -100 99 -100z" />
    <glyph glyph-name="infinity.allsmall" horiz-adv-x="685" 
d="M167 119c-83 0 -135 58 -135 130c0 73 52 131 135 131c54 0 130 -56 176 -101c44 45 121 101 176 101c82 0 135 -58 135 -131c0 -72 -53 -130 -135 -130c-55 0 -132 55 -176 100c-46 -45 -122 -100 -176 -100zM164 164c46 0 105 51 142 85c-40 38 -96 85 -142 85
c-48 0 -82 -38 -82 -85c0 -45 34 -85 82 -85zM522 164c48 0 82 40 82 85c0 47 -34 85 -82 85c-46 0 -103 -47 -143 -85c37 -34 97 -85 143 -85z" />
    <glyph glyph-name="logicalnot.allsmall" horiz-adv-x="542" 
d="M391 101v123h-322v54h376v-177h-54z" />
    <glyph glyph-name="pi.allsmall" horiz-adv-x="549" 
d="M88 0v416h-60v60h493v-60h-60v-416h-76v416h-221v-416h-76z" />
    <glyph glyph-name="ordfeminine.allsmall" horiz-adv-x="417" 
d="M407 191h-66l-47 109h-174l-47 -109h-64l176 409h46zM274 350l-67 161l-68 -161h135z" />
    <glyph glyph-name="ordmasculine.allsmall" horiz-adv-x="497" 
d="M468 396c0 -126 -94 -216 -219 -216s-220 90 -220 216c0 125 95 216 220 216s219 -91 219 -216zM401 396c0 95 -63 162 -152 162s-153 -67 -153 -162s64 -163 153 -163s152 68 152 163z" />
    <glyph glyph-name="question.allsmall" horiz-adv-x="355" 
d="M327 366c0 -74 -57 -118 -128 -151l-30 -15v-48h-57v80l36 18c84 39 104 71 104 112c0 48 -39 69 -89 69c-45 0 -106 -25 -140 -60v68c31 28 92 50 146 50c82 0 158 -38 158 -123zM97 0v88h88v-88h-88z" />
    <glyph glyph-name="questiondown.allsmall" horiz-adv-x="355" 
d="M258 476v-88h-88v88h88zM28 110c0 74 60 117 128 151l30 15v48h57v-80l-36 -18c-85 -42 -104 -71 -104 -112c0 -48 39 -69 89 -69c45 0 106 25 140 60v-68c-31 -28 -92 -50 -146 -50c-82 0 -158 38 -158 123z" />
    <glyph glyph-name="exclam.allsmall" horiz-adv-x="206" 
d="M148 476l-24 -324h-42l-24 324h90zM59 0v88h88v-88h-88z" />
    <glyph glyph-name="exclamdown.allsmall" horiz-adv-x="206" 
d="M59 476h88v-88h-88v88zM148 0h-90l24 324h42z" />
    <glyph glyph-name="bullet.allsmall" horiz-adv-x="242" 
d="M121 213c-42 0 -77 34 -77 76c0 43 35 77 77 77c43 0 77 -34 77 -77c0 -42 -34 -76 -77 -76z" />
    <glyph glyph-name="asterisk.allsmall" horiz-adv-x="379" 
d="M190 114c-25 0 -40 21 -40 47c0 34 22 46 27 117c-59 -40 -59 -65 -88 -82c-22 -13 -48 -10 -61 11s-2 46 21 59c29 16 51 4 115 35c-64 31 -86 18 -115 35c-22 13 -33 37 -21 59s39 24 61 11c29 -17 29 -42 88 -82c-5 71 -27 83 -27 117c0 26 15 47 40 47s40 -21 40 -47
c0 -34 -22 -46 -27 -117c59 40 59 65 88 82c22 13 48 10 61 -11s2 -46 -21 -59c-29 -16 -51 -4 -115 -35c64 -31 86 -18 115 -35c22 -13 33 -37 21 -59s-39 -24 -61 -11c-29 17 -29 42 -88 82c5 -71 27 -83 27 -117c0 -26 -15 -47 -40 -47z" />
    <glyph glyph-name="quotesingle.allsmall" horiz-adv-x="217" 
d="M94 268l-35 208h98l-35 -208h-28z" />
    <glyph glyph-name="quotedbl.allsmall" horiz-adv-x="384" 
d="M261 268l-35 208h98l-35 -208h-28zM94 268l-35 208h98l-35 -208h-28z" />
    <glyph glyph-name="quoteleft.allsmall" horiz-adv-x="223" 
d="M68 269v77c0 68 27 122 80 138l15 -25c-34 -19 -46 -63 -46 -102h39v-88h-88z" />
    <glyph glyph-name="quoteright.allsmall" horiz-adv-x="223" 
d="M76 261l-15 25c34 19 46 63 46 102h-39v88h88v-77c0 -68 -27 -122 -80 -138z" />
    <glyph glyph-name="quotedblleft.allsmall" horiz-adv-x="390" 
d="M235 269v77c0 68 27 122 80 138l15 -25c-34 -19 -46 -63 -46 -102h39v-88h-88zM68 269v77c0 68 27 122 80 138l15 -25c-34 -19 -46 -63 -46 -102h39v-88h-88z" />
    <glyph glyph-name="quotedblright.allsmall" horiz-adv-x="390" 
d="M243 261l-15 25c34 19 46 63 46 102h-39v88h88v-77c0 -68 -27 -122 -80 -138zM76 261l-15 25c34 19 46 63 46 102h-39v88h88v-77c0 -68 -27 -122 -80 -138z" />
    <glyph glyph-name="guillemotleft.allsmall" horiz-adv-x="403" 
d="M353 112l-174 139l174 138l22 -26l-119 -113l119 -113zM241 72l-213 179l213 178l22 -26l-158 -153l158 -152z" />
    <glyph glyph-name="guillemotright.allsmall" horiz-adv-x="403" 
d="M162 72l-22 26l158 152l-158 153l22 26l213 -178zM49 112l-21 25l118 113l-118 113l21 26l175 -138z" />
    <glyph glyph-name="guilsinglleft.allsmall" horiz-adv-x="291" 
d="M241 72l-213 179l213 178l22 -26l-153 -153l153 -152z" />
    <glyph glyph-name="guilsinglright.allsmall" horiz-adv-x="291" 
d="M49 72l-21 26l153 152l-153 153l21 26l214 -178z" />
    <glyph glyph-name="parenleft.allsmall" horiz-adv-x="268" 
d="M64 234c0 135 59 258 159 340l21 -18c-44 -50 -117 -171 -117 -322s73 -272 117 -322l-21 -18c-100 82 -159 205 -159 340z" />
    <glyph glyph-name="parenright.allsmall" horiz-adv-x="268" 
d="M203 234c0 -135 -59 -258 -159 -340l-21 18c44 50 117 171 117 322s-73 272 -117 322l21 18c100 -82 159 -205 159 -340z" />
    <glyph glyph-name="bracketleft.allsmall" horiz-adv-x="264" 
d="M226 -88h-134v644h134v-38h-74v-567h74v-39z" />
    <glyph glyph-name="bracketright.allsmall" horiz-adv-x="264" 
d="M38 -88v39h74v567h-74v38h134v-644h-134z" />
    <glyph glyph-name="braceleft.allsmall" horiz-adv-x="267" 
d="M44 224v22c46 16 79 22 79 135c0 111 20 155 89 195l17 -24c-45 -33 -46 -80 -46 -171c0 -115 -31 -133 -87 -146c56 -14 87 -31 87 -146c0 -91 1 -139 46 -171l-17 -24c-69 40 -89 83 -89 194c0 114 -33 120 -79 136z" />
    <glyph glyph-name="braceright.allsmall" horiz-adv-x="267" 
d="M223 224c-46 -16 -79 -22 -79 -136c0 -111 -20 -154 -89 -194l-17 24c45 32 46 80 46 171c0 115 31 132 87 146c-56 13 -87 31 -87 146c0 91 -1 138 -46 171l17 24c69 -40 89 -84 89 -195c0 -113 33 -119 79 -135v-22z" />
    <glyph glyph-name="slash.allsmall" horiz-adv-x="273" 
d="M268 479l-225 -496l-38 14l225 496z" />
    <glyph glyph-name="backslash.allsmall" horiz-adv-x="273" 
d="M4 479l38 14l225 -496l-38 -14z" />
    <glyph glyph-name="bar.allsmall" horiz-adv-x="194" 
d="M120 -76h-46v620h46v-620z" />
    <glyph glyph-name="ampersand.allsmall" horiz-adv-x="532" 
d="M529 37c-23 -36 -58 -50 -87 -50c-39 0 -72 8 -114 40c-27 -24 -65 -40 -115 -40c-87 0 -171 44 -171 138c0 59 43 97 92 129c-25 42 -39 81 -39 118c0 68 62 117 139 117c71 0 122 -43 122 -99c0 -72 -73 -106 -139 -145c34 -47 74 -93 108 -126c11 23 17 89 17 123h129
v-51h-76c-2 -33 -8 -75 -28 -114c39 -35 63 -43 89 -43c16 0 38 9 54 29zM293 390c0 32 -27 51 -59 51c-49 0 -73 -34 -73 -69c0 -31 11 -57 28 -86c54 31 104 59 104 104zM288 63c-36 35 -86 90 -124 147c-29 -22 -49 -48 -49 -85c0 -49 42 -89 104 -89c27 0 53 11 69 27z
" />
    <glyph glyph-name="numbersign.allsmall" horiz-adv-x="357" 
d="M337 373l-10 -48h-56l-18 -99h59l-10 -49h-57l-17 -103h-46l18 103h-76l-19 -103h-45l18 103h-58l8 49h58l16 99h-58l9 48h58l17 103h46l-18 -103h76l18 103h46l-17 -103h58zM225 325h-76l-18 -99h77z" />
    <glyph glyph-name="copyright.allsmall" horiz-adv-x="551" 
d="M527 238c0 -139 -112 -251 -251 -251s-251 112 -251 251s112 251 251 251s251 -112 251 -251zM500 238c0 124 -100 224 -224 224s-224 -100 -224 -224s100 -224 224 -224s224 100 224 224zM394 109c-26 -19 -65 -31 -107 -31c-85 0 -164 61 -164 160s79 160 164 160
c42 0 81 -12 107 -31v-55c-26 20 -54 36 -100 36c-58 0 -106 -42 -106 -110c0 -67 48 -110 106 -110c46 0 76 16 100 36v-55z" />
    <glyph glyph-name="Q.alt" horiz-adv-x="705" 
d="M554 -198c-68 0 -124 34 -167 112l-38 69c-182 2 -315 134 -315 317c0 184 135 317 319 317c183 0 318 -133 318 -317c0 -156 -98 -276 -239 -308l30 -52c36 -61 64 -79 108 -79c34 0 64 15 88 44l30 -36c-24 -32 -61 -67 -134 -67zM353 50c137 0 235 105 235 250
c0 146 -98 250 -235 250c-138 0 -236 -104 -236 -250c0 -145 98 -250 236 -250z" />
    <glyph glyph-name="Q.alt2" horiz-adv-x="705" 
d="M525 -134l-92 126c-25 -6 -52 -9 -80 -9c-184 0 -319 133 -319 317s135 317 319 317c183 0 318 -133 318 -317c0 -128 -65 -231 -166 -282l113 -152h-93zM353 50c137 0 235 105 235 250c0 146 -98 250 -235 250c-138 0 -236 -104 -236 -250c0 -145 98 -250 236 -250z" />
    <glyph glyph-name="a.alt" horiz-adv-x="558" 
d="M262 49c82 0 149 63 149 167s-67 167 -149 167s-149 -63 -149 -167s67 -167 149 -167zM243 -12c-119 0 -206 102 -206 228s87 228 206 228c71 0 134 -35 170 -90l3 78h66v-363c0 -25 9 -36 27 -36c12 0 19 3 26 7v-33c-10 -9 -27 -19 -52 -19c-44 0 -73 24 -76 81
c-36 -50 -97 -81 -164 -81z" />
    <glyph glyph-name="aacute.alt" horiz-adv-x="558" 
d="M262 49c82 0 149 63 149 167s-67 167 -149 167s-149 -63 -149 -167s67 -167 149 -167zM243 -12c-119 0 -206 102 -206 228s87 228 206 228c71 0 134 -35 170 -90l3 78h66v-363c0 -25 9 -36 27 -36c12 0 19 3 26 7v-33c-10 -9 -27 -19 -52 -19c-44 0 -73 24 -76 81
c-36 -50 -97 -81 -164 -81zM201 497l-13 21l135 112l37 -56z" />
    <glyph glyph-name="acircumflex.alt" horiz-adv-x="558" 
d="M262 49c82 0 149 63 149 167s-67 167 -149 167s-149 -63 -149 -167s67 -167 149 -167zM243 -12c-119 0 -206 102 -206 228s87 228 206 228c71 0 134 -35 170 -90l3 78h66v-363c0 -25 9 -36 27 -36c12 0 19 3 26 7v-33c-10 -9 -27 -19 -52 -19c-44 0 -73 24 -76 81
c-36 -50 -97 -81 -164 -81zM169 502l-27 26l119 115l119 -115l-27 -26l-92 76z" />
    <glyph glyph-name="adieresis.alt" horiz-adv-x="558" 
d="M262 49c82 0 149 63 149 167s-67 167 -149 167s-149 -63 -149 -167s67 -167 149 -167zM243 -12c-119 0 -206 102 -206 228s87 228 206 228c71 0 134 -35 170 -90l3 78h66v-363c0 -25 9 -36 27 -36c12 0 19 3 26 7v-33c-10 -9 -27 -19 -52 -19c-44 0 -73 24 -76 81
c-36 -50 -97 -81 -164 -81zM140 507v76h76v-76h-76zM306 507v76h76v-76h-76z" />
    <glyph glyph-name="agrave.alt" horiz-adv-x="558" 
d="M262 49c82 0 149 63 149 167s-67 167 -149 167s-149 -63 -149 -167s67 -167 149 -167zM243 -12c-119 0 -206 102 -206 228s87 228 206 228c71 0 134 -35 170 -90l3 78h66v-363c0 -25 9 -36 27 -36c12 0 19 3 26 7v-33c-10 -9 -27 -19 -52 -19c-44 0 -73 24 -76 81
c-36 -50 -97 -81 -164 -81zM322 497l-159 77l37 56l135 -112z" />
    <glyph glyph-name="aring.alt" horiz-adv-x="558" 
d="M262 49c82 0 149 63 149 167s-67 167 -149 167s-149 -63 -149 -167s67 -167 149 -167zM243 -12c-119 0 -206 102 -206 228s87 228 206 228c71 0 134 -35 170 -90l3 78h66v-363c0 -25 9 -36 27 -36c12 0 19 3 26 7v-33c-10 -9 -27 -19 -52 -19c-44 0 -73 24 -76 81
c-36 -50 -97 -81 -164 -81zM261 502c-51 0 -91 39 -91 90s40 91 91 91s91 -40 91 -91s-40 -90 -91 -90zM261 541c29 0 52 22 52 51s-23 52 -52 52s-52 -23 -52 -52s23 -51 52 -51z" />
    <glyph glyph-name="atilde.alt" horiz-adv-x="558" 
d="M262 49c82 0 149 63 149 167s-67 167 -149 167s-149 -63 -149 -167s67 -167 149 -167zM243 -12c-119 0 -206 102 -206 228s87 228 206 228c71 0 134 -35 170 -90l3 78h66v-363c0 -25 9 -36 27 -36c12 0 19 3 26 7v-33c-10 -9 -27 -19 -52 -19c-44 0 -73 24 -76 81
c-36 -50 -97 -81 -164 -81zM317 506c-42 0 -84 49 -117 49c-23 0 -30 -15 -33 -45h-31c0 63 26 94 68 94s84 -49 117 -49c23 0 30 15 33 45h31c0 -63 -26 -94 -68 -94z" />
    <glyph glyph-name="d.alt" horiz-adv-x="558" 
d="M262 49c82 0 149 63 149 167s-67 167 -149 167s-149 -63 -149 -167s67 -167 149 -167zM243 -12c-119 0 -206 102 -206 228s87 228 206 228c67 0 127 -31 163 -80v236h76v-531c0 -25 9 -36 27 -36c12 0 19 3 26 7v-33c-10 -9 -27 -19 -52 -19c-44 0 -73 24 -76 81
c-35 -48 -96 -81 -164 -81z" />
    <glyph glyph-name="t.alt" horiz-adv-x="305" 
d="M184 -12c-70 0 -101 45 -101 141v251h-66v52h66v113h76v-113h109v-52h-109v-259c0 -50 12 -73 50 -73c32 0 51 9 76 25v-46c-23 -20 -58 -39 -101 -39z" />
    <glyph glyph-name="u.alt" horiz-adv-x="532" 
d="M217 -12c-115 0 -156 80 -156 187v257h76v-250c0 -97 38 -129 101 -129c62 0 142 54 142 124v255h76v-363c0 -25 9 -36 27 -36c12 0 19 3 26 7v-33c-14 -12 -30 -19 -52 -19c-41 0 -77 21 -77 87c-36 -47 -91 -87 -163 -87z" />
    <glyph glyph-name="uacute.alt" horiz-adv-x="532" 
d="M217 -12c-115 0 -156 80 -156 187v257h76v-250c0 -97 38 -129 101 -129c62 0 142 54 142 124v255h76v-363c0 -25 9 -36 27 -36c12 0 19 3 26 7v-33c-14 -12 -30 -19 -52 -19c-41 0 -77 21 -77 87c-36 -47 -91 -87 -163 -87zM208 497l-13 21l135 112l37 -56z" />
    <glyph glyph-name="ucircumflex.alt" horiz-adv-x="532" 
d="M217 -12c-115 0 -156 80 -156 187v257h76v-250c0 -97 38 -129 101 -129c62 0 142 54 142 124v255h76v-363c0 -25 9 -36 27 -36c12 0 19 3 26 7v-33c-14 -12 -30 -19 -52 -19c-41 0 -77 21 -77 87c-36 -47 -91 -87 -163 -87zM166 502l-27 26l119 115l119 -115l-27 -26
l-92 76z" />
    <glyph glyph-name="udieresis.alt" horiz-adv-x="532" 
d="M217 -12c-115 0 -156 80 -156 187v257h76v-250c0 -97 38 -129 101 -129c62 0 142 54 142 124v255h76v-363c0 -25 9 -36 27 -36c12 0 19 3 26 7v-33c-14 -12 -30 -19 -52 -19c-41 0 -77 21 -77 87c-36 -47 -91 -87 -163 -87zM137 507v76h76v-76h-76zM303 507v76h76v-76
h-76z" />
    <glyph glyph-name="ugrave.alt" horiz-adv-x="532" 
d="M217 -12c-115 0 -156 80 -156 187v257h76v-250c0 -97 38 -129 101 -129c62 0 142 54 142 124v255h76v-363c0 -25 9 -36 27 -36c12 0 19 3 26 7v-33c-14 -12 -30 -19 -52 -19c-41 0 -77 21 -77 87c-36 -47 -91 -87 -163 -87zM299 497l-159 77l37 56l135 -112z" />
    <glyph glyph-name="y.alt" horiz-adv-x="518" 
d="M246 -199c-59 0 -120 22 -168 50v68c66 -40 107 -56 177 -56c76 0 125 45 125 172v39c-37 -47 -93 -86 -163 -86c-115 0 -156 80 -156 187v257h76v-250c0 -97 38 -129 101 -129c62 0 142 54 142 124v255h76v-394c0 -200 -105 -237 -210 -237z" />
    <glyph glyph-name="yacute.alt" horiz-adv-x="518" 
d="M246 -199c-59 0 -120 22 -168 50v68c66 -40 107 -56 177 -56c76 0 125 45 125 172v39c-37 -47 -93 -86 -163 -86c-115 0 -156 80 -156 187v257h76v-250c0 -97 38 -129 101 -129c62 0 142 54 142 124v255h76v-394c0 -200 -105 -237 -210 -237zM226 497l-13 21l135 112
l37 -56z" />
    <glyph glyph-name="ydieresis.alt" horiz-adv-x="518" 
d="M246 -199c-59 0 -120 22 -168 50v68c66 -40 107 -56 177 -56c76 0 125 45 125 172v39c-37 -47 -93 -86 -163 -86c-115 0 -156 80 -156 187v257h76v-250c0 -97 38 -129 101 -129c62 0 142 54 142 124v255h76v-394c0 -200 -105 -237 -210 -237zM137 507v76h79v-76h-79z
M303 507v76h79v-76h-79z" />
    <glyph glyph-name="mu.alt" horiz-adv-x="532" 
d="M61 -195v627h76v-250c0 -97 38 -129 101 -129c62 0 142 54 142 124v255h76v-356c0 -25 9 -36 27 -36c12 0 19 3 26 7v-33c-14 -12 -30 -19 -52 -19c-41 0 -72 20 -76 81c-37 -48 -92 -88 -164 -88c-32 0 -59 6 -80 18v-201h-76z" />
    <glyph glyph-name="ordfeminine.alt" horiz-adv-x="452" 
d="M214 314c49 0 111 37 111 123c0 88 -62 124 -111 124c-54 0 -108 -42 -108 -124c0 -81 54 -123 108 -123zM197 262c-87 0 -159 72 -159 176c0 103 72 176 159 176c43 0 100 -19 128 -62l4 46h60v-257c0 -24 8 -32 22 -32c10 0 20 3 27 5v-27c-12 -12 -29 -20 -50 -20
c-35 0 -59 18 -65 54c-29 -41 -82 -59 -126 -59z" />
    <glyph glyph-name="nbspace" unicode="&#xa0;" horiz-adv-x="193" 
 />
    <glyph glyph-name="onethird" unicode="&#x2153;" horiz-adv-x="640" 
d="M485 -9c-42 0 -73 15 -96 33v58c26 -25 56 -41 90 -41c36 0 58 23 58 62c0 34 -18 55 -52 55c-19 0 -34 -8 -43 -17l-25 29l99 94h-126v56h212v-34l-87 -82c48 -6 89 -44 89 -103c0 -67 -49 -110 -119 -110zM116 -18l-36 18l383 618l36 -18zM92 280v268h-33v41l99 18
v-327h-66z" />
    <glyph glyph-name="twothirds" unicode="&#x2154;" horiz-adv-x="695" 
d="M37 280v34l77 82c30 32 59 66 59 109c0 38 -25 51 -47 51c-25 0 -51 -11 -81 -36v57c20 16 57 32 92 32c61 0 104 -37 104 -98c0 -54 -38 -96 -63 -120l-59 -55h129v-56h-211zM540 -9c-42 0 -73 15 -96 33v58c26 -25 56 -41 90 -41c36 0 58 23 58 62c0 34 -18 55 -52 55
c-19 0 -34 -8 -43 -17l-25 29l99 94h-126v56h212v-34l-87 -82c48 -6 89 -44 89 -103c0 -67 -49 -110 -119 -110zM171 -18l-36 18l383 618l36 -18z" />
    <glyph glyph-name="oneeighth" unicode="&#x215b;" horiz-adv-x="650" 
d="M116 -18l-36 18l383 618l36 -18zM92 280v268h-33v41l99 18v-327h-66zM612 87c0 -58 -54 -96 -122 -96c-69 0 -123 38 -123 96c0 45 30 77 71 91c-34 14 -52 41 -52 72c0 47 48 80 104 80c54 0 103 -33 103 -80c0 -31 -18 -58 -52 -72c41 -14 71 -46 71 -91zM533 244
c0 27 -16 44 -43 44c-28 0 -45 -17 -45 -44c0 -23 17 -45 45 -45c27 0 43 22 43 45zM490 152c-36 0 -58 -24 -58 -59c0 -34 22 -58 58 -58c35 0 57 24 57 58c0 35 -22 59 -57 59z" />
    <glyph glyph-name="threeeighths" unicode="&#x215c;" horiz-adv-x="705" 
d="M176 -18l-36 18l383 618l36 -18zM158 271c-42 0 -73 15 -96 33v58c26 -25 56 -41 90 -41c36 0 58 23 58 62c0 34 -18 55 -52 55c-19 0 -34 -8 -43 -17l-25 29l99 94h-126v56h212v-34l-87 -82c48 -6 89 -44 89 -103c0 -67 -49 -110 -119 -110zM667 87
c0 -58 -54 -96 -122 -96c-69 0 -123 38 -123 96c0 45 30 77 71 91c-34 14 -52 41 -52 72c0 47 48 80 104 80c54 0 103 -33 103 -80c0 -31 -18 -58 -52 -72c41 -14 71 -46 71 -91zM588 244c0 27 -16 44 -43 44c-28 0 -45 -17 -45 -44c0 -23 17 -45 45 -45c27 0 43 22 43 45z
M545 152c-36 0 -58 -24 -58 -59c0 -34 22 -58 58 -58c35 0 57 24 57 58c0 35 -22 59 -57 59z" />
    <glyph glyph-name="fiveeighths" unicode="&#x215d;" horiz-adv-x="671" 
d="M132 271c-42 0 -73 15 -96 33v58c26 -25 56 -41 90 -41c36 0 58 26 58 63c0 33 -19 55 -52 55c-23 0 -43 -12 -54 -31l-30 15v177h190v-56h-137v-71c10 9 28 15 46 15c58 0 104 -44 104 -105c0 -67 -49 -112 -119 -112zM147 -18l-36 18l383 618l36 -18zM633 87
c0 -58 -54 -96 -122 -96c-69 0 -123 38 -123 96c0 45 30 77 71 91c-34 14 -52 41 -52 72c0 47 48 80 104 80c54 0 103 -33 103 -80c0 -31 -18 -58 -52 -72c41 -14 71 -46 71 -91zM554 244c0 27 -16 44 -43 44c-28 0 -45 -17 -45 -44c0 -23 17 -45 45 -45c27 0 43 22 43 45z
M511 152c-36 0 -58 -24 -58 -59c0 -34 22 -58 58 -58c35 0 57 24 57 58c0 35 -22 59 -57 59z" />
    <glyph glyph-name="seveneighths" unicode="&#x215e;" horiz-adv-x="625" 
d="M60 280c20 100 99 239 117 264h-153v56h223v-32c-26 -39 -101 -187 -117 -288h-70zM91 -18l-36 18l383 618l36 -18zM587 87c0 -58 -54 -96 -122 -96c-69 0 -123 38 -123 96c0 45 30 77 71 91c-34 14 -52 41 -52 72c0 47 48 80 104 80c54 0 103 -33 103 -80
c0 -31 -18 -58 -52 -72c41 -14 71 -46 71 -91zM508 244c0 27 -16 44 -43 44c-28 0 -45 -17 -45 -44c0 -23 17 -45 45 -45c27 0 43 22 43 45zM465 152c-36 0 -58 -24 -58 -59c0 -34 22 -58 58 -58c35 0 57 24 57 58c0 35 -22 59 -57 59z" />
    </font>
</defs>
</svg>
