<?xml version="1.0" standalone="no"?>
<!DOCTYPE svg PUBLIC "-//W3C//DTD SVG 1.1//EN" "http://www.w3.org/Graphics/SVG/1.1/DTD/svg11.dtd" >
<svg xmlns="http://www.w3.org/2000/svg" xmlns:xlink="http://www.w3.org/1999/xlink" version="1.1">
<metadata>
Created by FontForge 20161116 at Fri Jan 27 11:56:02 2012
 By Jimmy Wärting
Mr Eaves is the sans-serif companion to Mrs Eaves.
</metadata>
<defs>
<font id="MrEavesXLModOT-RegItalic" horiz-adv-x="501" >
  <font-face 
    font-family="MrEavesXLModOT"
    font-weight="400"
    font-style="italic"
    font-stretch="normal"
    units-per-em="1000"
    panose-1="2 11 6 3 6 5 2 9 2 4"
    ascent="800"
    descent="-200"
    x-height="432"
    cap-height="600"
    bbox="-137 -233.546 917.834 836"
    underline-thickness="30"
    underline-position="-100"
    slope="-12"
    stemh="65"
    stemv="73"
    unicode-range="U+0020-FB02"
  />
<missing-glyph horiz-adv-x="500" 
 />
    <glyph glyph-name="fi" unicode="fi" horiz-adv-x="449" 
d="M370 519l14 81h72l-14 -81h-72zM278 0l76 432h72l-76 -432h-72zM33 0l68 384h-79l8 48h79l4 22c23 128 95 160 172 160c12 0 31 -4 41 -7l-10 -50c-8 2 -16 4 -27 4c-51 0 -89 -20 -104 -106l-4 -23h114l-8 -48h-114l-68 -384h-72z" />
    <glyph glyph-name="fl" unicode="fl" horiz-adv-x="447" 
d="M33 0l68 384h-79l8 48h79l1 6c22 129 95 176 189 176c32 0 56 -9 83 -17l72 13l-106 -610h-72l95 545c-24 10 -54 17 -75 17c-57 0 -95 -22 -112 -114l-3 -16h114l-8 -48h-114l-68 -384h-72z" />
    <glyph glyph-name=".notdef" horiz-adv-x="500" 
 />
    <glyph glyph-name="Eth" unicode="&#xd0;" horiz-adv-x="582" 
d="M24 0l49 276h-57l10 51h56l48 273h168c224 0 291 -145 262 -310s-137 -290 -358 -290h-178zM110 66h98c182 0 254 114 275 234s-10 234 -192 234h-98l-37 -207h122l-10 -51h-121z" />
    <glyph glyph-name="eth" unicode="&#xf0;" horiz-adv-x="512" 
d="M237 44c83 0 147 59 165 159c20 114 -42 185 -129 185c-81 0 -148 -63 -165 -160c-20 -114 43 -184 129 -184zM230 -12c-136 0 -217 115 -195 240c22 127 121 216 245 216c27 0 56 -7 76 -17c-23 29 -58 70 -84 93l-101 -52l-15 34l87 45c-23 20 -41 33 -63 46l41 29
c23 -14 48 -29 73 -49l92 48l15 -34l-76 -39c93 -87 177 -203 150 -345c-24 -127 -121 -215 -245 -215z" />
    <glyph glyph-name="Lslash" unicode="&#x141;" horiz-adv-x="409" 
d="M24 0l45 253l-51 -33l-20 37l81 53l51 290h75l-41 -234l75 50l21 -37l-106 -70l-43 -245h262l-12 -64h-337z" />
    <glyph glyph-name="lslash" unicode="&#x142;" horiz-adv-x="196" 
d="M151 314l-55 -314h-72l46 261l-56 -36l-19 36l84 55l50 284h72l-40 -230l52 34l20 -36z" />
    <glyph glyph-name="Scaron" unicode="&#x160;" horiz-adv-x="442" 
d="M183 -14c-91 0 -152 46 -177 80l25 69c27 -34 71 -87 162 -87c69 0 124 43 133 108c8 61 -17 101 -117 131c-101 30 -141 98 -129 180c12 83 91 147 196 147c59 0 120 -28 148 -60l-23 -58c-32 29 -71 56 -137 56c-56 0 -104 -31 -112 -87c-7 -48 12 -89 94 -113
c116 -34 165 -103 152 -193c-18 -126 -114 -173 -215 -173zM289 668l-95 110l27 25l76 -73l101 73l24 -25z" />
    <glyph glyph-name="scaron" unicode="&#x161;" horiz-adv-x="343" 
d="M143 -12c-77 0 -127 34 -144 48l18 53c19 -16 60 -46 128 -46c46 0 86 21 93 60c6 31 -3 70 -80 92c-87 25 -115 80 -104 141s67 107 150 107c59 0 109 -26 127 -38l-19 -50c-25 16 -58 34 -108 34c-49 0 -79 -26 -84 -54c-5 -27 0 -58 75 -80c85 -25 119 -81 109 -144
c-14 -89 -83 -123 -161 -123zM206 501l-95 110l27 25l76 -73l101 73l24 -25z" />
    <glyph glyph-name="Yacute" unicode="&#xdd;" horiz-adv-x="510" 
d="M179 0l42 240l-155 360h79l125 -295l228 295h80l-283 -360l-42 -240h-74zM294 663l-13 21l135 112l37 -56z" />
    <glyph glyph-name="yacute" unicode="&#xfd;" horiz-adv-x="417" 
d="M76 -195h-77l123 204l-97 423h74l76 -349l202 349h77zM210 496l-13 21l135 112l37 -56z" />
    <glyph glyph-name="Thorn" unicode="&#xde;" horiz-adv-x="443" 
d="M24 0l106 600h75l-19 -110h104c127 0 172 -96 155 -193s-82 -169 -209 -169h-114l-23 -128h-75zM133 191h104c87 0 125 61 135 116s-11 119 -94 119h-103z" />
    <glyph glyph-name="thorn" unicode="&#xfe;" horiz-adv-x="502" 
d="M232 47c70 0 145 65 163 169s-33 169 -103 169s-145 -65 -163 -169s33 -169 103 -169zM129 600h72l-39 -223c36 39 91 63 145 63c122 0 180 -106 160 -229c-21 -128 -124 -219 -237 -219c-57 0 -109 31 -124 69l-45 -256h-72z" />
    <glyph glyph-name="Zcaron" unicode="&#x17d;" horiz-adv-x="454" 
d="M308 668l-95 110l27 25l76 -73l101 73l24 -25zM-4 0l8 46l377 490h-291l12 64h384l-8 -46l-377 -490h291l-12 -64h-384z" />
    <glyph glyph-name="zcaron" unicode="&#x17e;" horiz-adv-x="400" 
d="M238 501l-95 110l27 25l76 -73l101 73l24 -25zM-4 0l8 46l291 338h-231l9 48h319l-8 -46l-291 -337h256l-10 -49h-343z" />
    <glyph glyph-name="DLE" horiz-adv-x="447" 
d="M50 99l-29 37l92 78c-13 22 -19 50 -16 79c3 31 17 59 36 82l-58 71l39 33l59 -72c24 14 51 22 79 22c31 0 58 -11 80 -29l93 79l31 -36l-94 -80c12 -22 18 -50 15 -78c-3 -31 -17 -59 -37 -82l60 -72l-39 -32l-60 72c-23 -13 -51 -21 -79 -21c-30 0 -58 10 -79 28z
M227 195c52 0 98 42 103 94s-31 95 -83 95s-98 -43 -103 -95s31 -94 83 -94z" />
    <glyph glyph-name="onehalf" unicode="&#xbd;" horiz-adv-x="594" 
d="M55 -18l-31 18l471 618l32 -18zM294 0l6 34l91 82c36 32 68 66 76 109c7 37 -16 51 -38 51c-25 0 -53 -11 -88 -36l10 57c23 16 60 32 95 32c61 0 97 -37 87 -98c-9 -54 -51 -96 -81 -120l-66 -55h129l-10 -56h-211zM100 280l48 268h-33l7 41l99 18l-58 -327h-63z" />
    <glyph glyph-name="onequarter" unicode="&#xbc;" horiz-adv-x="601" 
d="M394 0l14 79h-146l6 32l194 213h52l-35 -197h59l-8 -48h-59l-14 -79h-63zM332 127h84l20 109zM67 -18l-31 18l471 618l32 -18zM100 280l48 268h-33l7 41l99 18l-58 -327h-63z" />
    <glyph glyph-name="onesuperior" unicode="&#xb9;" horiz-adv-x="194" 
d="M81 280l48 268h-33l7 41l99 18l-58 -327h-63z" />
    <glyph glyph-name="threequarters" unicode="&#xbe;" horiz-adv-x="653" 
d="M166 271c-42 0 -74 16 -93 34l10 55c21 -25 49 -39 83 -39c36 0 62 23 69 62c6 34 -12 55 -46 55c-19 0 -35 -8 -46 -17l-20 29l113 94h-123l10 56h209l-6 -34l-99 -82c47 -6 82 -44 71 -103c-12 -67 -62 -110 -132 -110zM450 0l14 79h-146l6 32l194 213h52l-35 -197h59
l-8 -48h-59l-14 -79h-63zM388 127h84l20 109zM132 -18l-31 18l471 618l32 -18z" />
    <glyph glyph-name="threesuperior" unicode="&#xb3;" horiz-adv-x="283" 
d="M148 271c-42 0 -74 16 -93 34l10 55c21 -25 49 -39 83 -39c36 0 62 23 69 62c6 34 -12 55 -46 55c-19 0 -35 -8 -46 -17l-20 29l113 94h-123l10 56h209l-6 -34l-99 -82c47 -6 82 -44 71 -103c-12 -67 -62 -110 -132 -110z" />
    <glyph glyph-name="twosuperior" unicode="&#xb2;" horiz-adv-x="270" 
d="M41 280l6 34l91 82c36 32 68 66 76 109c7 37 -16 51 -38 51c-25 0 -53 -11 -88 -36l10 57c23 16 60 32 95 32c61 0 97 -37 87 -98c-9 -54 -51 -96 -81 -120l-66 -55h129l-10 -56h-211z" />
    <glyph glyph-name="brokenbar" unicode="&#xa6;" horiz-adv-x="208" 
d="M106 349l59 337h48l-59 -337h-48zM27 -96l59 337h48l-59 -337h-48z" />
    <glyph glyph-name="minus" unicode="&#x2212;" horiz-adv-x="407" 
d="M73 262l10 54h282l-10 -54h-282z" />
    <glyph glyph-name="multiply" unicode="&#xd7;" horiz-adv-x="407" 
d="M309 135l-96 118l-138 -117l-31 37l138 117l-97 117l41 35l96 -117l137 116l32 -37l-137 -116l97 -118z" />
    <glyph glyph-name="space" unicode=" " horiz-adv-x="152" 
 />
    <glyph glyph-name="exclam" unicode="!" horiz-adv-x="218" 
d="M79 160l54 440h93l-103 -440h-44zM30 0l16 88h88l-16 -88h-88z" />
    <glyph glyph-name="quotedbl" unicode="&#x22;" horiz-adv-x="374" 
d="M285 392l2 208h98l-72 -208h-28zM118 392l2 208h98l-72 -208h-28z" />
    <glyph glyph-name="numbersign" unicode="#" horiz-adv-x="402" 
d="M54 94l37 134h-73l16 53h72l36 133h-73l16 53h72l37 133h52l-36 -133h97l37 133h52l-36 -133h73l-17 -53h-71l-37 -133h74l-17 -53h-72l-37 -134h-52l37 134h-98l-37 -134h-52zM158 281h98l36 133h-97z" />
    <glyph glyph-name="dollar" unicode="$" horiz-adv-x="442" 
d="M151 -83l14 80c-73 8 -122 46 -143 76l24 66c23 -30 60 -73 130 -82l41 231c-97 29 -136 94 -124 173c12 77 83 140 179 144l14 78h45l-14 -81c44 -8 85 -30 106 -55l-22 -56c-25 22 -53 43 -95 51l-35 -198c98 -34 138 -98 127 -179c-16 -113 -98 -163 -188 -168
l-14 -80h-45zM221 57c57 8 100 49 108 105c8 49 -9 84 -70 111zM229 358l33 187c-51 -3 -92 -35 -100 -86c-6 -41 7 -77 67 -101z" />
    <glyph glyph-name="percent" unicode="%" horiz-adv-x="654" 
d="M111 -18l-33 18l492 618l33 -18zM191 315c-74 0 -123 63 -111 150c12 86 77 149 151 149c75 0 124 -63 112 -149c-12 -87 -77 -150 -152 -150zM197 366c36 0 75 31 85 99c10 67 -21 98 -57 98c-37 0 -74 -31 -84 -98c-10 -68 19 -99 56 -99zM448 -12
c-74 0 -123 63 -111 150c12 86 78 149 152 149c75 0 123 -63 111 -149c-12 -87 -77 -150 -152 -150zM454 39c36 0 75 31 85 99c10 67 -21 98 -57 98c-37 0 -74 -31 -84 -98c-10 -68 19 -99 56 -99z" />
    <glyph glyph-name="ampersand" unicode="&#x26;" horiz-adv-x="650" 
d="M232 354c80 42 154 81 161 143c4 42 -32 71 -77 71c-65 0 -105 -50 -110 -94c-5 -42 6 -80 26 -120zM242 37c39 0 74 16 101 40c-41 46 -102 125 -146 198c-46 -31 -81 -68 -87 -120c-7 -65 49 -118 132 -118zM228 -17c-105 0 -205 55 -192 175c8 74 67 122 135 163
c-27 54 -41 106 -36 152c9 83 92 144 187 144c87 0 145 -52 138 -120c-10 -94 -111 -138 -202 -186c39 -64 95 -134 131 -177c23 43 36 119 43 167h153l-5 -49h-96c-7 -46 -27 -125 -56 -160c48 -48 79 -59 117 -59c19 0 49 10 71 35l15 -27c-31 -41 -73 -58 -108 -58
c-52 0 -92 11 -141 55c-38 -33 -88 -55 -154 -55z" />
    <glyph glyph-name="quotesingle" unicode="'" horiz-adv-x="207" 
d="M118 392l2 208h98l-72 -208h-28z" />
    <glyph glyph-name="parenleft" unicode="(" horiz-adv-x="295" 
d="M208 -111c-108 104 -158 236 -128 406s126 302 271 406l20 -21c-67 -62 -193 -195 -227 -385s44 -323 89 -385z" />
    <glyph glyph-name="parenright" unicode=")" horiz-adv-x="295" 
d="M-23 -111l-20 21c67 62 195 195 228 385s-45 323 -90 385l27 21c107 -104 156 -236 126 -406s-125 -302 -271 -406z" />
    <glyph glyph-name="asterisk" unicode="*" horiz-adv-x="359" 
d="M198 257c-24 0 -42 23 -39 48c3 24 37 43 47 117c-66 -41 -70 -80 -91 -92c-24 -13 -52 -4 -62 18s2 49 24 61s53 -5 123 28c-63 34 -99 16 -117 28c-20 13 -27 40 -12 61s46 31 66 18c18 -12 15 -51 73 -92c4 74 -26 93 -23 117c3 25 25 48 49 48c25 0 45 -23 42 -48
c-3 -24 -38 -43 -50 -118c67 42 72 79 93 91c23 13 50 6 61 -16c10 -20 -2 -50 -23 -62c-23 -13 -54 6 -124 -27c64 -33 100 -14 118 -26c20 -13 26 -43 11 -63c-17 -22 -44 -29 -65 -16c-18 11 -16 49 -74 91c-3 -75 28 -94 25 -118c-3 -25 -27 -48 -52 -48z" />
    <glyph glyph-name="plus" unicode="+" horiz-adv-x="407" 
d="M160 110l27 152h-143l10 54h143l27 152h54l-27 -152h142l-10 -54h-142l-27 -152h-54z" />
    <glyph glyph-name="comma" unicode="," horiz-adv-x="220" 
d="M10 -127l-11 25c37 19 61 63 68 102h-43l16 92h92l-14 -81c-12 -68 -53 -122 -108 -138z" />
    <glyph glyph-name="hyphen" unicode="-" horiz-adv-x="279" 
d="M43 222l10 56h199l-10 -56h-199z" />
    <glyph glyph-name="period" unicode="." horiz-adv-x="220" 
d="M24 0l16 92h92l-16 -92h-92z" />
    <glyph glyph-name="slash" unicode="/" horiz-adv-x="303" 
d="M-5 -18l-36 14l383 622l36 -14z" />
    <glyph glyph-name="zero" unicode="0" horiz-adv-x="542" 
d="M235 -14c-133 0 -211 127 -178 316c33 188 151 315 279 315c134 0 210 -127 177 -315c-33 -189 -149 -316 -278 -316zM240 50c85 0 173 95 200 252c27 156 -20 251 -110 251c-85 0 -173 -95 -200 -251c-27 -157 20 -252 110 -252z" />
    <glyph glyph-name="one" unicode="1" horiz-adv-x="267" 
d="M59 0l93 526h-64l9 49l141 37l-108 -612h-71z" />
    <glyph glyph-name="two" unicode="2" horiz-adv-x="440" 
d="M-8 0l10 59l202 173c67 57 127 116 138 197c12 86 -32 124 -96 124c-52 0 -104 -22 -165 -68l12 75c35 26 103 57 164 57c110 0 177 -70 162 -182c-14 -104 -82 -172 -144 -222l-185 -149h279l-11 -64h-366z" />
    <glyph glyph-name="three" unicode="3" horiz-adv-x="467" 
d="M180 -14c-68 0 -128 26 -160 59l11 76c34 -40 78 -72 156 -72c89 0 146 55 159 141c11 74 -26 131 -104 131c-39 0 -78 -14 -106 -39l-27 39l254 215h-266l11 64h371l-8 -44l-212 -179c97 -3 179 -72 162 -188c-18 -124 -113 -203 -241 -203z" />
    <glyph glyph-name="four" unicode="4" horiz-adv-x="489" 
d="M248 0l27 156h-258l9 50l359 405h42l-71 -398h109l-10 -57h-109l-27 -156h-71zM101 213h184l47 261z" />
    <glyph glyph-name="five" unicode="5" horiz-adv-x="459" 
d="M176 -14c-68 0 -128 26 -160 59l11 76c34 -40 78 -72 156 -72c85 0 153 62 165 147c10 74 -26 138 -108 138c-57 0 -99 -27 -134 -82l-34 15l59 333h336l-11 -64h-273l-33 -183c36 30 73 40 110 40c102 0 177 -75 159 -197c-18 -125 -116 -210 -243 -210z" />
    <glyph glyph-name="six" unicode="6" 
d="M240 -14c-89 0 -217 57 -185 283c32 227 147 348 316 348c53 0 101 -18 122 -38l-12 -69c-28 26 -71 41 -120 41c-101 0 -195 -67 -228 -244c46 55 97 77 163 77c104 0 175 -93 159 -207c-16 -113 -103 -191 -215 -191zM237 43c79 0 137 55 146 138
c9 82 -28 141 -112 141c-64 0 -140 -53 -148 -124c-11 -104 52 -155 114 -155z" />
    <glyph glyph-name="seven" unicode="7" horiz-adv-x="414" 
d="M52 0c72 187 265 490 305 536h-287l11 64h372l-8 -47c-70 -75 -245 -364 -309 -553h-84z" />
    <glyph glyph-name="eight" unicode="8" horiz-adv-x="502" 
d="M218 -14c-106 0 -184 68 -184 161c0 95 70 172 165 192c-43 22 -74 63 -74 116c0 96 88 162 188 162c87 0 155 -55 155 -130c0 -66 -47 -130 -127 -152c66 -29 105 -76 105 -151c0 -117 -90 -198 -228 -198zM197 454c0 -52 38 -89 88 -89c59 0 111 49 111 115
c0 52 -36 83 -88 83c-64 0 -111 -43 -111 -109zM234 43c72 0 140 54 140 140c0 68 -53 113 -128 113c-67 0 -140 -54 -140 -140c0 -69 53 -113 128 -113z" />
    <glyph glyph-name="nine" unicode="9" 
d="M286 617c89 0 217 -57 185 -283c-32 -227 -147 -348 -316 -348c-53 0 -101 18 -122 38l12 69c28 -26 71 -41 120 -41c101 0 195 67 228 244c-46 -55 -97 -77 -163 -77c-104 0 -175 93 -159 207c16 113 103 191 215 191zM289 560c-79 0 -137 -55 -146 -138
c-9 -82 28 -141 112 -141c64 0 141 55 148 124c11 104 -52 155 -114 155z" />
    <glyph glyph-name="colon" unicode=":" horiz-adv-x="220" 
d="M26 0l16 88h88l-16 -88h-88zM84 334l16 88h88l-16 -88h-88z" />
    <glyph glyph-name="semicolon" unicode=";" horiz-adv-x="220" 
d="M12 -127l-11 25c37 19 57 63 64 102h-39l16 88h88l-14 -77c-12 -68 -49 -122 -104 -138zM84 334l16 88h88l-16 -88h-88z" />
    <glyph glyph-name="less" unicode="&#x3c;" horiz-adv-x="412" 
d="M315 72l-252 218l328 217l20 -41l-259 -179l196 -179z" />
    <glyph glyph-name="equal" unicode="=" horiz-adv-x="407" 
d="M86 326l10 54h277l-10 -54h-277zM64 200l10 54h277l-10 -54h-277z" />
    <glyph glyph-name="greater" unicode="&#x3e;" horiz-adv-x="412" 
d="M48 72l-20 41l259 179l-196 179l33 36l252 -218z" />
    <glyph glyph-name="question" unicode="?" horiz-adv-x="410" 
d="M123 160l22 122l58 26c110 49 150 95 155 151c6 65 -43 95 -113 95c-56 0 -138 -32 -184 -76l9 76c41 35 120 63 188 63c101 0 190 -49 178 -155c-10 -89 -85 -150 -178 -190l-58 -25l-16 -87h-61zM81 0l16 92h92l-16 -92h-92z" />
    <glyph glyph-name="at" unicode="@" horiz-adv-x="680" 
d="M315 66c37 0 84 39 99 93l43 157c-8 11 -26 25 -59 25c-58 0 -106 -61 -129 -141s-11 -134 46 -134zM318 -128c-179 0 -309 132 -291 306c20 193 196 351 389 351c157 0 268 -105 251 -263c-14 -131 -128 -246 -212 -246c-38 0 -58 26 -60 51c-26 -30 -74 -55 -105 -55
c-84 0 -114 84 -85 184c29 101 113 183 204 183c27 0 43 -5 63 -17h56l-69 -245c-12 -43 -3 -60 26 -60c50 0 134 91 145 203c14 138 -82 221 -204 221c-166 0 -317 -142 -333 -304c-17 -168 82 -270 237 -270c79 0 149 24 219 64l8 -23c-86 -57 -167 -80 -239 -80z" />
    <glyph glyph-name="A" unicode="A" horiz-adv-x="538" 
d="M-34 0l346 600h48l134 -600h-74l-37 168h-246l-97 -168h-74zM173 233h196l-54 247z" />
    <glyph glyph-name="B" unicode="B" horiz-adv-x="473" 
d="M24 0l106 600h169c113 0 164 -71 149 -157c-8 -46 -43 -93 -83 -119c52 -24 81 -90 70 -153c-17 -97 -81 -171 -208 -171h-203zM110 64h118c84 0 124 52 134 107s-16 116 -100 116h-113zM161 350h104c69 0 104 47 112 93s-10 93 -79 93h-104z" />
    <glyph glyph-name="C" unicode="C" horiz-adv-x="552" 
d="M296 -13c-151 0 -273 129 -246 323s170 303 331 303c71 0 143 -25 185 -63l-13 -76c-40 42 -96 74 -183 74c-118 0 -222 -88 -243 -238c-21 -149 61 -258 179 -258c87 0 148 34 201 78l-13 -80c-53 -38 -127 -63 -198 -63z" />
    <glyph glyph-name="D" unicode="D" horiz-adv-x="582" 
d="M24 0l106 600h168c224 0 291 -145 262 -310s-137 -290 -358 -290h-178zM110 66h98c182 0 254 114 275 234s-10 234 -192 234h-98z" />
    <glyph glyph-name="E" unicode="E" horiz-adv-x="445" 
d="M24 0l106 600h337l-12 -64h-262l-32 -188h216l-12 -63h-216l-38 -221h262l-12 -64h-337z" />
    <glyph glyph-name="F" unicode="F" horiz-adv-x="408" 
d="M24 0l106 600h337l-12 -64h-262l-32 -188h216l-12 -63h-216l-50 -285h-75z" />
    <glyph glyph-name="G" unicode="G" horiz-adv-x="612" 
d="M306 -17c-161 0 -283 133 -256 327s170 307 341 307c71 0 143 -25 185 -63l-13 -76c-42 43 -96 74 -183 74c-128 0 -232 -92 -253 -242c-21 -149 61 -261 189 -261c55 0 93 12 135 35l24 137h-115l12 67h189l-43 -242c-33 -14 -108 -63 -212 -63z" />
    <glyph glyph-name="H" unicode="H" horiz-adv-x="582" 
d="M24 0l106 600h75l-44 -252h306l44 252h75l-106 -600h-75l50 285h-306l-50 -285h-75z" />
    <glyph glyph-name="I" unicode="I" horiz-adv-x="201" 
d="M24 0l106 600h75l-106 -600h-75z" />
    <glyph glyph-name="J" unicode="J" horiz-adv-x="200" 
d="M-49 -198c-38 0 -62 19 -69 30l8 57c10 -12 36 -26 55 -26c39 0 58 19 70 85l115 652h75l-117 -661c-14 -78 -56 -137 -137 -137z" />
    <glyph glyph-name="K" unicode="K" horiz-adv-x="500" 
d="M24 0l106 600h75l-50 -284l308 284h90l-323 -293l244 -307h-91l-232 295l-52 -295h-75z" />
    <glyph glyph-name="L" unicode="L" horiz-adv-x="409" 
d="M24 0l106 600h75l-94 -536h262l-12 -64h-337z" />
    <glyph glyph-name="M" unicode="M" horiz-adv-x="698" 
d="M24 0l106 600h67l128 -498l304 498h73l-106 -600h-72l72 408l10 51c-2 -5 -19 -37 -27 -51l-246 -408h-50l-101 407c-4 15 -10 53 -10 53s-6 -39 -8 -53l-72 -407h-68z" />
    <glyph glyph-name="N" unicode="N" horiz-adv-x="568" 
d="M24 0l106 600h42l251 -454l80 454h69l-106 -600h-43l-251 454l-80 -454h-68z" />
    <glyph glyph-name="O" unicode="O" horiz-adv-x="671" 
d="M310 -17c-164 0 -285 133 -262 317s166 317 340 317c163 0 285 -133 262 -317s-167 -317 -340 -317zM319 48c127 0 236 107 254 252c18 146 -67 252 -194 252c-128 0 -236 -106 -254 -252c-18 -145 66 -252 194 -252z" />
    <glyph glyph-name="P" unicode="P" horiz-adv-x="443" 
d="M24 0l106 600h179c127 0 172 -96 155 -193s-82 -169 -209 -169h-114l-42 -238h-75zM152 301h104c87 0 125 61 135 116s-11 119 -94 119h-103z" />
    <glyph glyph-name="Q" unicode="Q" horiz-adv-x="671" 
d="M319 48c127 0 236 107 254 252c18 146 -67 252 -194 252c-128 0 -236 -106 -254 -252c-18 -145 66 -252 194 -252zM373 -11l24 -49c30 -61 59 -79 104 -79c11 0 22 1 35 4l-6 -56c-20 -5 -38 -7 -56 -7c-68 0 -118 35 -152 112l-31 70c-154 9 -265 139 -243 316
c23 184 166 317 340 317c163 0 285 -133 262 -317c-20 -161 -133 -283 -277 -311z" />
    <glyph glyph-name="R" unicode="R" horiz-adv-x="500" 
d="M154 311h104c88 0 123 56 133 111s-11 114 -94 114h-103zM314 254l135 -254h-86l-127 248h-93l-44 -248h-75l106 600h179c127 0 172 -91 155 -188c-14 -80 -67 -140 -150 -158z" />
    <glyph glyph-name="S" unicode="S" horiz-adv-x="442" 
d="M183 -14c-91 0 -152 46 -177 80l25 69c27 -34 71 -87 162 -87c69 0 124 43 133 108c8 61 -17 101 -117 131c-101 30 -141 98 -129 180c12 83 91 147 196 147c59 0 120 -28 148 -60l-23 -58c-32 29 -71 56 -137 56c-56 0 -104 -31 -112 -87c-7 -48 12 -89 94 -113
c116 -34 165 -103 152 -193c-18 -126 -114 -173 -215 -173z" />
    <glyph glyph-name="T" unicode="T" horiz-adv-x="485" 
d="M166 0l95 536h-198l11 64h470l-11 -64h-197l-95 -536h-75z" />
    <glyph glyph-name="U" unicode="U" horiz-adv-x="609" 
d="M277 -17c-144 0 -240 91 -204 294l57 323h77l-57 -324c-27 -156 31 -228 133 -228c93 0 173 72 200 228l57 324h73l-57 -323c-36 -203 -134 -294 -279 -294z" />
    <glyph glyph-name="V" unicode="V" horiz-adv-x="538" 
d="M206 0l-134 600h74l106 -478l273 478h75l-346 -600h-48z" />
    <glyph glyph-name="W" unicode="W" horiz-adv-x="770" 
d="M158 0l-86 600h74l56 -443c1 -10 0 -36 0 -37c0 2 11 27 16 37l211 443h46l54 -443c1 -10 2 -35 2 -37c0 2 9 27 14 37l213 443h74l-298 -600h-47l-59 412c-1 9 -4 33 -4 33s-10 -24 -14 -33l-205 -412h-47z" />
    <glyph glyph-name="X" unicode="X" horiz-adv-x="504" 
d="M-43 0l266 308l-149 292h85l117 -235l203 235h85l-253 -293l158 -307h-85l-126 251l-216 -251h-85z" />
    <glyph glyph-name="Y" unicode="Y" horiz-adv-x="510" 
d="M179 0l42 240l-155 360h79l125 -295l228 295h80l-283 -360l-42 -240h-74z" />
    <glyph glyph-name="Z" unicode="Z" horiz-adv-x="454" 
d="M-4 0l8 46l377 490h-291l12 64h384l-8 -46l-377 -490h291l-12 -64h-384z" />
    <glyph glyph-name="bracketleft" unicode="[" horiz-adv-x="290" 
d="M48 -88l136 766h152l-8 -42h-92l-120 -682h92l-8 -42h-152z" />
    <glyph glyph-name="backslash" unicode="\" horiz-adv-x="303" 
d="M228 -18l-163 622l42 14l163 -622z" />
    <glyph glyph-name="bracketright" unicode="]" horiz-adv-x="290" 
d="M274 678l-136 -766h-152l8 42h92l120 682h-92l8 42h152z" />
    <glyph glyph-name="asciicircum" unicode="^" horiz-adv-x="442" 
d="M68 281l-35 26l262 310l150 -310l-38 -26l-126 244z" />
    <glyph glyph-name="underscore" unicode="_" horiz-adv-x="313" 
d="M-49 -44l8 44h322l-8 -44h-322z" />
    <glyph glyph-name="grave" unicode="`" horiz-adv-x="300" 
d="M270 496l-159 77l37 56l135 -112z" />
    <glyph glyph-name="a" unicode="a" horiz-adv-x="502" 
d="M194 -12c-127 0 -179 110 -159 233c21 128 120 223 238 223c57 0 107 -34 126 -74l24 62h55l-52 -300c-11 -66 -15 -95 -14 -132h-64c-1 17 -1 55 2 67c-36 -46 -97 -79 -156 -79zM209 43c75 0 146 69 164 173s-27 173 -102 173s-146 -69 -164 -173s27 -173 102 -173z
" />
    <glyph glyph-name="b" unicode="b" horiz-adv-x="502" 
d="M129 600h72l-39 -223c36 39 92 67 146 67c127 0 179 -110 159 -233c-21 -128 -120 -223 -238 -223c-57 0 -107 34 -126 74l-24 -62h-55zM293 389c-75 0 -146 -69 -164 -173s27 -173 102 -173s146 69 164 173s-27 173 -102 173z" />
    <glyph glyph-name="c" unicode="c" horiz-adv-x="415" 
d="M214 -12c-132 0 -200 117 -179 240c22 128 121 216 244 216c54 0 101 -22 123 -46l-10 -58c-26 22 -60 46 -112 46c-91 0 -156 -72 -172 -159c-18 -98 26 -181 129 -181c51 0 88 30 114 51l-12 -69c-22 -17 -61 -40 -125 -40z" />
    <glyph glyph-name="d" unicode="d" horiz-adv-x="502" 
d="M436 600h72l-82 -468c-11 -66 -15 -95 -14 -132h-64c-1 17 -1 55 2 67c-36 -46 -97 -79 -156 -79c-127 0 -179 110 -159 233c21 128 120 223 238 223c57 0 108 -35 123 -73zM209 43c75 0 146 69 164 173s-27 173 -102 173s-146 -69 -164 -173s27 -173 102 -173z" />
    <glyph glyph-name="e" unicode="e" horiz-adv-x="452" 
d="M122 277h228c2 5 6 21 6 36c0 37 -30 75 -92 75c-65 0 -115 -42 -142 -111zM223 -12c-119 0 -191 93 -191 202c0 149 114 254 237 254c89 0 152 -58 152 -138c0 -23 -7 -56 -17 -81h-297c-2 -13 -4 -27 -4 -37c0 -78 50 -142 136 -142c56 0 104 22 140 51l-12 -69
c-27 -18 -70 -40 -144 -40z" />
    <glyph glyph-name="f" unicode="f" horiz-adv-x="252" 
d="M33 0l68 384h-79l8 48h79l4 22c23 128 95 160 172 160c12 0 31 -4 41 -7l-10 -50c-8 2 -16 4 -27 4c-51 0 -89 -20 -104 -106l-4 -23h114l-8 -48h-114l-68 -384h-72z" />
    <glyph glyph-name="g" unicode="g" 
d="M408 33c-31 -175 -107 -237 -239 -237c-49 0 -95 17 -137 38v57c48 -27 90 -40 147 -40c73 0 134 39 158 184l4 22c-36 -41 -93 -69 -147 -69c-127 0 -179 110 -159 233c21 128 120 223 238 223c57 0 107 -34 126 -74l24 62h55zM209 43c75 0 146 69 164 173
s-27 173 -102 173s-146 -69 -164 -173s27 -173 102 -173z" />
    <glyph glyph-name="h" unicode="h" horiz-adv-x="502" 
d="M24 0l105 600h72l-47 -264c42 65 113 104 178 104c80 0 138 -64 119 -170l-47 -270h-72l46 264c14 81 -24 115 -71 115c-59 0 -156 -62 -181 -204l-30 -175h-72z" />
    <glyph glyph-name="i" unicode="i" horiz-adv-x="196" 
d="M23 0l76 432h72l-76 -432h-72zM115 519l14 81h72l-14 -81h-72z" />
    <glyph glyph-name="j" unicode="j" horiz-adv-x="196" 
d="M115 519l14 81h72l-14 -81h-72zM99 432h72l-88 -501c-13 -74 -55 -130 -134 -130c-37 0 -60 18 -67 28l8 51c10 -12 33 -25 52 -25c39 0 59 18 70 81z" />
    <glyph glyph-name="k" unicode="k" horiz-adv-x="440" 
d="M24 0l105 600h72l-61 -353l235 185h90l-247 -194l191 -238h-85l-187 232l-41 -232h-72z" />
    <glyph glyph-name="l" unicode="l" horiz-adv-x="196" 
d="M24 0l105 600h72l-105 -600h-72z" />
    <glyph glyph-name="m" unicode="m" horiz-adv-x="765" 
d="M24 0l52 300c11 66 15 95 15 132h64c1 -21 0 -67 -7 -105c48 74 116 113 176 113c68 0 105 -43 110 -106c43 69 116 106 176 106c77 0 123 -63 106 -160l-49 -280h-72l48 274c12 67 -11 105 -58 105c-54 0 -147 -60 -172 -200l-32 -179h-72l48 274c12 67 -11 105 -58 105
c-54 0 -148 -62 -173 -204l-30 -175h-72z" />
    <glyph glyph-name="n" unicode="n" horiz-adv-x="502" 
d="M24 0l52 300c11 66 15 95 15 132h64c1 -21 1 -58 -7 -105c44 73 119 113 184 113c80 0 138 -64 119 -170l-47 -270h-72l46 264c14 81 -24 115 -71 115c-59 0 -156 -62 -181 -204l-30 -175h-72z" />
    <glyph glyph-name="o" unicode="o" horiz-adv-x="512" 
d="M229 -16c-140 0 -216 119 -194 244c22 127 122 220 246 220c141 0 216 -119 194 -244c-22 -127 -122 -220 -246 -220zM231 40c81 0 154 69 171 164c20 114 -37 188 -123 188c-81 0 -154 -67 -171 -164c-20 -114 37 -188 123 -188z" />
    <glyph glyph-name="p" unicode="p" horiz-adv-x="502" 
d="M61 -195h-72l87 495c12 66 15 95 14 132h64c1 -17 1 -55 -2 -67c36 46 97 79 156 79c127 0 179 -110 159 -233c-21 -128 -120 -223 -238 -223c-57 0 -108 35 -123 73zM293 389c-75 0 -146 -69 -164 -173s27 -173 102 -173s146 69 164 173s-27 173 -102 173z" />
    <glyph glyph-name="q" unicode="q" 
d="M368 -195h-72l44 250c-36 -39 -92 -67 -146 -67c-127 0 -179 110 -159 233c21 128 120 223 238 223c57 0 107 -34 126 -74l24 62h55zM209 43c75 0 146 69 164 173s-27 173 -102 173s-146 -69 -164 -173s27 -173 102 -173z" />
    <glyph glyph-name="r" unicode="r" horiz-adv-x="317" 
d="M24 0l52 300c11 66 15 95 15 132h64c1 -21 2 -54 -6 -101c36 59 110 113 184 113l-15 -87c-6 3 -15 4 -29 4c-54 0 -135 -29 -162 -184l-31 -177h-72z" />
    <glyph glyph-name="s" unicode="s" horiz-adv-x="343" 
d="M143 -12c-77 0 -127 34 -144 48l18 53c19 -16 60 -46 128 -46c46 0 86 21 93 60c6 31 -3 70 -80 92c-87 25 -115 80 -104 141s67 107 150 107c59 0 109 -26 127 -38l-19 -50c-25 16 -58 34 -108 34c-49 0 -79 -26 -84 -54c-5 -27 0 -58 75 -80c85 -25 119 -81 109 -144
c-14 -89 -83 -123 -161 -123z" />
    <glyph glyph-name="t" unicode="t" horiz-adv-x="301" 
d="M71 0l68 384h-97l8 48h97l21 118h72l-21 -118h98l-8 -48h-98l-68 -384h-72z" />
    <glyph glyph-name="u" unicode="u" horiz-adv-x="502" 
d="M476 432l-52 -300c-11 -66 -15 -95 -15 -132h-64c-1 21 -1 58 7 105c-44 -73 -119 -113 -184 -113c-80 0 -138 64 -119 170l47 270h72l-46 -264c-14 -81 24 -115 71 -115c59 0 157 62 181 204l30 175h72z" />
    <glyph glyph-name="v" unicode="v" horiz-adv-x="401" 
d="M125 0l-105 432h75l77 -334l187 334h77l-254 -432h-57z" />
    <glyph glyph-name="w" unicode="w" horiz-adv-x="673" 
d="M112 0l-92 432h73l65 -341l177 341h53l65 -341l177 341h75l-241 -432h-55l-68 321l-174 -321h-55z" />
    <glyph glyph-name="x" unicode="x" horiz-adv-x="434" 
d="M-36 0l206 220l-127 212h79l98 -163l152 163h80l-198 -212l132 -220h-79l-103 171l-160 -171h-80z" />
    <glyph glyph-name="y" unicode="y" horiz-adv-x="417" 
d="M76 -195h-77l123 204l-97 423h74l76 -349l202 349h77z" />
    <glyph glyph-name="z" unicode="z" horiz-adv-x="400" 
d="M-4 0l8 46l291 338h-231l9 48h319l-8 -46l-291 -337h256l-10 -49h-343z" />
    <glyph glyph-name="braceleft" unicode="{" horiz-adv-x="295" 
d="M191 -111c-78 50 -85 84 -60 225c25 143 -22 149 -76 169l4 26c62 20 111 26 136 169c24 140 44 175 140 225l12 -31c-67 -41 -74 -79 -95 -194c-26 -145 -66 -167 -140 -184c68 -17 100 -39 75 -184c-20 -115 -26 -154 27 -195z" />
    <glyph glyph-name="bar" unicode="|" horiz-adv-x="208" 
d="M27 -96l138 782h48l-138 -782h-48z" />
    <glyph glyph-name="braceright" unicode="}" horiz-adv-x="295" 
d="M-8 -111l-12 31c67 41 74 79 95 194c26 145 66 167 140 184c-68 17 -100 39 -75 184c20 115 26 154 -27 195l23 26c78 -50 85 -84 60 -225c-25 -143 22 -149 76 -169l-4 -26c-62 -20 -111 -26 -136 -169c-24 -140 -44 -175 -140 -225z" />
    <glyph glyph-name="asciitilde" unicode="~" horiz-adv-x="412" 
d="M274 194c-46 0 -95 59 -137 59c-26 0 -34 -20 -45 -55h-28c7 74 41 109 89 109c46 0 95 -59 137 -59c26 0 33 20 46 55h28c-8 -74 -42 -109 -90 -109z" />
    <glyph glyph-name="Adieresis" unicode="&#xc4;" horiz-adv-x="538" 
d="M-34 0l346 600h48l134 -600h-74l-37 168h-246l-97 -168h-74zM173 233h196l-54 247zM225 674l14 76h76l-14 -76h-76zM391 674l14 76h76l-14 -76h-76z" />
    <glyph glyph-name="Aring" unicode="&#xc5;" horiz-adv-x="538" 
d="M-34 0l346 600h48l134 -600h-74l-37 168h-246l-97 -168h-74zM173 233h196l-54 247zM350 663c-49 0 -84 37 -79 86s48 87 97 87s84 -38 79 -87s-48 -86 -97 -86zM354 700c28 0 52 21 55 49s-17 50 -45 50s-52 -22 -55 -50s17 -49 45 -49z" />
    <glyph glyph-name="Ccedilla" unicode="&#xc7;" horiz-adv-x="552" 
d="M272 -12c-139 13 -248 138 -222 322c27 194 170 303 331 303c71 0 143 -25 185 -63l-13 -76c-40 42 -96 74 -183 74c-118 0 -222 -88 -243 -238c-21 -149 61 -258 179 -258c87 0 148 34 201 78l-13 -80c-47 -34 -111 -57 -175 -62l-49 -48c32 -2 82 -23 79 -73
c-4 -76 -85 -105 -170 -100l2 35c65 -1 113 16 115 61c2 38 -50 48 -97 34l1 22z" />
    <glyph glyph-name="Eacute" unicode="&#xc9;" horiz-adv-x="445" 
d="M24 0l106 600h337l-12 -64h-262l-32 -188h216l-12 -63h-216l-38 -221h262l-12 -64h-337zM272 663l-13 21l135 112l37 -56z" />
    <glyph glyph-name="Ntilde" unicode="&#xd1;" horiz-adv-x="568" 
d="M24 0l106 600h42l251 -454l80 454h69l-106 -600h-43l-251 454l-80 -454h-68zM409 673c-41 0 -77 48 -110 48c-22 0 -31 -15 -37 -44h-31c7 62 36 92 77 92s77 -48 110 -48c22 0 31 15 37 44h30c-7 -62 -35 -92 -76 -92z" />
    <glyph glyph-name="Odieresis" unicode="&#xd6;" horiz-adv-x="671" 
d="M310 -17c-164 0 -285 133 -262 317s166 317 340 317c163 0 285 -133 262 -317s-167 -317 -340 -317zM319 48c127 0 236 107 254 252c18 146 -67 252 -194 252c-128 0 -236 -106 -254 -252c-18 -145 66 -252 194 -252zM279 674l14 76h76l-14 -76h-76zM445 674l14 76h76
l-14 -76h-76z" />
    <glyph glyph-name="Udieresis" unicode="&#xdc;" horiz-adv-x="609" 
d="M277 -17c-144 0 -240 91 -204 294l57 323h77l-57 -324c-27 -156 31 -228 133 -228c93 0 173 72 200 228l57 324h73l-57 -323c-36 -203 -134 -294 -279 -294zM267 674l14 76h76l-14 -76h-76zM433 674l14 76h76l-14 -76h-76z" />
    <glyph glyph-name="aacute" unicode="&#xe1;" horiz-adv-x="502" 
d="M194 -12c-127 0 -179 110 -159 233c21 128 120 223 238 223c57 0 107 -34 126 -74l24 62h55l-52 -300c-11 -66 -15 -95 -14 -132h-64c-1 17 -1 55 2 67c-36 -46 -97 -79 -156 -79zM209 43c75 0 146 69 164 173s-27 173 -102 173s-146 -69 -164 -173s27 -173 102 -173z
M253 496l-13 21l135 112l37 -56z" />
    <glyph glyph-name="agrave" unicode="&#xe0;" horiz-adv-x="502" 
d="M194 -12c-127 0 -179 110 -159 233c21 128 120 223 238 223c57 0 107 -34 126 -74l24 62h55l-52 -300c-11 -66 -15 -95 -14 -132h-64c-1 17 -1 55 2 67c-36 -46 -97 -79 -156 -79zM209 43c75 0 146 69 164 173s-27 173 -102 173s-146 -69 -164 -173s27 -173 102 -173z
M348 496l-159 77l37 56l135 -112z" />
    <glyph glyph-name="acircumflex" unicode="&#xe2;" horiz-adv-x="502" 
d="M194 -12c-127 0 -179 110 -159 233c21 128 120 223 238 223c57 0 107 -34 126 -74l24 62h55l-52 -300c-11 -66 -15 -95 -14 -132h-64c-1 17 -1 55 2 67c-36 -46 -97 -79 -156 -79zM209 43c75 0 146 69 164 173s-27 173 -102 173s-146 -69 -164 -173s27 -173 102 -173z
M209 501l-24 25l133 110l95 -110l-27 -25l-76 73z" />
    <glyph glyph-name="adieresis" unicode="&#xe4;" horiz-adv-x="502" 
d="M194 -12c-127 0 -179 110 -159 233c21 128 120 223 238 223c57 0 107 -34 126 -74l24 62h55l-52 -300c-11 -66 -15 -95 -14 -132h-64c-1 17 -1 55 2 67c-36 -46 -97 -79 -156 -79zM209 43c75 0 146 69 164 173s-27 173 -102 173s-146 -69 -164 -173s27 -173 102 -173z
M178 507l14 76h76l-14 -76h-76zM344 507l14 76h76l-14 -76h-76z" />
    <glyph glyph-name="atilde" unicode="&#xe3;" horiz-adv-x="502" 
d="M194 -12c-127 0 -179 110 -159 233c21 128 120 223 238 223c57 0 107 -34 126 -74l24 62h55l-52 -300c-11 -66 -15 -95 -14 -132h-64c-1 17 -1 55 2 67c-36 -46 -97 -79 -156 -79zM209 43c75 0 146 69 164 173s-27 173 -102 173s-146 -69 -164 -173s27 -173 102 -173z
M348 506c-41 0 -77 48 -110 48c-22 0 -31 -15 -37 -44h-31c7 62 36 92 77 92s77 -48 110 -48c22 0 31 15 37 44h30c-7 -62 -35 -92 -76 -92z" />
    <glyph glyph-name="aring" unicode="&#xe5;" horiz-adv-x="502" 
d="M194 -12c-127 0 -179 110 -159 233c21 128 120 223 238 223c57 0 107 -34 126 -74l24 62h55l-52 -300c-11 -66 -15 -95 -14 -132h-64c-1 17 -1 55 2 67c-36 -46 -97 -79 -156 -79zM209 43c75 0 146 69 164 173s-27 173 -102 173s-146 -69 -164 -173s27 -173 102 -173z
M297 502c-49 0 -84 37 -79 86s48 87 97 87s84 -38 79 -87s-48 -86 -97 -86zM301 539c28 0 52 21 55 49s-17 50 -45 50s-52 -22 -55 -50s17 -49 45 -49z" />
    <glyph glyph-name="ccedilla" unicode="&#xe7;" horiz-adv-x="415" 
d="M180 -9c-110 18 -164 125 -145 237c22 128 121 216 244 216c54 0 101 -22 123 -46l-10 -58c-26 22 -60 46 -112 46c-91 0 -156 -72 -172 -159c-18 -98 26 -181 129 -181c51 0 88 30 114 51l-12 -69c-21 -16 -57 -37 -115 -40l-39 -38c32 -2 82 -23 79 -73
c-4 -76 -85 -105 -170 -100l2 35c65 -1 113 16 115 61c2 38 -50 48 -97 34l1 22z" />
    <glyph glyph-name="eacute" unicode="&#xe9;" horiz-adv-x="452" 
d="M122 277h228c2 5 6 21 6 36c0 37 -30 75 -92 75c-65 0 -115 -42 -142 -111zM223 -12c-119 0 -191 93 -191 202c0 149 114 254 237 254c89 0 152 -58 152 -138c0 -23 -7 -56 -17 -81h-297c-2 -13 -4 -27 -4 -37c0 -78 50 -142 136 -142c56 0 104 22 140 51l-12 -69
c-27 -18 -70 -40 -144 -40zM224 496l-13 21l135 112l37 -56z" />
    <glyph glyph-name="egrave" unicode="&#xe8;" horiz-adv-x="452" 
d="M122 277h228c2 5 6 21 6 36c0 37 -30 75 -92 75c-65 0 -115 -42 -142 -111zM223 -12c-119 0 -191 93 -191 202c0 149 114 254 237 254c89 0 152 -58 152 -138c0 -23 -7 -56 -17 -81h-297c-2 -13 -4 -27 -4 -37c0 -78 50 -142 136 -142c56 0 104 22 140 51l-12 -69
c-27 -18 -70 -40 -144 -40zM342 496l-159 77l37 56l135 -112z" />
    <glyph glyph-name="ecircumflex" unicode="&#xea;" horiz-adv-x="452" 
d="M122 277h228c2 5 6 21 6 36c0 37 -30 75 -92 75c-65 0 -115 -42 -142 -111zM223 -12c-119 0 -191 93 -191 202c0 149 114 254 237 254c89 0 152 -58 152 -138c0 -23 -7 -56 -17 -81h-297c-2 -13 -4 -27 -4 -37c0 -78 50 -142 136 -142c56 0 104 22 140 51l-12 -69
c-27 -18 -70 -40 -144 -40zM190 501l-24 25l133 110l95 -110l-27 -25l-76 73z" />
    <glyph glyph-name="edieresis" unicode="&#xeb;" horiz-adv-x="452" 
d="M122 277h228c2 5 6 21 6 36c0 37 -30 75 -92 75c-65 0 -115 -42 -142 -111zM223 -12c-119 0 -191 93 -191 202c0 149 114 254 237 254c89 0 152 -58 152 -138c0 -23 -7 -56 -17 -81h-297c-2 -13 -4 -27 -4 -37c0 -78 50 -142 136 -142c56 0 104 22 140 51l-12 -69
c-27 -18 -70 -40 -144 -40zM154 507l14 76h76l-14 -76h-76zM320 507l14 76h76l-14 -76h-76z" />
    <glyph glyph-name="iacute" unicode="&#xed;" horiz-adv-x="196" 
d="M23 0l76 432h72l-76 -432h-72zM109 496l-13 21l135 112l37 -56z" />
    <glyph glyph-name="igrave" unicode="&#xec;" horiz-adv-x="196" 
d="M23 0l76 432h72l-76 -432h-72zM197 496l-159 77l37 56l135 -112z" />
    <glyph glyph-name="icircumflex" unicode="&#xee;" horiz-adv-x="196" 
d="M23 0l76 432h72l-76 -432h-72zM50 501l-24 25l133 110l95 -110l-27 -25l-76 73z" />
    <glyph glyph-name="idieresis" unicode="&#xef;" horiz-adv-x="196" 
d="M23 0l76 432h72l-76 -432h-72zM26 507l14 76h76l-14 -76h-76zM192 507l14 76h76l-14 -76h-76z" />
    <glyph glyph-name="ntilde" unicode="&#xf1;" horiz-adv-x="502" 
d="M24 0l52 300c11 66 15 95 15 132h64c1 -21 1 -58 -7 -105c44 73 119 113 184 113c80 0 138 -64 119 -170l-47 -270h-72l46 264c14 81 -24 115 -71 115c-59 0 -156 -62 -181 -204l-30 -175h-72zM363 506c-41 0 -77 48 -110 48c-22 0 -31 -15 -37 -44h-31c7 62 36 92 77 92
s77 -48 110 -48c22 0 31 15 37 44h30c-7 -62 -35 -92 -76 -92z" />
    <glyph glyph-name="oacute" unicode="&#xf3;" horiz-adv-x="512" 
d="M229 -16c-140 0 -216 119 -194 244c22 127 122 220 246 220c141 0 216 -119 194 -244c-22 -127 -122 -220 -246 -220zM231 40c81 0 154 69 171 164c20 114 -37 188 -123 188c-81 0 -154 -67 -171 -164c-20 -114 37 -188 123 -188zM260 496l-13 21l135 112l37 -56z" />
    <glyph glyph-name="ograve" unicode="&#xf2;" horiz-adv-x="512" 
d="M229 -16c-140 0 -216 119 -194 244c22 127 122 220 246 220c141 0 216 -119 194 -244c-22 -127 -122 -220 -246 -220zM231 40c81 0 154 69 171 164c20 114 -37 188 -123 188c-81 0 -154 -67 -171 -164c-20 -114 37 -188 123 -188zM358 496l-159 77l37 56l135 -112z" />
    <glyph glyph-name="ocircumflex" unicode="&#xf4;" horiz-adv-x="512" 
d="M229 -16c-140 0 -216 119 -194 244c22 127 122 220 246 220c141 0 216 -119 194 -244c-22 -127 -122 -220 -246 -220zM231 40c81 0 154 69 171 164c20 114 -37 188 -123 188c-81 0 -154 -67 -171 -164c-20 -114 37 -188 123 -188zM215 501l-24 25l133 110l95 -110
l-27 -25l-76 73z" />
    <glyph glyph-name="odieresis" unicode="&#xf6;" horiz-adv-x="512" 
d="M229 -16c-140 0 -216 119 -194 244c22 127 122 220 246 220c141 0 216 -119 194 -244c-22 -127 -122 -220 -246 -220zM231 40c81 0 154 69 171 164c20 114 -37 188 -123 188c-81 0 -154 -67 -171 -164c-20 -114 37 -188 123 -188zM183 507l14 76h76l-14 -76h-76zM349 507
l14 76h76l-14 -76h-76z" />
    <glyph glyph-name="otilde" unicode="&#xf5;" horiz-adv-x="512" 
d="M229 -16c-140 0 -216 119 -194 244c22 127 122 220 246 220c141 0 216 -119 194 -244c-22 -127 -122 -220 -246 -220zM231 40c81 0 154 69 171 164c20 114 -37 188 -123 188c-81 0 -154 -67 -171 -164c-20 -114 37 -188 123 -188zM348 506c-41 0 -77 48 -110 48
c-22 0 -31 -15 -37 -44h-31c7 62 36 92 77 92s77 -48 110 -48c22 0 31 15 37 44h30c-7 -62 -35 -92 -76 -92z" />
    <glyph glyph-name="uacute" unicode="&#xfa;" horiz-adv-x="502" 
d="M476 432l-52 -300c-11 -66 -15 -95 -15 -132h-64c-1 21 -1 58 7 105c-44 -73 -119 -113 -184 -113c-80 0 -138 64 -119 170l47 270h72l-46 -264c-14 -81 24 -115 71 -115c59 0 157 62 181 204l30 175h72zM249 496l-13 21l135 112l37 -56z" />
    <glyph glyph-name="ugrave" unicode="&#xf9;" horiz-adv-x="502" 
d="M476 432l-52 -300c-11 -66 -15 -95 -15 -132h-64c-1 21 -1 58 7 105c-44 -73 -119 -113 -184 -113c-80 0 -138 64 -119 170l47 270h72l-46 -264c-14 -81 24 -115 71 -115c59 0 157 62 181 204l30 175h72zM327 496l-159 77l37 56l135 -112z" />
    <glyph glyph-name="ucircumflex" unicode="&#xfb;" horiz-adv-x="502" 
d="M476 432l-52 -300c-11 -66 -15 -95 -15 -132h-64c-1 21 -1 58 7 105c-44 -73 -119 -113 -184 -113c-80 0 -138 64 -119 170l47 270h72l-46 -264c-14 -81 24 -115 71 -115c59 0 157 62 181 204l30 175h72zM200 501l-24 25l133 110l95 -110l-27 -25l-76 73z" />
    <glyph glyph-name="udieresis" unicode="&#xfc;" horiz-adv-x="502" 
d="M476 432l-52 -300c-11 -66 -15 -95 -15 -132h-64c-1 21 -1 58 7 105c-44 -73 -119 -113 -184 -113c-80 0 -138 64 -119 170l47 270h72l-46 -264c-14 -81 24 -115 71 -115c59 0 157 62 181 204l30 175h72zM170 507l14 76h76l-14 -76h-76zM336 507l14 76h76l-14 -76h-76z
" />
    <glyph glyph-name="dagger" unicode="&#x2020;" horiz-adv-x="430" 
d="M202 343h-153l11 59h153l35 197h67l-35 -197h153l-11 -59h-153l-95 -540h-67z" />
    <glyph glyph-name="degree" unicode="&#xb0;" horiz-adv-x="352" 
d="M205 311c-82 0 -143 71 -134 154c9 82 84 146 166 146c83 0 143 -72 134 -154c-9 -83 -83 -146 -166 -146zM210 357c56 0 105 48 111 104s-33 104 -89 104s-104 -48 -110 -104s32 -104 88 -104z" />
    <glyph glyph-name="cent" unicode="&#xa2;" horiz-adv-x="420" 
d="M226 38l-22 -121h-45l22 126c-102 23 -153 127 -134 235c20 117 105 201 214 214l22 125h45l-22 -124c48 -3 88 -23 108 -45l-10 -58c-25 21 -58 45 -108 46l-60 -339c53 -7 98 26 127 50l-12 -69c-22 -17 -61 -40 -125 -40zM192 106l58 325c-68 -16 -116 -73 -130 -154
c-14 -78 10 -146 72 -171z" />
    <glyph glyph-name="sterling" unicode="&#xa3;" horiz-adv-x="480" 
d="M-13 0l12 64c83 0 97 18 115 117l18 104h-81l9 48h81l7 40c31 175 105 244 222 244c46 0 90 -18 117 -37l-12 -68c-31 25 -68 44 -113 44c-68 0 -110 -34 -136 -183l-7 -40h144l-9 -48h-144l-7 -43c-22 -111 -49 -157 -85 -178h303l-12 -64h-422z" />
    <glyph glyph-name="section" unicode="&#xa7;" horiz-adv-x="416" 
d="M152 -191c-57 0 -115 27 -142 58l22 56c31 -28 68 -54 131 -54c54 0 100 26 108 76c7 41 -9 78 -83 99c-118 34 -165 89 -153 175c10 69 61 109 121 130c-49 32 -68 80 -60 134c12 79 87 134 188 134c57 0 115 -27 142 -58l-22 -56c-31 28 -68 54 -131 54
c-54 0 -100 -26 -108 -76c-6 -42 9 -78 83 -99c118 -34 165 -89 153 -175c-10 -69 -61 -109 -121 -130c49 -32 68 -80 60 -134c-12 -79 -87 -134 -188 -134zM209 108c65 2 115 44 123 96c9 55 -15 86 -105 114c-65 -2 -114 -44 -123 -96c-9 -55 15 -86 105 -114z" />
    <glyph glyph-name="bullet" unicode="&#x2022;" horiz-adv-x="229" 
d="M122 213c-42 0 -74 34 -69 76c5 43 44 77 86 77c43 0 73 -34 68 -77c-5 -42 -42 -76 -85 -76z" />
    <glyph glyph-name="paragraph" unicode="&#xb6;" horiz-adv-x="469" 
d="M102 -191l80 453c-83 9 -136 91 -121 178c16 93 100 160 200 160h250l-9 -51h-69l-131 -740h-60l131 740h-80l-131 -740h-60z" />
    <glyph glyph-name="germandbls" unicode="&#xdf;" horiz-adv-x="498" 
d="M283 -7c-43 0 -83 11 -119 27l11 62c38 -24 86 -32 118 -32c42 0 85 15 92 54c14 78 -176 69 -154 199c14 82 134 109 147 183c7 43 -19 72 -77 72c-65 0 -114 -43 -126 -110l-79 -448h-73l79 448c18 101 101 169 204 169c91 0 154 -48 140 -131
c-18 -98 -136 -126 -146 -184c-15 -84 176 -74 154 -200c-14 -82 -87 -109 -171 -109z" />
    <glyph glyph-name="registered" unicode="&#xae;" horiz-adv-x="491" 
d="M249 155c-127 0 -220 103 -206 231s129 231 256 231c128 0 221 -103 207 -231s-129 -231 -257 -231zM253 184c111 0 209 91 222 202c13 110 -67 202 -179 202c-111 0 -210 -91 -222 -202s68 -202 179 -202zM310 247l-53 112h-26l-20 -112h-55l50 282h101
c60 0 84 -42 76 -88c-6 -37 -32 -69 -73 -79l59 -115h-59zM238 398h40c31 0 47 20 52 46c5 25 -6 46 -36 46h-40z" />
    <glyph glyph-name="copyright" unicode="&#xa9;" horiz-adv-x="675" 
d="M319 -17c-175 0 -302 144 -283 319s176 315 351 315s301 -144 282 -319s-175 -315 -350 -315zM323 14c157 0 297 129 314 286c17 158 -97 286 -254 286c-158 0 -297 -128 -314 -286c-17 -157 96 -286 254 -286zM342 97c-108 0 -198 77 -183 203s125 203 233 203
c52 0 100 -16 130 -41l-8 -61c-30 27 -64 47 -124 47c-75 0 -147 -59 -158 -148c-11 -88 48 -148 123 -148c60 0 100 21 135 47l-9 -61c-35 -25 -87 -41 -139 -41z" />
    <glyph glyph-name="trademark" unicode="&#x2122;" horiz-adv-x="769" 
d="M385 267l59 333h65l63 -237l147 237h63l-59 -333h-58l35 199l7 33l-17 -33l-121 -199h-32l-50 199c-2 7 -5 27 -6 32c-1 -4 -3 -24 -5 -32l-35 -199h-56zM140 267l50 280h-111l9 53h289l-9 -53h-112l-50 -280h-66z" />
    <glyph glyph-name="acute" unicode="&#xb4;" horiz-adv-x="300" 
d="M142 496l-13 21l135 112l37 -56z" />
    <glyph glyph-name="dieresis" unicode="&#xa8;" horiz-adv-x="300" 
d="M90 507l14 76h76l-14 -76h-76zM256 507l14 76h76l-14 -76h-76z" />
    <glyph glyph-name="notequal" unicode="&#x2260;" horiz-adv-x="407" 
d="M78 97l-27 21l69 82h-56l10 55h92l59 70h-139l10 55h175l88 103l26 -22l-69 -81h57l-10 -55h-93l-59 -70h140l-10 -55h-176z" />
    <glyph glyph-name="AE" unicode="&#xc6;" horiz-adv-x="764" 
d="M214 231h170l54 308zM-34 0l445 600h375l-12 -64h-262l-32 -188h216l-12 -63h-216l-38 -221h262l-12 -64h-337l30 168h-206l-125 -168h-76z" />
    <glyph glyph-name="Oslash" unicode="&#xd8;" horiz-adv-x="671" 
d="M183 101l301 421c-30 20 -66 30 -106 30c-128 0 -236 -106 -254 -252c-10 -83 13 -154 59 -199zM513 499l-301 -422c30 -19 66 -29 106 -29c127 0 236 107 254 252c10 83 -13 154 -59 199zM556 558c68 -56 107 -148 93 -258c-23 -184 -167 -317 -340 -317
c-51 0 -98 13 -138 37l-45 -63l-31 20l45 64c-69 56 -107 148 -93 259c23 184 166 317 340 317c51 0 98 -13 138 -37l45 63l32 -20z" />
    <glyph glyph-name="infinity" unicode="&#x221e;" horiz-adv-x="685" 
d="M174 158c-83 0 -129 58 -121 130c8 73 66 131 149 131c54 0 124 -56 165 -101c49 45 132 101 187 101c82 0 129 -58 121 -131c-8 -72 -67 -130 -149 -130c-55 0 -126 55 -165 100c-51 -45 -133 -100 -187 -100zM176 203c46 0 110 51 151 85c-36 38 -87 85 -133 85
c-48 0 -86 -38 -91 -85c-5 -45 25 -85 73 -85zM534 203c48 0 86 40 91 85c5 47 -25 85 -73 85c-46 0 -108 -47 -152 -85c33 -34 88 -85 134 -85z" />
    <glyph glyph-name="plusminus" unicode="&#xb1;" horiz-adv-x="379" 
d="M-16 0l9 49h339l-9 -49h-339zM145 110l27 152h-142l10 54h142l27 152h54l-27 -152h143l-10 -54h-143l-27 -152h-54z" />
    <glyph glyph-name="lessequal" unicode="&#x2264;" horiz-adv-x="379" 
d="M297 100l-252 168l311 167l13 -44l-228 -123l185 -123zM-16 0l9 49h339l-9 -49h-339z" />
    <glyph glyph-name="greaterequal" unicode="&#x2265;" horiz-adv-x="379" 
d="M45 100l-12 45l227 123l-184 123l28 44l252 -167zM-16 0l9 49h339l-9 -49h-339z" />
    <glyph glyph-name="yen" unicode="&#xa5;" horiz-adv-x="518" 
d="M183 0l24 138h-119l8 45h119l10 57l-4 10h-113l8 45h85c1 0 -131 305 -131 305h79l125 -295l228 295h80l-240 -305h86l-8 -45h-113l-8 -10l-10 -57h119l-8 -45h-119l-24 -138h-74z" />
    <glyph glyph-name="mu" unicode="&#xb5;" horiz-adv-x="502" 
d="M95 12l-36 -207h-72l110 627h72l-46 -264c-14 -81 24 -115 71 -115c59 0 157 62 181 204l30 175h72l-52 -300c-11 -66 -15 -95 -15 -132h-64c-1 21 -1 58 7 105c-44 -73 -119 -113 -184 -113c-26 0 -55 7 -74 20z" />
    <glyph glyph-name="partialdiff" unicode="&#x2202;" horiz-adv-x="481" 
d="M183 -17c-112 0 -184 90 -160 203s121 197 233 197c56 0 116 -29 134 -61c27 165 -25 232 -126 232c-49 0 -99 -20 -137 -46l15 72c29 20 85 38 137 38c170 0 221 -140 177 -352c-48 -233 -184 -283 -273 -283zM202 46c56 0 137 33 173 202c-16 38 -57 71 -125 71
c-77 0 -131 -52 -149 -133c-18 -83 22 -140 101 -140z" />
    <glyph glyph-name="summation" unicode="&#x2211;" horiz-adv-x="500" 
d="M-53 -170l3 19l304 372l-177 360l4 19h471l-11 -57h-362l153 -314l-277 -342h387l-11 -57h-484z" />
    <glyph glyph-name="product" unicode="&#x220f;" horiz-adv-x="591" 
d="M49 0l95 536h-60l11 64h535l-11 -64h-60l-95 -536h-77l95 536h-261l-95 -536h-77z" />
    <glyph glyph-name="pi" unicode="&#x3c0;" horiz-adv-x="533" 
d="M49 0l66 375h-60l10 57h477l-10 -57h-60l-66 -375h-73l66 375h-211l-66 -375h-73z" />
    <glyph glyph-name="integral" unicode="&#x222b;" horiz-adv-x="240" 
d="M-45 -199c-38 0 -61 18 -69 28l10 52c10 -12 35 -25 55 -25c40 0 61 21 72 84l95 538c22 126 77 174 168 174c19 0 41 -5 52 -9l-9 -51c-15 3 -32 6 -45 6c-53 0 -78 -27 -93 -115l-97 -552c-13 -74 -56 -130 -139 -130z" />
    <glyph glyph-name="ordfeminine" unicode="&#xaa;" horiz-adv-x="410" 
d="M196 265c-94 0 -138 81 -123 175c16 99 96 168 183 168c43 0 83 -22 98 -53l22 48h38l-40 -230c-9 -51 -11 -73 -10 -102h-50c-1 13 -1 43 2 52c-28 -36 -74 -58 -120 -58zM208 312c51 0 104 45 118 125s-21 124 -72 124s-104 -44 -118 -124s21 -125 72 -125z" />
    <glyph glyph-name="ordmasculine" unicode="&#xba;" horiz-adv-x="418" 
d="M229 261c-103 0 -170 89 -153 185c17 98 100 167 191 167c104 0 170 -89 153 -185c-17 -98 -101 -167 -191 -167zM230 308c60 0 113 47 126 120c16 88 -27 138 -90 138c-60 0 -112 -45 -126 -120c-16 -88 27 -138 90 -138z" />
    <glyph glyph-name="Omega" unicode="&#x3a9;" horiz-adv-x="547" 
d="M30 0l10 60h106l22 122c-64 34 -105 114 -95 202c13 116 118 219 254 219c135 0 218 -103 205 -219c-10 -87 -74 -167 -147 -202l-22 -122h106l-10 -60h-165l38 224c70 22 123 91 130 157c8 78 -37 163 -142 163c-106 0 -169 -85 -177 -163c-7 -66 21 -134 88 -157
l-38 -224h-163z" />
    <glyph glyph-name="ae" unicode="&#xe6;" horiz-adv-x="713" 
d="M383 277h228c2 5 6 17 6 32c0 37 -30 75 -92 75c-65 0 -115 -38 -142 -107zM323 78c-76 -62 -145 -86 -216 -86c-61 0 -103 42 -95 108c12 100 143 152 293 165l4 23c11 66 -10 96 -77 96c-46 0 -108 -26 -157 -56l8 62c38 20 109 50 163 50c61 0 107 -17 126 -63
c43 40 100 63 158 63c89 0 152 -58 152 -138c0 -23 -7 -52 -17 -77h-297c-2 -13 -4 -27 -4 -37c0 -78 51 -138 137 -138c54 0 103 25 130 48l18 -39c-21 -28 -84 -67 -164 -67c-72 0 -129 33 -162 86zM142 46c43 0 104 31 161 79c-6 15 -13 57 -9 91
c-130 -11 -205 -60 -211 -108c-6 -52 27 -62 59 -62z" />
    <glyph glyph-name="oslash" unicode="&#xf8;" horiz-adv-x="512" 
d="M142 79l195 296c-17 9 -37 13 -59 13c-81 0 -153 -63 -170 -160c-12 -66 3 -117 34 -149zM368 352l-195 -295c17 -9 37 -13 59 -13c81 0 153 65 170 160c12 66 -3 117 -34 148zM403 406c59 -44 87 -121 72 -202c-22 -127 -121 -216 -245 -216c-34 0 -64 7 -90 19l-33 -50
l-34 18l34 51c-59 44 -87 121 -72 202c22 127 121 216 245 216c34 0 64 -7 90 -19l33 50l34 -18z" />
    <glyph glyph-name="questiondown" unicode="&#xbf;" horiz-adv-x="410" 
d="M339 432l-16 -92h-92l16 92h92zM297 272l-22 -122l-58 -26c-109 -49 -150 -95 -155 -151c-6 -65 43 -95 113 -95c56 0 138 32 184 76l-9 -76c-41 -35 -120 -63 -188 -63c-101 0 -190 49 -178 155c10 89 85 150 178 190l58 25l16 87h61z" />
    <glyph glyph-name="exclamdown" unicode="&#xa1;" horiz-adv-x="218" 
d="M192 432l-16 -88h-88l16 88h88zM143 272l-54 -440h-93l103 440h44z" />
    <glyph glyph-name="logicalnot" unicode="&#xac;" horiz-adv-x="513" 
d="M356 140l21 123h-302l10 54h356l-31 -177h-54z" />
    <glyph glyph-name="radical" unicode="&#x221a;" horiz-adv-x="421" 
d="M100 -22l-71 290l60 26l47 -205l357 652h41l-419 -763h-15z" />
    <glyph glyph-name="florin" unicode="&#x192;" horiz-adv-x="273" 
d="M98 294h-77l8 48h82l29 111c33 127 109 163 186 163c12 0 31 -4 41 -7l-15 -50c-7 2 -15 4 -26 4c-51 0 -92 -23 -114 -109l-29 -112h111l-8 -48h-116l-97 -368c-19 -74 -66 -130 -145 -130c-37 0 -58 18 -65 28l13 51c9 -12 31 -25 50 -25c39 0 61 18 77 81z" />
    <glyph glyph-name="approxequal" unicode="&#x2248;" horiz-adv-x="407" 
d="M85 306l10 55s36 33 73 33c58 0 82 -33 131 -33c36 0 73 33 73 33l-9 -55s-37 -33 -74 -33c-58 0 -81 33 -130 33c-36 0 -74 -33 -74 -33zM63 181l10 55s36 33 73 33c58 0 82 -33 131 -33c36 0 73 33 73 33l-9 -55s-37 -33 -74 -33c-58 0 -81 33 -130 33
c-36 0 -74 -33 -74 -33z" />
    <glyph glyph-name="Delta" unicode="&#x394;" horiz-adv-x="549" 
d="M78 50h328l-85 435zM-8 0l347 617h21l119 -617h-487z" />
    <glyph glyph-name="guillemotleft" unicode="&#xab;" horiz-adv-x="403" 
d="M334 112l-150 139l199 138l17 -29l-139 -113l99 -113zM215 72l-182 179l245 178l17 -29l-185 -153l131 -152z" />
    <glyph glyph-name="guillemotright" unicode="&#xbb;" horiz-adv-x="403" 
d="M136 72l-18 29l185 152l-131 153l27 23l181 -178zM30 112l-17 28l138 113l-98 113l26 23l150 -138z" />
    <glyph glyph-name="ellipsis" unicode="&#x2026;" horiz-adv-x="660" 
d="M464 0l16 92h92l-16 -92h-92zM24 0l16 92h92l-16 -92h-92zM244 0l16 92h92l-16 -92h-92z" />
    <glyph glyph-name="Agrave" unicode="&#xc0;" horiz-adv-x="538" 
d="M-34 0l346 600h48l134 -600h-74l-37 168h-246l-97 -168h-74zM173 233h196l-54 247zM382 663l-159 77l37 56l135 -112z" />
    <glyph glyph-name="Atilde" unicode="&#xc3;" horiz-adv-x="538" 
d="M-34 0l346 600h48l134 -600h-74l-37 168h-246l-97 -168h-74zM173 233h196l-54 247zM398 673c-41 0 -77 48 -110 48c-22 0 -31 -15 -37 -44h-31c7 62 36 92 77 92s77 -48 110 -48c22 0 31 15 37 44h30c-7 -62 -35 -92 -76 -92z" />
    <glyph glyph-name="Otilde" unicode="&#xd5;" horiz-adv-x="671" 
d="M310 -17c-164 0 -285 133 -262 317s166 317 340 317c163 0 285 -133 262 -317s-167 -317 -340 -317zM319 48c127 0 236 107 254 252c18 146 -67 252 -194 252c-128 0 -236 -106 -254 -252c-18 -145 66 -252 194 -252zM450 673c-41 0 -77 48 -110 48
c-22 0 -31 -15 -37 -44h-31c7 62 36 92 77 92s77 -48 110 -48c22 0 31 15 37 44h30c-7 -62 -35 -92 -76 -92z" />
    <glyph glyph-name="OE" unicode="&#x152;" horiz-adv-x="826" 
d="M311 0c-224 0 -291 145 -262 310s137 290 358 290h441l-12 -64h-262l-32 -188h216l-12 -63h-216l-38 -221h262l-12 -64h-431zM318 66h98l83 468h-98c-182 0 -254 -114 -275 -234s10 -234 192 -234z" />
    <glyph glyph-name="oe" unicode="&#x153;" horiz-adv-x="822" 
d="M492 277h228c2 5 6 17 6 32c0 37 -30 75 -92 75c-65 0 -115 -38 -142 -107zM427 88c-46 -62 -116 -100 -197 -100c-140 0 -217 115 -195 240c22 127 121 216 245 216c82 0 143 -39 174 -97c45 59 113 93 185 93c89 0 152 -58 152 -138c0 -23 -7 -52 -17 -77h-297
c-2 -13 -4 -27 -4 -37c0 -78 51 -138 137 -138c54 0 103 25 130 48l18 -39c-21 -28 -84 -67 -164 -67c-78 0 -137 39 -167 96zM232 44c81 0 153 65 170 160c20 114 -38 184 -124 184c-81 0 -153 -63 -170 -160c-20 -114 38 -184 124 -184z" />
    <glyph glyph-name="endash" unicode="&#x2013;" horiz-adv-x="383" 
d="M2 224l10 52h385l-10 -52h-385z" />
    <glyph glyph-name="emdash" unicode="&#x2014;" horiz-adv-x="612" 
d="M2 224l10 52h614l-10 -52h-614z" />
    <glyph glyph-name="quotedblleft" unicode="&#x201c;" horiz-adv-x="380" 
d="M259 393l14 77c12 68 48 122 104 138l11 -25c-38 -19 -57 -63 -64 -102h39l-16 -88h-88zM92 393l14 77c12 68 48 122 104 138l11 -25c-38 -19 -57 -63 -64 -102h39l-16 -88h-88z" />
    <glyph glyph-name="quotedblright" unicode="&#x201d;" horiz-adv-x="380" 
d="M266 385l-11 25c38 19 57 63 64 102h-39l16 88h88l-14 -77c-12 -68 -48 -122 -104 -138zM99 385l-11 25c38 19 57 63 64 102h-39l16 88h88l-14 -77c-12 -68 -48 -122 -104 -138z" />
    <glyph glyph-name="quoteleft" unicode="&#x2018;" horiz-adv-x="213" 
d="M92 393l14 77c12 68 48 122 104 138l11 -25c-38 -19 -57 -63 -64 -102h39l-16 -88h-88z" />
    <glyph glyph-name="quoteright" unicode="&#x2019;" horiz-adv-x="213" 
d="M99 385l-11 25c38 19 57 63 64 102h-39l16 88h88l-14 -77c-12 -68 -48 -122 -104 -138z" />
    <glyph glyph-name="divide" unicode="&#xf7;" horiz-adv-x="407" 
d="M44 263l10 54h339l-10 -54h-339zM196 385l14 80h80l-14 -80h-80zM148 115l14 80h80l-14 -80h-80z" />
    <glyph glyph-name="lozenge" unicode="&#x25ca;" horiz-adv-x="476" 
d="M189 -46l-142 341l260 331l144 -331zM204 45l189 253l-99 238l-189 -242z" />
    <glyph glyph-name="ydieresis" unicode="&#xff;" horiz-adv-x="417" 
d="M76 -195h-77l123 204l-97 423h74l76 -349l202 349h77zM124 507l14 76h76l-14 -76h-76zM290 507l14 76h76l-14 -76h-76z" />
    <glyph glyph-name="Ydieresis" unicode="&#x178;" horiz-adv-x="510" 
d="M179 0l42 240l-155 360h79l125 -295l228 295h80l-283 -360l-42 -240h-74zM214 674l14 76h76l-14 -76h-76zM380 674l14 76h76l-14 -76h-76z" />
    <glyph glyph-name="fraction" unicode="&#x2044;" horiz-adv-x="227" 
d="M-43 -18l-36 14l383 622l36 -14z" />
    <glyph glyph-name="Euro" unicode="&#x20ac;" 
d="M289 -14c-133 0 -203 85 -201 232h-61l8 45h56l6 39c2 12 4 24 7 35h-56l8 45h61c48 149 141 235 266 235c51 0 105 -16 141 -42l-12 -68c-34 32 -78 49 -132 49c-83 0 -153 -67 -188 -174h180l-8 -45h-185c-3 -11 -5 -23 -7 -35l-6 -39h185l-8 -45h-180
c0 -105 38 -171 140 -171c47 0 91 19 137 49l-12 -68c-39 -25 -91 -42 -139 -42z" />
    <glyph glyph-name="guilsinglleft" unicode="&#x2039;" horiz-adv-x="291" 
d="M215 72l-182 179l245 178l17 -29l-180 -153l126 -152z" />
    <glyph glyph-name="guilsinglright" unicode="&#x203a;" horiz-adv-x="291" 
d="M23 72l-17 29l180 152l-126 153l26 23l182 -178z" />
    <glyph glyph-name="daggerdbl" unicode="&#x2021;" horiz-adv-x="430" 
d="M152 59l50 284h-153l11 59h153l35 197h67l-35 -197h153l-11 -59h-153l-50 -284h153l-10 -59h-153l-35 -197h-67l35 197h-153l10 59h153z" />
    <glyph glyph-name="periodcentered" unicode="&#xb7;" horiz-adv-x="260" 
d="M83 222l16 92h92l-16 -92h-92z" />
    <glyph glyph-name="quotesinglbase" unicode="&#x201a;" horiz-adv-x="213" 
d="M9 -127l-11 25c37 19 57 63 64 102h-39l16 88h88l-14 -77c-12 -68 -49 -122 -104 -138z" />
    <glyph glyph-name="quotedblbase" unicode="&#x201e;" horiz-adv-x="380" 
d="M176 -127l-11 25c37 19 57 63 64 102h-39l16 88h88l-14 -77c-12 -68 -49 -122 -104 -138zM9 -127l-11 25c37 19 57 63 64 102h-39l16 88h88l-14 -77c-12 -68 -49 -122 -104 -138z" />
    <glyph glyph-name="perthousand" unicode="&#x2030;" horiz-adv-x="969" 
d="M111 -18l-33 18l492 618l33 -18zM191 315c-74 0 -123 63 -111 150c12 86 77 149 151 149c75 0 124 -63 112 -149c-12 -87 -77 -150 -152 -150zM197 366c36 0 75 31 85 99c10 67 -21 98 -57 98c-37 0 -74 -31 -84 -98c-10 -68 19 -99 56 -99zM448 -12
c-74 0 -123 63 -111 150c12 86 78 149 152 149c75 0 123 -63 111 -149c-12 -87 -77 -150 -152 -150zM454 39c36 0 75 31 85 99c10 67 -21 98 -57 98c-37 0 -74 -31 -84 -98c-10 -68 19 -99 56 -99zM764 -12c-74 0 -123 63 -111 150c12 86 78 149 152 149
c75 0 123 -63 111 -149c-12 -87 -77 -150 -152 -150zM770 39c36 0 75 31 85 99c10 67 -21 98 -57 98c-37 0 -74 -31 -84 -98c-10 -68 19 -99 56 -99z" />
    <glyph glyph-name="Acircumflex" unicode="&#xc2;" horiz-adv-x="538" 
d="M-34 0l346 600h48l134 -600h-74l-37 168h-246l-97 -168h-74zM173 233h196l-54 247zM259 668l-24 25l133 110l95 -110l-27 -25l-76 73z" />
    <glyph glyph-name="Ecircumflex" unicode="&#xca;" horiz-adv-x="445" 
d="M24 0l106 600h337l-12 -64h-262l-32 -188h216l-12 -63h-216l-38 -221h262l-12 -64h-337zM220 668l-24 25l133 110l95 -110l-27 -25l-76 73z" />
    <glyph glyph-name="Aacute" unicode="&#xc1;" horiz-adv-x="538" 
d="M-34 0l346 600h48l134 -600h-74l-37 168h-246l-97 -168h-74zM173 233h196l-54 247zM311 663l-13 21l135 112l37 -56z" />
    <glyph glyph-name="Edieresis" unicode="&#xcb;" horiz-adv-x="445" 
d="M24 0l106 600h337l-12 -64h-262l-32 -188h216l-12 -63h-216l-38 -221h262l-12 -64h-337zM202 674l14 76h76l-14 -76h-76zM368 674l14 76h76l-14 -76h-76z" />
    <glyph glyph-name="Egrave" unicode="&#xc8;" horiz-adv-x="445" 
d="M24 0l106 600h337l-12 -64h-262l-32 -188h216l-12 -63h-216l-38 -221h262l-12 -64h-337zM357 663l-159 77l37 56l135 -112z" />
    <glyph glyph-name="Iacute" unicode="&#xcd;" horiz-adv-x="201" 
d="M144 663l-13 21l135 112l37 -56zM24 0l106 600h75l-106 -600h-75z" />
    <glyph glyph-name="Icircumflex" unicode="&#xce;" horiz-adv-x="201" 
d="M95 668l-24 25l133 110l95 -110l-27 -25l-76 73zM24 0l106 600h75l-106 -600h-75z" />
    <glyph glyph-name="Idieresis" unicode="&#xcf;" horiz-adv-x="201" 
d="M59 674l14 76h76l-14 -76h-76zM225 674l14 76h76l-14 -76h-76zM24 0l106 600h75l-106 -600h-75z" />
    <glyph glyph-name="Igrave" unicode="&#xcc;" horiz-adv-x="201" 
d="M232 663l-159 77l37 56l135 -112zM24 0l106 600h75l-106 -600h-75z" />
    <glyph glyph-name="Oacute" unicode="&#xd3;" horiz-adv-x="671" 
d="M310 -17c-164 0 -285 133 -262 317s166 317 340 317c163 0 285 -133 262 -317s-167 -317 -340 -317zM319 48c127 0 236 107 254 252c18 146 -67 252 -194 252c-128 0 -236 -106 -254 -252c-18 -145 66 -252 194 -252zM359 663l-13 21l135 112l37 -56z" />
    <glyph glyph-name="Ocircumflex" unicode="&#xd4;" horiz-adv-x="671" 
d="M310 -17c-164 0 -285 133 -262 317s166 317 340 317c163 0 285 -133 262 -317s-167 -317 -340 -317zM319 48c127 0 236 107 254 252c18 146 -67 252 -194 252c-128 0 -236 -106 -254 -252c-18 -145 66 -252 194 -252zM313 668l-24 25l133 110l95 -110l-27 -25l-76 73z
" />
    <glyph glyph-name="Ograve" unicode="&#xd2;" horiz-adv-x="671" 
d="M310 -17c-164 0 -285 133 -262 317s166 317 340 317c163 0 285 -133 262 -317s-167 -317 -340 -317zM319 48c127 0 236 107 254 252c18 146 -67 252 -194 252c-128 0 -236 -106 -254 -252c-18 -145 66 -252 194 -252zM458 663l-159 77l37 56l135 -112z" />
    <glyph glyph-name="Uacute" unicode="&#xda;" horiz-adv-x="609" 
d="M277 -17c-144 0 -240 91 -204 294l57 323h77l-57 -324c-27 -156 31 -228 133 -228c93 0 173 72 200 228l57 324h73l-57 -323c-36 -203 -134 -294 -279 -294zM350 663l-13 21l135 112l37 -56z" />
    <glyph glyph-name="Ucircumflex" unicode="&#xdb;" horiz-adv-x="609" 
d="M277 -17c-144 0 -240 91 -204 294l57 323h77l-57 -324c-27 -156 31 -228 133 -228c93 0 173 72 200 228l57 324h73l-57 -323c-36 -203 -134 -294 -279 -294zM296 668l-24 25l133 110l95 -110l-27 -25l-76 73z" />
    <glyph glyph-name="Ugrave" unicode="&#xd9;" horiz-adv-x="609" 
d="M277 -17c-144 0 -240 91 -204 294l57 323h77l-57 -324c-27 -156 31 -228 133 -228c93 0 173 72 200 228l57 324h73l-57 -323c-36 -203 -134 -294 -279 -294zM423 663l-159 77l37 56l135 -112z" />
    <glyph glyph-name="dotlessi" unicode="&#x131;" horiz-adv-x="196" 
d="M23 0l76 432h72l-76 -432h-72z" />
    <glyph glyph-name="circumflex" unicode="&#x2c6;" horiz-adv-x="300" 
d="M113 501l-24 25l133 110l95 -110l-27 -25l-76 73z" />
    <glyph glyph-name="tilde" unicode="&#x2dc;" horiz-adv-x="300" 
d="M260 506c-41 0 -77 48 -110 48c-22 0 -31 -15 -37 -44h-31c7 62 36 92 77 92s77 -48 110 -48c22 0 31 15 37 44h30c-7 -62 -35 -92 -76 -92z" />
    <glyph glyph-name="macron" unicode="&#xaf;" horiz-adv-x="300" 
d="M95 502l7 45h210l-7 -45h-210z" />
    <glyph glyph-name="breve" unicode="&#x2d8;" horiz-adv-x="300" 
d="M200 502c-54 0 -90 39 -79 99h18c6 -30 32 -53 69 -53c36 0 72 23 87 53h18c-11 -60 -59 -99 -113 -99z" />
    <glyph glyph-name="dotaccent" unicode="&#x2d9;" horiz-adv-x="300" 
d="M173 507l14 76h76l-14 -76h-76z" />
    <glyph glyph-name="ring" unicode="&#x2da;" horiz-adv-x="300" 
d="M209 502c-49 0 -84 37 -79 86s48 87 97 87s84 -38 79 -87s-48 -86 -97 -86zM213 539c28 0 52 21 55 49s-17 50 -45 50s-52 -22 -55 -50s17 -49 45 -49z" />
    <glyph glyph-name="cedilla" unicode="&#xb8;" horiz-adv-x="300" 
d="M1 -223l2 35c65 -1 113 16 115 61c2 38 -50 48 -97 34l1 22l107 102l36 -10l-73 -71c32 -2 82 -23 79 -73c-4 -76 -85 -105 -170 -100z" />
    <glyph glyph-name="hungarumlaut" unicode="&#x2dd;" horiz-adv-x="300" 
d="M81 497l-13 21l135 112l37 -56zM198 497l-13 21l135 112l37 -56z" />
    <glyph glyph-name="ogonek" unicode="&#x2db;" horiz-adv-x="300" 
d="M57 -135c-40 0 -70 31 -70 70c0 48 55 88 103 73l8 -1l-5 -13h-7c-25 0 -52 -19 -52 -42s14 -45 42 -45c17 0 33 6 41 23l7 15l7 -19l1 -3c-5 -36 -37 -58 -75 -58z" />
    <glyph glyph-name="caron" unicode="&#x2c7;" horiz-adv-x="300" 
d="M199 501l-95 110l27 25l76 -73l101 73l24 -25z" />
    <glyph glyph-name="currency" unicode="&#xa4;" 
d="M289 -14c-133 0 -203 85 -201 232h-61l8 45h56l6 39c2 12 4 24 7 35h-56l8 45h61c48 149 141 235 266 235c51 0 105 -16 141 -42l-12 -68c-34 32 -78 49 -132 49c-83 0 -153 -67 -188 -174h180l-8 -45h-185c-3 -11 -5 -23 -7 -35l-6 -39h185l-8 -45h-180
c0 -105 38 -171 140 -171c47 0 91 19 137 49l-12 -68c-39 -25 -91 -42 -139 -42z" />
    <glyph glyph-name="zero.oprp" horiz-adv-x="520" 
d="M234 -12c-140 0 -221 115 -199 240c22 127 125 216 249 216c141 0 221 -115 199 -240c-22 -127 -125 -216 -249 -216zM241 44c81 0 152 65 169 160c20 114 -47 184 -133 184c-81 0 -152 -63 -169 -160c-20 -114 47 -184 133 -184z" />
    <glyph glyph-name="one.oprp" horiz-adv-x="267" 
d="M59 0l63 358h-64l9 49l141 37l-78 -444h-71z" />
    <glyph glyph-name="two.oprp" horiz-adv-x="478" 
d="M16 0l10 58l182 110c79 47 137 86 141 136c5 57 -41 79 -95 79c-57 0 -112 -24 -175 -70l14 78c38 26 101 57 168 57c103 0 173 -56 166 -137c-6 -74 -69 -121 -137 -159l-153 -85h261l-12 -67h-370z" />
    <glyph glyph-name="three.oprp" horiz-adv-x="467" 
d="M147 -201c-68 0 -128 26 -160 59l11 76c34 -40 78 -72 156 -72c89 0 146 55 159 141c11 74 -26 131 -104 131c-39 0 -78 -14 -106 -39l-27 36l257 237h-266l11 64h371l-8 -44l-215 -198c97 -3 179 -72 162 -188c-18 -124 -113 -203 -241 -203z" />
    <glyph glyph-name="four.oprp" horiz-adv-x="489" 
d="M213 -195l34 195h-258l9 50l358 400h42l-70 -393h109l-10 -57h-109l-34 -195h-71zM74 57h183l46 256z" />
    <glyph glyph-name="five.oprp" horiz-adv-x="459" 
d="M143 -201c-68 0 -128 26 -160 59l11 76c34 -40 78 -72 156 -72c85 0 153 62 165 147c10 74 -26 138 -108 138c-57 0 -99 -27 -134 -82l-34 15l62 352h336l-11 -64h-273l-36 -202c36 30 73 40 110 40c102 0 177 -75 159 -197c-18 -125 -116 -210 -243 -210z" />
    <glyph glyph-name="six.oprp" 
d="M240 -14c-89 0 -217 57 -185 283c32 227 147 348 316 348c53 0 101 -18 122 -38l-12 -69c-28 26 -71 41 -120 41c-101 0 -195 -67 -228 -244c46 55 97 77 163 77c104 0 175 -93 159 -207c-16 -113 -103 -191 -215 -191zM237 43c79 0 137 55 146 138
c9 82 -28 141 -112 141c-64 0 -140 -53 -148 -124c-11 -104 52 -155 114 -155z" />
    <glyph glyph-name="seven.oprp" horiz-adv-x="414" 
d="M17 -195c72 187 270 517 310 563h-287l11 64h372l-8 -47c-70 -75 -250 -391 -314 -580h-84z" />
    <glyph glyph-name="eight.oprp" horiz-adv-x="502" 
d="M218 -14c-106 0 -184 68 -184 161c0 95 70 172 165 192c-43 22 -74 63 -74 116c0 96 88 162 188 162c87 0 155 -55 155 -130c0 -66 -47 -130 -127 -152c66 -29 105 -76 105 -151c0 -117 -90 -198 -228 -198zM197 454c0 -52 38 -89 88 -89c59 0 111 49 111 115
c0 52 -36 83 -88 83c-64 0 -111 -43 -111 -109zM234 43c72 0 140 54 140 140c0 68 -53 113 -128 113c-67 0 -140 -54 -140 -140c0 -69 53 -113 128 -113z" />
    <glyph glyph-name="nine.oprp" 
d="M256 449c89 0 217 -57 185 -283c-32 -227 -150 -366 -319 -366c-53 0 -101 18 -122 38l12 69c28 -26 71 -41 120 -41c101 0 198 85 231 262c-46 -55 -97 -77 -163 -77c-104 0 -175 93 -159 207c16 113 103 191 215 191zM259 392c-79 0 -137 -55 -146 -138
c-9 -82 28 -141 112 -141c64 0 141 55 148 124c11 104 -52 155 -114 155z" />
    <glyph glyph-name="zero.otab" 
d="M225 -12c-140 0 -215 115 -193 240c22 127 119 216 243 216c141 0 215 -115 193 -240c-22 -127 -119 -216 -243 -216zM232 44c81 0 146 65 163 160c20 114 -41 184 -127 184c-81 0 -146 -63 -163 -160c-20 -114 41 -184 127 -184z" />
    <glyph glyph-name="one.otab" 
d="M176 0l63 358h-64l9 49l141 37l-78 -444h-71z" />
    <glyph glyph-name="two.otab" 
d="M33 0v56l186 112c79 47 137 86 141 136c5 57 -41 79 -95 79c-57 0 -112 -24 -175 -70l14 78c38 26 101 57 168 57c103 0 173 -56 166 -137c-6 -74 -69 -121 -137 -159l-153 -85h261l-12 -67h-364z" />
    <glyph glyph-name="three.otab" 
d="M164 -201c-68 0 -128 26 -160 59l11 76c34 -40 78 -72 156 -72c89 0 146 55 159 141c11 74 -26 131 -104 131c-39 0 -78 -14 -106 -39l-27 36l257 237h-266l11 64h367v-40l-219 -202c97 -3 179 -72 162 -188c-18 -124 -113 -203 -241 -203z" />
    <glyph glyph-name="four.otab" 
d="M219 -195l34 195h-254v44l363 406h42l-70 -393h109l-10 -57h-109l-34 -195h-71zM80 57h183l46 256z" />
    <glyph glyph-name="five.otab" 
d="M164 -201c-68 0 -128 26 -160 59l11 76c34 -40 78 -72 156 -72c85 0 153 62 165 147c10 74 -26 138 -108 138c-57 0 -99 -27 -134 -82l-34 15l62 352h336l-11 -64h-273l-36 -202c36 30 73 40 110 40c102 0 177 -75 159 -197c-18 -125 -116 -210 -243 -210z" />
    <glyph glyph-name="six.otab" 
d="M240 -14c-89 0 -217 57 -185 283c32 227 147 348 316 348c53 0 101 -18 122 -38l-12 -69c-28 26 -71 41 -120 41c-101 0 -195 -67 -228 -244c46 55 97 77 163 77c104 0 175 -93 159 -207c-16 -113 -103 -191 -215 -191zM237 43c79 0 137 55 146 138
c9 82 -28 141 -112 141c-64 0 -140 -53 -148 -124c-11 -104 52 -155 114 -155z" />
    <glyph glyph-name="seven.otab" 
d="M60 -195c72 187 270 517 310 563h-287l11 64h369v-39c-70 -75 -255 -399 -319 -588h-84z" />
    <glyph glyph-name="eight.otab" 
d="M218 -14c-106 0 -184 68 -184 161c0 95 70 172 165 192c-43 22 -74 63 -74 116c0 96 88 162 188 162c87 0 155 -55 155 -130c0 -66 -47 -130 -127 -152c66 -29 105 -76 105 -151c0 -117 -90 -198 -228 -198zM197 454c0 -52 38 -89 88 -89c59 0 111 49 111 115
c0 52 -36 83 -88 83c-64 0 -111 -43 -111 -109zM234 43c72 0 140 54 140 140c0 68 -53 113 -128 113c-67 0 -140 -54 -140 -140c0 -69 53 -113 128 -113z" />
    <glyph glyph-name="nine.otab" 
d="M256 449c89 0 217 -57 185 -283c-32 -227 -150 -366 -319 -366c-53 0 -101 18 -122 38l12 69c28 -26 71 -41 120 -41c101 0 198 85 231 262c-46 -55 -97 -77 -163 -77c-104 0 -175 93 -159 207c16 113 103 191 215 191zM259 392c-79 0 -137 -55 -146 -138
c-9 -82 28 -141 112 -141c64 0 141 55 148 124c11 104 -52 155 -114 155z" />
    <glyph glyph-name="zero.ltab" 
d="M215 -14c-133 0 -194 127 -161 316c33 188 134 315 262 315c134 0 193 -127 160 -315c-33 -189 -132 -316 -261 -316zM220 50c85 0 156 95 183 252c27 156 -3 251 -93 251c-85 0 -156 -95 -183 -251c-27 -157 3 -252 93 -252z" />
    <glyph glyph-name="one.ltab" 
d="M176 0l93 526h-64l9 49l141 37l-108 -612h-71z" />
    <glyph glyph-name="two.ltab" 
d="M27 0v55l207 177c67 57 127 116 138 197c12 86 -32 124 -96 124c-52 0 -104 -22 -165 -68l12 75c35 26 103 57 164 57c110 0 177 -70 162 -182c-14 -104 -82 -172 -144 -222l-185 -149h279l-11 -64h-361z" />
    <glyph glyph-name="three.ltab" 
d="M197 -14c-68 0 -128 26 -160 59l11 76c34 -40 78 -72 156 -72c89 0 146 55 159 141c11 74 -26 131 -104 131c-39 0 -78 -14 -106 -39l-27 39l254 215h-266l11 64h367v-40l-216 -183c97 -3 179 -72 162 -188c-18 -124 -113 -203 -241 -203z" />
    <glyph glyph-name="four.ltab" 
d="M254 0l27 156h-254v44l364 411h42l-71 -398h109l-10 -57h-109l-27 -156h-71zM107 213h184l47 261z" />
    <glyph glyph-name="five.ltab" 
d="M197 -14c-68 0 -128 26 -160 59l11 76c34 -40 78 -72 156 -72c85 0 153 62 165 147c10 74 -26 138 -108 138c-57 0 -99 -27 -134 -82l-34 15l59 333h336l-11 -64h-273l-33 -183c36 30 73 40 110 40c102 0 177 -75 159 -197c-18 -125 -116 -210 -243 -210z" />
    <glyph glyph-name="six.ltab" 
d="M240 -14c-89 0 -217 57 -185 283c32 227 147 348 316 348c53 0 101 -18 122 -38l-12 -69c-28 26 -71 41 -120 41c-101 0 -195 -67 -228 -244c46 55 97 77 163 77c104 0 175 -93 159 -207c-16 -113 -103 -191 -215 -191zM237 43c79 0 137 55 146 138
c9 82 -28 141 -112 141c-64 0 -140 -53 -148 -124c-11 -104 52 -155 114 -155z" />
    <glyph glyph-name="seven.ltab" 
d="M95 0c72 187 265 490 305 536h-287l11 64h369v-39c-70 -75 -250 -372 -314 -561h-84z" />
    <glyph glyph-name="eight.ltab" 
d="M218 -14c-106 0 -184 68 -184 161c0 95 70 172 165 192c-43 22 -74 63 -74 116c0 96 88 162 188 162c87 0 155 -55 155 -130c0 -66 -47 -130 -127 -152c66 -29 105 -76 105 -151c0 -117 -90 -198 -228 -198zM197 454c0 -52 38 -89 88 -89c59 0 111 49 111 115
c0 52 -36 83 -88 83c-64 0 -111 -43 -111 -109zM234 43c72 0 140 54 140 140c0 68 -53 113 -128 113c-67 0 -140 -54 -140 -140c0 -69 53 -113 128 -113z" />
    <glyph glyph-name="nine.ltab" 
d="M286 617c89 0 217 -57 185 -283c-32 -227 -147 -348 -316 -348c-53 0 -101 18 -122 38l12 69c28 -26 71 -41 120 -41c101 0 195 67 228 244c-46 -55 -97 -77 -163 -77c-104 0 -175 93 -159 207c16 113 103 191 215 191zM289 560c-79 0 -137 -55 -146 -138
c-9 -82 28 -141 112 -141c64 0 141 55 148 124c11 104 -52 155 -114 155z" />
    <glyph glyph-name="questiondown.caps" horiz-adv-x="410" 
d="M369 600l-16 -92h-92l16 92h92zM327 440l-22 -122l-58 -26c-109 -49 -150 -95 -155 -151c-6 -65 43 -95 113 -95c56 0 138 32 184 76l-9 -76c-41 -35 -120 -63 -188 -63c-101 0 -190 49 -178 155c10 89 85 150 178 190l58 25l16 87h61z" />
    <glyph glyph-name="exclamdown.caps" horiz-adv-x="218" 
d="M222 600l-16 -88h-88l16 88h88zM173 440l-54 -440h-93l103 440h44z" />
    <glyph glyph-name="at.caps" horiz-adv-x="680" 
d="M331 154c37 0 84 39 99 93l43 157c-8 11 -26 25 -59 25c-58 0 -106 -61 -129 -141s-11 -134 46 -134zM334 -40c-179 0 -309 132 -291 306c20 193 196 351 389 351c157 0 268 -105 251 -263c-14 -131 -128 -246 -212 -246c-38 0 -58 26 -60 51c-26 -30 -74 -55 -105 -55
c-84 0 -114 84 -85 184c29 101 113 183 204 183c27 0 43 -5 63 -17h56l-69 -245c-12 -43 -3 -60 26 -60c50 0 134 91 145 203c14 138 -82 221 -204 221c-166 0 -317 -142 -333 -304c-17 -168 82 -270 237 -270c79 0 149 24 219 64l8 -23c-86 -57 -167 -80 -239 -80z" />
    <glyph glyph-name="Q.alt" horiz-adv-x="671" 
d="M319 48c127 0 236 107 254 252c18 146 -67 252 -194 252c-128 0 -236 -106 -254 -252c-18 -145 66 -252 194 -252zM373 -11l24 -49c30 -61 55 -79 99 -79c34 0 65 15 92 44l27 -36c-27 -32 -69 -67 -142 -67c-68 0 -118 37 -151 112l-31 70c-154 9 -265 139 -243 316
c23 184 166 317 340 317c163 0 285 -133 262 -317c-20 -161 -133 -283 -277 -311z" />
    <glyph glyph-name="Q.alt2" horiz-adv-x="671" 
d="M319 48c127 0 236 107 254 252c18 146 -67 252 -194 252c-128 0 -236 -106 -254 -252c-18 -145 66 -252 194 -252zM451 14l83 -147h-89l-68 123c-22 -5 -44 -7 -67 -7c-164 0 -285 133 -262 317s166 317 340 317c163 0 285 -133 262 -317c-16 -131 -94 -236 -199 -286z
" />
    <glyph glyph-name="a.alt" horiz-adv-x="523" 
d="M209 43c75 0 146 69 164 173s-27 173 -102 173s-146 -69 -164 -173s27 -173 102 -173zM419 89c-6 -37 1 -53 27 -53c10 0 21 3 30 6v-29c-22 -14 -45 -21 -71 -21c-37 0 -63 20 -62 67c-36 -42 -94 -71 -149 -71c-127 0 -179 110 -159 233c21 128 120 223 238 223
c57 0 107 -34 126 -74l24 62h55z" />
    <glyph glyph-name="aacute.alt" horiz-adv-x="523" 
d="M209 43c75 0 146 69 164 173s-27 173 -102 173s-146 -69 -164 -173s27 -173 102 -173zM419 89c-6 -37 1 -53 27 -53c10 0 21 3 30 6v-29c-22 -14 -45 -21 -71 -21c-37 0 -63 20 -62 67c-36 -42 -94 -71 -149 -71c-127 0 -179 110 -159 233c21 128 120 223 238 223
c57 0 107 -34 126 -74l24 62h55zM253 496l-13 21l135 112l37 -56z" />
    <glyph glyph-name="acircumflex.alt" horiz-adv-x="523" 
d="M209 43c75 0 146 69 164 173s-27 173 -102 173s-146 -69 -164 -173s27 -173 102 -173zM419 89c-6 -37 1 -53 27 -53c10 0 21 3 30 6v-29c-22 -14 -45 -21 -71 -21c-37 0 -63 20 -62 67c-36 -42 -94 -71 -149 -71c-127 0 -179 110 -159 233c21 128 120 223 238 223
c57 0 107 -34 126 -74l24 62h55zM209 501l-24 25l133 110l95 -110l-27 -25l-76 73z" />
    <glyph glyph-name="adieresis.alt" horiz-adv-x="523" 
d="M209 43c75 0 146 69 164 173s-27 173 -102 173s-146 -69 -164 -173s27 -173 102 -173zM419 89c-6 -37 1 -53 27 -53c10 0 21 3 30 6v-29c-22 -14 -45 -21 -71 -21c-37 0 -63 20 -62 67c-36 -42 -94 -71 -149 -71c-127 0 -179 110 -159 233c21 128 120 223 238 223
c57 0 107 -34 126 -74l24 62h55zM178 507l14 76h76l-14 -76h-76zM344 507l14 76h76l-14 -76h-76z" />
    <glyph glyph-name="agrave.alt" horiz-adv-x="523" 
d="M209 43c75 0 146 69 164 173s-27 173 -102 173s-146 -69 -164 -173s27 -173 102 -173zM419 89c-6 -37 1 -53 27 -53c10 0 21 3 30 6v-29c-22 -14 -45 -21 -71 -21c-37 0 -63 20 -62 67c-36 -42 -94 -71 -149 -71c-127 0 -179 110 -159 233c21 128 120 223 238 223
c57 0 107 -34 126 -74l24 62h55zM348 496l-159 77l37 56l135 -112z" />
    <glyph glyph-name="aring.alt" horiz-adv-x="523" 
d="M209 43c75 0 146 69 164 173s-27 173 -102 173s-146 -69 -164 -173s27 -173 102 -173zM419 89c-6 -37 1 -53 27 -53c10 0 21 3 30 6v-29c-22 -14 -45 -21 -71 -21c-37 0 -63 20 -62 67c-36 -42 -94 -71 -149 -71c-127 0 -179 110 -159 233c21 128 120 223 238 223
c57 0 107 -34 126 -74l24 62h55zM297 502c-49 0 -84 37 -79 86s48 87 97 87s84 -38 79 -87s-48 -86 -97 -86zM301 539c28 0 52 21 55 49s-17 50 -45 50s-52 -22 -55 -50s17 -49 45 -49z" />
    <glyph glyph-name="atilde.alt" horiz-adv-x="523" 
d="M209 43c75 0 146 69 164 173s-27 173 -102 173s-146 -69 -164 -173s27 -173 102 -173zM419 89c-6 -37 1 -53 27 -53c10 0 21 3 30 6v-29c-22 -14 -45 -21 -71 -21c-37 0 -63 20 -62 67c-36 -42 -94 -71 -149 -71c-127 0 -179 110 -159 233c21 128 120 223 238 223
c57 0 107 -34 126 -74l24 62h55zM348 506c-41 0 -77 48 -110 48c-22 0 -31 -15 -37 -44h-31c7 62 36 92 77 92s77 -48 110 -48c22 0 31 15 37 44h30c-7 -62 -35 -92 -76 -92z" />
    <glyph glyph-name="d.alt" horiz-adv-x="523" 
d="M209 43c75 0 146 69 164 173s-27 173 -102 173s-146 -69 -164 -173s27 -173 102 -173zM419 89c-6 -36 1 -53 27 -53c10 0 21 3 30 6v-29c-22 -14 -45 -21 -71 -21c-37 0 -63 20 -62 67c-36 -42 -94 -71 -149 -71c-127 0 -179 110 -159 233c21 128 120 223 238 223
c57 0 108 -35 123 -73l40 229h72z" />
    <glyph glyph-name="f.alt" horiz-adv-x="252" 
d="M-1 -195l102 579h-79l8 48h79l4 22c23 128 95 160 172 160c12 0 31 -4 41 -7l-10 -50c-8 2 -16 4 -27 4c-51 0 -89 -20 -104 -106l-4 -23h114l-8 -48h-114l-102 -579h-72z" />
    <glyph glyph-name="t.alt" horiz-adv-x="278" 
d="M157 -9c-65 0 -114 46 -98 137l45 256h-66l8 48h66l20 113h72l-20 -113h109l-8 -48h-109l-45 -254c-10 -58 7 -88 51 -88c20 0 37 5 53 15l9 -35c-24 -18 -50 -31 -87 -31z" />
    <glyph glyph-name="u.alt" horiz-adv-x="524" 
d="M347 97c-45 -68 -116 -105 -179 -105c-80 0 -138 64 -119 170l47 270h72l-46 -264c-14 -81 24 -115 71 -115c59 0 157 62 181 204l30 175h72l-59 -340c-7 -40 2 -56 28 -56c10 0 21 3 30 6v-29c-22 -14 -45 -21 -71 -21c-44 0 -74 27 -57 105z" />
    <glyph glyph-name="uacute.alt" horiz-adv-x="524" 
d="M347 97c-45 -68 -116 -105 -179 -105c-80 0 -138 64 -119 170l47 270h72l-46 -264c-14 -81 24 -115 71 -115c59 0 157 62 181 204l30 175h72l-59 -340c-7 -40 2 -56 28 -56c10 0 21 3 30 6v-29c-22 -14 -45 -21 -71 -21c-44 0 -74 27 -57 105zM249 496l-13 21l135 112
l37 -56z" />
    <glyph glyph-name="ucircumflex.alt" horiz-adv-x="524" 
d="M347 97c-45 -68 -116 -105 -179 -105c-80 0 -138 64 -119 170l47 270h72l-46 -264c-14 -81 24 -115 71 -115c59 0 157 62 181 204l30 175h72l-59 -340c-7 -40 2 -56 28 -56c10 0 21 3 30 6v-29c-22 -14 -45 -21 -71 -21c-44 0 -74 27 -57 105zM200 501l-24 25l133 110
l95 -110l-27 -25l-76 73z" />
    <glyph glyph-name="udieresis.alt" horiz-adv-x="524" 
d="M347 97c-45 -68 -116 -105 -179 -105c-80 0 -138 64 -119 170l47 270h72l-46 -264c-14 -81 24 -115 71 -115c59 0 157 62 181 204l30 175h72l-59 -340c-7 -40 2 -56 28 -56c10 0 21 3 30 6v-29c-22 -14 -45 -21 -71 -21c-44 0 -74 27 -57 105zM170 507l14 76h76l-14 -76
h-76zM336 507l14 76h76l-14 -76h-76z" />
    <glyph glyph-name="ugrave.alt" horiz-adv-x="524" 
d="M347 97c-45 -68 -116 -105 -179 -105c-80 0 -138 64 -119 170l47 270h72l-46 -264c-14 -81 24 -115 71 -115c59 0 157 62 181 204l30 175h72l-59 -340c-7 -40 2 -56 28 -56c10 0 21 3 30 6v-29c-22 -14 -45 -21 -71 -21c-44 0 -74 27 -57 105zM327 496l-159 77l37 56
l135 -112z" />
    <glyph glyph-name="y.alt" 
d="M346 96c-42 -65 -113 -104 -178 -104c-80 0 -138 64 -119 170l47 270h72l-46 -264c-14 -81 24 -115 71 -115c59 0 157 62 181 204l30 175h72l-70 -399c-30 -171 -106 -237 -237 -237c-49 0 -99 17 -140 38v57c48 -27 93 -40 149 -40c73 0 130 47 157 188z" />
    <glyph glyph-name="yacute.alt" 
d="M346 96c-42 -65 -113 -104 -178 -104c-80 0 -138 64 -119 170l47 270h72l-46 -264c-14 -81 24 -115 71 -115c59 0 157 62 181 204l30 175h72l-70 -399c-30 -171 -106 -237 -237 -237c-49 0 -99 17 -140 38v57c48 -27 93 -40 149 -40c73 0 130 47 157 188zM259 496l-13 21
l135 112l37 -56z" />
    <glyph glyph-name="ydieresis.alt" 
d="M346 96c-42 -65 -113 -104 -178 -104c-80 0 -138 64 -119 170l47 270h72l-46 -264c-14 -81 24 -115 71 -115c59 0 157 62 181 204l30 175h72l-70 -399c-30 -171 -106 -237 -237 -237c-49 0 -99 17 -140 38v57c48 -27 93 -40 149 -40c73 0 130 47 157 188zM173 507l14 76
h76l-14 -76h-76zM339 507l14 76h76l-14 -76h-76z" />
    <glyph glyph-name="fi.alt" horiz-adv-x="449" 
d="M370 519l14 81h72l-14 -81h-72zM278 0l76 432h72l-76 -432h-72zM-1 -195l102 579h-79l8 48h79l4 22c23 128 95 160 172 160c12 0 31 -4 41 -7l-10 -50c-8 2 -16 4 -27 4c-51 0 -89 -20 -104 -106l-4 -23h114l-8 -48h-114l-102 -579h-72z" />
    <glyph glyph-name="fl.alt" horiz-adv-x="447" 
d="M-1 -195l102 579h-79l8 48h79l1 6c22 129 95 176 189 176c32 0 56 -9 83 -17l72 13l-106 -610h-72l95 545c-24 10 -54 17 -75 17c-57 0 -95 -22 -112 -114l-3 -16h114l-8 -48h-114l-102 -579h-72z" />
    <glyph glyph-name="mu.alt" horiz-adv-x="523" 
d="M97 432h72l-46 -264c-14 -81 24 -115 71 -115c59 0 157 62 181 204l30 175h72l-59 -340c-7 -40 2 -56 28 -56c10 0 21 3 30 6v-29c-22 -14 -45 -21 -71 -21c-44 0 -74 27 -57 105c-45 -68 -116 -105 -179 -105c-28 0 -53 8 -73 22l-37 -209h-72z" />
    <glyph glyph-name="ordfeminine.alt" horiz-adv-x="410" 
d="M196 265c-94 0 -138 81 -123 175c16 99 96 168 183 168c43 0 83 -22 98 -53l22 48h38l-40 -230c-9 -51 -11 -73 -10 -102h-50c-1 13 -1 43 2 52c-28 -36 -74 -58 -120 -58zM208 312c51 0 104 45 118 125s-21 124 -72 124s-104 -44 -118 -124s21 -125 72 -125z" />
    <glyph glyph-name="nbspace" unicode="&#xa0;" horiz-adv-x="152" 
 />
    </font>
</defs>
</svg>
